<svg width="822" height="178" viewBox="0 0 822 178" fill="none" xmlns="http://www.w3.org/2000/svg">
<path d="M18.6655 1.212H0.101453V3.214C5.10645 3.487 6.01645 4.306 6.01645 10.494V52.718C6.01645 58.906 5.10645 59.725 0.101453 59.998V62H18.6655C31.6785 62 42.3255 50.17 42.3255 31.606C42.3255 13.042 31.6785 1.212 18.6655 1.212ZM17.3915 59.452C13.4785 59.452 12.9325 58.36 12.9325 55.812V3.76H17.9375C29.4945 3.76 34.9545 15.317 34.9545 31.606C34.9545 47.895 29.4945 59.452 17.9375 59.452H17.3915ZM53.9159 10.858V52.354C53.9159 58.997 53.0059 59.634 48.0009 60.18V62.182C53.5519 61.727 54.3709 61.636 57.3739 61.636C60.3769 61.636 61.1959 61.727 66.7469 62.182V60.18C61.7419 59.634 60.8319 58.997 60.8319 52.354V10.858C60.8319 4.215 61.7419 3.578 66.7469 3.032V1.03C61.1959 1.485 60.3769 1.576 57.3739 1.576C54.3709 1.576 53.5519 1.485 48.0009 1.03V3.032C53.0059 3.578 53.9159 4.215 53.9159 10.858ZM96.2792 29.877L88.3622 25.236C83.0842 22.142 79.8992 19.048 79.8992 13.224C79.8992 6.854 83.4482 2.668 89.5452 2.668C96.4612 2.668 100.465 9.584 101.921 18.411H103.559V0.210998H102.285L100.465 6.399C98.3722 3.214 94.3682 0.301997 89.1812 0.301997C81.8102 0.301997 74.3482 5.762 74.3482 15.59C74.3482 23.598 78.3522 28.148 84.5402 31.788L91.1832 35.701C97.0072 39.159 100.556 42.89 100.556 49.806C100.556 56.449 96.4612 60.544 89.4542 60.544C81.1732 60.544 77.1692 53.81 75.6222 42.526H73.8022V63.365H75.0762L77.4422 57.359C79.8992 60.635 84.5402 62.91 89.7272 62.91C99.3732 62.91 106.471 55.175 106.471 46.257C106.471 38.34 102.649 33.608 96.2792 29.877ZM147.644 41.343C146.916 54.72 141.274 59.725 135.177 59.725C125.349 59.725 120.799 50.079 120.799 31.606C120.799 13.497 125.076 2.668 134.085 2.668C141.183 2.668 145.278 7.764 147.371 19.412H149.009V0.301997H147.735L145.733 6.126C143.458 2.941 139.454 0.301997 134.085 0.301997C122.71 0.301997 113.428 11.222 113.428 31.606C113.428 51.99 122.255 62.91 133.812 62.91C142.457 62.91 149.282 56.54 150.01 41.343H147.644ZM178.172 62.91C189.729 62.91 199.284 52.081 199.284 31.606C199.284 11.131 189.729 0.301997 178.172 0.301997C166.615 0.301997 157.06 11.131 157.06 31.606C157.06 52.081 166.615 62.91 178.172 62.91ZM178.172 60.544C168.89 60.544 164.431 49.533 164.431 31.606C164.431 13.679 168.89 2.668 178.172 2.668C187.454 2.668 191.913 13.679 191.913 31.606C191.913 49.533 187.454 60.544 178.172 60.544ZM241.173 1.576C238.989 1.576 236.259 1.30299 233.62 1.03V3.032C238.989 3.578 239.444 4.124 237.533 10.494L226.431 48.623L215.147 10.494C213.236 4.033 213.691 3.578 219.06 3.032V1.03C214.419 1.394 212.053 1.576 209.141 1.576C206.32 1.576 204.318 1.394 200.587 1.03V3.032C204.682 3.578 205.683 3.85099 207.685 10.403L224.065 62.91H225.157L240.172 10.494C241.901 4.488 243.084 3.578 247.361 3.032V1.03C245.086 1.394 242.993 1.576 241.173 1.576ZM284.58 47.076C282.396 56.813 281.122 59.452 273.66 59.452H267.108C263.195 59.452 262.649 58.36 262.649 55.812V31.788H273.205C276.299 31.788 277.209 33.426 277.391 39.159H279.211V21.869H277.391C277.118 27.602 276.299 29.24 273.205 29.24H262.649V3.76H271.749C278.938 3.76 280.667 6.217 282.396 15.317H284.216L282.942 1.212H249.818V3.214C254.823 3.487 255.733 4.306 255.733 10.494V52.718C255.733 58.906 254.823 59.725 249.818 59.998V62H284.853L286.4 47.076H284.58ZM329.617 55.175L324.703 42.253C321.973 35.155 316.877 32.698 313.146 32.061C321.427 31.151 328.343 25.236 328.343 16.773C328.343 7.309 321.791 1.212 311.235 1.212H291.852V3.214C296.857 3.487 297.767 4.306 297.767 10.494V52.354C297.767 58.997 296.857 59.634 291.852 60.18V62.182C297.403 61.727 298.222 61.636 301.225 61.636C304.228 61.636 305.047 61.727 310.598 62.182V60.18C305.593 59.634 304.683 58.997 304.683 52.354V32.88H306.594C312.964 32.88 315.239 36.702 317.15 42.162L321.791 55.448C323.884 61.545 327.706 62.819 331.71 62.819C333.439 62.819 335.441 62.637 336.897 62.273V60.271C332.529 60.271 331.346 59.634 329.617 55.175ZM309.87 3.76C317.605 3.76 320.972 8.947 320.972 17.137C320.972 25.236 317.605 30.332 309.961 30.332H304.683V3.76H309.87ZM387.44 1.212H350.858L349.675 16.136H351.495C353.315 6.308 354.771 3.76 362.051 3.76H365.691V52.354C365.691 59.088 364.69 59.634 359.139 60.18V62.182C363.325 61.818 365.964 61.636 369.149 61.636C372.334 61.636 374.973 61.818 379.159 62.182V60.18C373.608 59.634 372.607 59.088 372.607 52.354V3.76H376.247C383.527 3.76 384.983 6.308 386.803 16.136H388.623L387.44 1.212ZM439.48 3.032V1.03C433.929 1.485 433.11 1.576 430.107 1.576C427.104 1.576 426.285 1.485 420.734 1.03V3.032C425.739 3.578 426.649 4.215 426.649 10.858V29.331H405.992V10.858C405.992 4.215 406.902 3.578 411.907 3.032V1.03C406.356 1.485 405.537 1.576 402.534 1.576C399.531 1.576 398.712 1.485 393.161 1.03V3.032C398.166 3.578 399.076 4.215 399.076 10.858V52.354C399.076 58.997 398.166 59.634 393.161 60.18V62.182C398.712 61.727 399.531 61.636 402.534 61.636C405.537 61.636 406.356 61.727 411.907 62.182V60.18C406.902 59.634 405.992 58.997 405.992 52.354V31.879H426.649V52.354C426.649 58.997 425.739 59.634 420.734 60.18V62.182C426.285 61.727 427.104 61.636 430.107 61.636C433.11 61.636 433.929 61.727 439.48 62.182V60.18C434.475 59.634 433.565 58.997 433.565 52.354V10.858C433.565 4.215 434.475 3.578 439.48 3.032ZM480.088 47.076C477.904 56.813 476.63 59.452 469.168 59.452H462.616C458.703 59.452 458.157 58.36 458.157 55.812V31.788H468.713C471.807 31.788 472.717 33.426 472.899 39.159H474.719V21.869H472.899C472.626 27.602 471.807 29.24 468.713 29.24H458.157V3.76H467.257C474.446 3.76 476.175 6.217 477.904 15.317H479.724L478.45 1.212H445.326V3.214C450.331 3.487 451.241 4.306 451.241 10.494V52.718C451.241 58.906 450.331 59.725 445.326 59.998V62H480.361L481.908 47.076H480.088ZM539.193 41.343C538.465 54.72 532.823 59.725 526.726 59.725C516.898 59.725 512.348 50.079 512.348 31.606C512.348 13.497 516.625 2.668 525.634 2.668C532.732 2.668 536.827 7.764 538.92 19.412H540.558V0.301997H539.284L537.282 6.126C535.007 2.941 531.003 0.301997 525.634 0.301997C514.259 0.301997 504.977 11.222 504.977 31.606C504.977 51.99 513.804 62.91 525.361 62.91C534.006 62.91 540.831 56.54 541.559 41.343H539.193ZM569.721 62.91C581.278 62.91 590.833 52.081 590.833 31.606C590.833 11.131 581.278 0.301997 569.721 0.301997C558.164 0.301997 548.609 11.131 548.609 31.606C548.609 52.081 558.164 62.91 569.721 62.91ZM569.721 60.544C560.439 60.544 555.98 49.533 555.98 31.606C555.98 13.679 560.439 2.668 569.721 2.668C579.003 2.668 583.462 13.679 583.462 31.606C583.462 49.533 579.003 60.544 569.721 60.544ZM646.717 52.354L645.443 10.858C645.261 4.215 646.08 3.578 651.085 3.123V1.121C645.534 1.485 644.715 1.576 642.622 1.576C640.984 1.576 639.255 1.485 637.981 1.30299L624.422 46.257L611.136 1.30299C609.771 1.485 608.497 1.576 606.222 1.576C604.129 1.576 603.31 1.485 597.759 1.03V3.032C602.764 3.578 603.583 4.215 603.401 10.858L602.127 52.354C601.945 58.997 600.944 59.634 595.939 60.18V62.182C598.578 61.909 600.853 61.636 603.128 61.636H603.219C605.676 61.636 607.496 61.818 610.954 62.182V60.18C605.403 59.634 604.493 59.088 604.675 52.354L606.04 8.674L621.601 60.817H622.693L638.527 8.583L639.801 52.354C639.983 59.088 639.073 59.634 633.522 60.18V62.182C637.89 61.818 640.165 61.636 643.35 61.636H643.532C646.535 61.636 647.354 61.727 652.905 62.182V60.18C647.9 59.634 646.899 58.997 646.717 52.354ZM677.186 34.336C687.469 34.336 695.841 27.693 695.841 17.501C695.841 7.582 689.107 1.212 677.368 1.212H657.985V3.214C662.99 3.487 663.9 4.306 663.9 10.494V52.354C663.9 58.997 662.99 59.634 657.985 60.18V62.182C663.536 61.727 664.355 61.636 667.358 61.636H668.359C671.635 61.636 674.183 61.818 678.369 62.182V60.18C672.636 59.725 670.816 58.997 670.816 52.354V34.336H677.186ZM676.003 3.76C684.648 3.76 688.47 9.22 688.47 17.956C688.47 26.419 684.648 31.697 676.185 31.697H670.816V3.76H676.003ZM732.511 52.809L715.585 0.301997H714.493L699.66 52.718C697.931 58.724 697.021 59.634 692.744 60.18V62.182C695.11 61.909 696.839 61.636 698.932 61.636C701.025 61.636 703.937 61.909 706.394 62.182V60.18C701.389 59.634 700.479 59.179 702.299 52.718L704.938 43.436H722.41L725.231 52.718C727.233 59.27 726.141 59.634 721.136 60.18V62.182C725.504 61.818 727.87 61.636 730.691 61.636C733.603 61.636 735.423 61.818 739.336 62.182V60.18C735.241 59.634 734.604 59.361 732.511 52.809ZM705.666 40.888L713.401 14.134L721.591 40.888H705.666ZM774.958 41.343C774.23 54.72 768.588 59.725 762.491 59.725C752.663 59.725 748.113 50.079 748.113 31.606C748.113 13.497 752.39 2.668 761.399 2.668C768.497 2.668 772.592 7.764 774.685 19.412H776.323V0.301997H775.049L773.047 6.126C770.772 2.941 766.768 0.301997 761.399 0.301997C750.024 0.301997 740.742 11.222 740.742 31.606C740.742 51.99 749.569 62.91 761.126 62.91C769.771 62.91 776.596 56.54 777.324 41.343H774.958ZM820.046 1.212H783.464L782.281 16.136H784.101C785.921 6.308 787.377 3.76 794.657 3.76H798.297V52.354C798.297 59.088 797.296 59.634 791.745 60.18V62.182C795.931 61.818 798.57 61.636 801.755 61.636C804.94 61.636 807.579 61.818 811.765 62.182V60.18C806.214 59.634 805.213 59.088 805.213 52.354V3.76H808.853C816.133 3.76 817.589 6.308 819.409 16.136H821.229L820.046 1.212ZM128.659 153.809L111.733 101.302H110.641L95.8079 153.718C94.0789 159.724 93.1689 160.634 88.8919 161.18V163.182C91.2579 162.909 92.9869 162.636 95.0799 162.636C97.1729 162.636 100.085 162.909 102.542 163.182V161.18C97.5369 160.634 96.6269 160.179 98.4469 153.718L101.086 144.436H118.558L121.379 153.718C123.381 160.27 122.289 160.634 117.284 161.18V163.182C121.652 162.818 124.018 162.636 126.839 162.636C129.751 162.636 131.571 162.818 135.484 163.182V161.18C131.389 160.634 130.752 160.361 128.659 153.809ZM101.814 141.888L109.549 115.134L117.739 141.888H101.814ZM173.71 146.529H171.89C169.524 157.54 166.43 160.452 160.151 160.452H154.691C150.778 160.452 150.232 159.36 150.232 156.812V111.858C150.232 105.124 151.233 104.578 156.693 104.032V102.03C151.233 102.485 149.959 102.576 146.774 102.576C143.771 102.576 142.952 102.485 137.401 102.03V104.032C142.406 104.578 143.316 105.215 143.316 111.858V153.718C143.316 159.906 142.406 160.725 137.401 160.998V163H171.344L173.71 146.529ZM214.234 146.529H212.414C210.048 157.54 206.954 160.452 200.675 160.452H195.215C191.302 160.452 190.756 159.36 190.756 156.812V111.858C190.756 105.124 191.757 104.578 197.217 104.032V102.03C191.757 102.485 190.483 102.576 187.298 102.576C184.295 102.576 183.476 102.485 177.925 102.03V104.032C182.93 104.578 183.84 105.215 183.84 111.858V153.718C183.84 159.906 182.93 160.725 177.925 160.998V163H211.868L214.234 146.529ZM216.447 135.882V139.522H234.738V135.882H216.447ZM274.627 148.076C272.443 157.813 271.169 160.452 263.707 160.452H257.155C253.242 160.452 252.696 159.36 252.696 156.812V132.788H263.252C266.346 132.788 267.256 134.426 267.438 140.159H269.258V122.869H267.438C267.165 128.602 266.346 130.24 263.252 130.24H252.696V104.76H261.796C268.985 104.76 270.714 107.217 272.443 116.317H274.263L272.989 102.212H239.865V104.214C244.87 104.487 245.78 105.306 245.78 111.494V153.718C245.78 159.906 244.87 160.725 239.865 160.998V163H274.9L276.447 148.076H274.627ZM318.208 146.529H316.388C314.022 157.54 310.928 160.452 304.649 160.452H299.189C295.276 160.452 294.73 159.36 294.73 156.812V111.858C294.73 105.124 295.731 104.578 301.191 104.032V102.03C295.731 102.485 294.457 102.576 291.272 102.576C288.269 102.576 287.45 102.485 281.899 102.03V104.032C286.904 104.578 287.814 105.215 287.814 111.858V153.718C287.814 159.906 286.904 160.725 281.899 160.998V163H315.842L318.208 146.529ZM357.185 148.076C355.001 157.813 353.727 160.452 346.265 160.452H339.713C335.8 160.452 335.254 159.36 335.254 156.812V132.788H345.81C348.904 132.788 349.814 134.426 349.996 140.159H351.816V122.869H349.996C349.723 128.602 348.904 130.24 345.81 130.24H335.254V104.76H344.354C351.543 104.76 353.272 107.217 355.001 116.317H356.821L355.547 102.212H322.423V104.214C327.428 104.487 328.338 105.306 328.338 111.494V153.718C328.338 159.906 327.428 160.725 322.423 160.998V163H357.458L359.005 148.076H357.185ZM399.583 142.343C398.855 155.72 393.213 160.725 387.116 160.725C377.288 160.725 372.738 151.079 372.738 132.606C372.738 114.497 377.015 103.668 386.024 103.668C393.122 103.668 397.217 108.764 399.31 120.412H400.948V101.302H399.674L397.672 107.126C395.397 103.941 391.393 101.302 386.024 101.302C374.649 101.302 365.367 112.222 365.367 132.606C365.367 152.99 374.194 163.91 385.751 163.91C394.396 163.91 401.221 157.54 401.949 142.343H399.583ZM444.671 102.212H408.089L406.906 117.136H408.726C410.546 107.308 412.002 104.76 419.282 104.76H422.922V153.354C422.922 160.088 421.921 160.634 416.37 161.18V163.182C420.556 162.818 423.195 162.636 426.38 162.636C429.565 162.636 432.204 162.818 436.39 163.182V161.18C430.839 160.634 429.838 160.088 429.838 153.354V104.76H433.478C440.758 104.76 442.214 107.308 444.034 117.136H445.854L444.671 102.212ZM488.156 156.175L483.242 143.253C480.512 136.155 475.416 133.698 471.685 133.061C479.966 132.151 486.882 126.236 486.882 117.773C486.882 108.309 480.33 102.212 469.774 102.212H450.391V104.214C455.396 104.487 456.306 105.306 456.306 111.494V153.354C456.306 159.997 455.396 160.634 450.391 161.18V163.182C455.942 162.727 456.761 162.636 459.764 162.636C462.767 162.636 463.586 162.727 469.137 163.182V161.18C464.132 160.634 463.222 159.997 463.222 153.354V133.88H465.133C471.503 133.88 473.778 137.702 475.689 143.162L480.33 156.448C482.423 162.545 486.245 163.819 490.249 163.819C491.978 163.819 493.98 163.637 495.436 163.273V161.271C491.068 161.271 489.885 160.634 488.156 156.175ZM468.409 104.76C476.144 104.76 479.511 109.947 479.511 118.137C479.511 126.236 476.144 131.332 468.5 131.332H463.222V104.76H468.409ZM502.517 111.858V153.354C502.517 159.997 501.607 160.634 496.602 161.18V163.182C502.153 162.727 502.972 162.636 505.975 162.636C508.978 162.636 509.797 162.727 515.348 163.182V161.18C510.343 160.634 509.433 159.997 509.433 153.354V111.858C509.433 105.215 510.343 104.578 515.348 104.032V102.03C509.797 102.485 508.978 102.576 505.975 102.576C502.972 102.576 502.153 102.485 496.602 102.03V104.032C501.607 104.578 502.517 105.215 502.517 111.858ZM555.545 142.343C554.817 155.72 549.175 160.725 543.078 160.725C533.25 160.725 528.7 151.079 528.7 132.606C528.7 114.497 532.977 103.668 541.986 103.668C549.084 103.668 553.179 108.764 555.272 120.412H556.91V101.302H555.636L553.634 107.126C551.359 103.941 547.355 101.302 541.986 101.302C530.611 101.302 521.329 112.222 521.329 132.606C521.329 152.99 530.156 163.91 541.713 163.91C550.358 163.91 557.183 157.54 557.911 142.343H555.545ZM615.611 148.076C613.427 157.813 612.153 160.452 604.691 160.452H598.139C594.226 160.452 593.68 159.36 593.68 156.812V132.788H604.236C607.33 132.788 608.24 134.426 608.422 140.159H610.242V122.869H608.422C608.149 128.602 607.33 130.24 604.236 130.24H593.68V104.76H602.78C609.969 104.76 611.698 107.217 613.427 116.317H615.247L613.973 102.212H580.849V104.214C585.854 104.487 586.764 105.306 586.764 111.494V153.718C586.764 159.906 585.854 160.725 580.849 160.998V163H615.884L617.431 148.076H615.611ZM655.643 171.008L654.369 169.188C652.367 166.276 649 164.456 645.451 163.91C656.735 163.455 665.926 152.717 665.926 132.606C665.926 112.131 656.371 101.302 644.814 101.302C633.257 101.302 623.702 112.131 623.702 132.606C623.702 150.169 630.8 160.634 640.082 163.273C643.54 164.456 644.905 166.549 646.725 169.825L647.908 172.009C650.274 176.286 653.823 177.196 658.009 177.196C660.193 177.196 662.741 176.923 664.561 176.377V174.375C664.015 174.466 663.56 174.466 663.014 174.466C659.738 174.466 657.19 173.374 655.643 171.008ZM631.073 132.606C631.073 114.679 635.532 103.668 644.814 103.668C654.096 103.668 658.555 114.679 658.555 132.606C658.555 150.533 654.096 161.544 644.814 161.544C635.532 161.544 631.073 150.533 631.073 132.606ZM706.918 153.809L689.992 101.302H688.9L674.067 153.718C672.338 159.724 671.428 160.634 667.151 161.18V163.182C669.517 162.909 671.246 162.636 673.339 162.636C675.432 162.636 678.344 162.909 680.801 163.182V161.18C675.796 160.634 674.886 160.179 676.706 153.718L679.345 144.436H696.817L699.638 153.718C701.64 160.27 700.548 160.634 695.543 161.18V163.182C699.911 162.818 702.277 162.636 705.098 162.636C708.01 162.636 709.83 162.818 713.743 163.182V161.18C709.648 160.634 709.011 160.361 706.918 153.809ZM680.073 141.888L687.808 115.134L695.998 141.888H680.073ZM720.756 163.91C723.486 163.91 725.306 161.908 725.306 159.269C725.306 156.63 723.486 154.628 720.756 154.628C718.026 154.628 716.206 156.63 716.206 159.269C716.206 161.908 718.026 163.91 720.756 163.91Z" fill="white"/>
</svg>
