<svg width="876" height="77" viewBox="0 0 876 77" fill="none" xmlns="http://www.w3.org/2000/svg">
<path d="M19.4169 1.212H0.852918V3.214C5.85792 3.487 6.76792 4.306 6.76792 10.494V52.718C6.76792 58.906 5.85792 59.725 0.852918 59.998V62H19.4169C32.4299 62 43.0769 50.17 43.0769 31.606C43.0769 13.042 32.4299 1.212 19.4169 1.212ZM18.1429 59.452C14.2299 59.452 13.6839 58.36 13.6839 55.812V3.76H18.6889C30.2459 3.76 35.7059 15.317 35.7059 31.606C35.7059 47.895 30.2459 59.452 18.6889 59.452H18.1429ZM54.6673 10.858V52.354C54.6673 58.997 53.7573 59.634 48.7523 60.18V62.182C54.3033 61.727 55.1223 61.636 58.1253 61.636C61.1283 61.636 61.9473 61.727 67.4983 62.182V60.18C62.4933 59.634 61.5833 58.997 61.5833 52.354V10.858C61.5833 4.215 62.4933 3.578 67.4983 3.032V1.03C61.9473 1.485 61.1283 1.576 58.1253 1.576C55.1223 1.576 54.3033 1.485 48.7523 1.03V3.032C53.7573 3.578 54.6673 4.215 54.6673 10.858ZM97.0307 29.877L89.1137 25.236C83.8357 22.142 80.6507 19.048 80.6507 13.224C80.6507 6.854 84.1997 2.668 90.2967 2.668C97.2127 2.668 101.217 9.584 102.673 18.411H104.311V0.210998H103.037L101.217 6.399C99.1237 3.214 95.1197 0.301997 89.9327 0.301997C82.5617 0.301997 75.0997 5.762 75.0997 15.59C75.0997 23.598 79.1037 28.148 85.2917 31.788L91.9347 35.701C97.7587 39.159 101.308 42.89 101.308 49.806C101.308 56.449 97.2127 60.544 90.2057 60.544C81.9247 60.544 77.9207 53.81 76.3737 42.526H74.5537V63.365H75.8277L78.1937 57.359C80.6507 60.635 85.2917 62.91 90.4787 62.91C100.125 62.91 107.223 55.175 107.223 46.257C107.223 38.34 103.401 33.608 97.0307 29.877ZM148.396 41.343C147.668 54.72 142.026 59.725 135.929 59.725C126.101 59.725 121.551 50.079 121.551 31.606C121.551 13.497 125.828 2.668 134.837 2.668C141.935 2.668 146.03 7.764 148.123 19.412H149.761V0.301997H148.487L146.485 6.126C144.21 2.941 140.206 0.301997 134.837 0.301997C123.462 0.301997 114.18 11.222 114.18 31.606C114.18 51.99 123.007 62.91 134.564 62.91C143.209 62.91 150.034 56.54 150.762 41.343H148.396ZM178.924 62.91C190.481 62.91 200.036 52.081 200.036 31.606C200.036 11.131 190.481 0.301997 178.924 0.301997C167.367 0.301997 157.812 11.131 157.812 31.606C157.812 52.081 167.367 62.91 178.924 62.91ZM178.924 60.544C169.642 60.544 165.183 49.533 165.183 31.606C165.183 13.679 169.642 2.668 178.924 2.668C188.206 2.668 192.665 13.679 192.665 31.606C192.665 49.533 188.206 60.544 178.924 60.544ZM241.925 1.576C239.741 1.576 237.011 1.30299 234.372 1.03V3.032C239.741 3.578 240.196 4.124 238.285 10.494L227.183 48.623L215.899 10.494C213.988 4.033 214.443 3.578 219.812 3.032V1.03C215.171 1.394 212.805 1.576 209.893 1.576C207.072 1.576 205.07 1.394 201.339 1.03V3.032C205.434 3.578 206.435 3.85099 208.437 10.403L224.817 62.91H225.909L240.924 10.494C242.653 4.488 243.836 3.578 248.113 3.032V1.03C245.838 1.394 243.745 1.576 241.925 1.576ZM285.332 47.076C283.148 56.813 281.874 59.452 274.412 59.452H267.86C263.947 59.452 263.401 58.36 263.401 55.812V31.788H273.957C277.051 31.788 277.961 33.426 278.143 39.159H279.963V21.869H278.143C277.87 27.602 277.051 29.24 273.957 29.24H263.401V3.76H272.501C279.69 3.76 281.419 6.217 283.148 15.317H284.968L283.694 1.212H250.57V3.214C255.575 3.487 256.485 4.306 256.485 10.494V52.718C256.485 58.906 255.575 59.725 250.57 59.998V62H285.605L287.152 47.076H285.332ZM330.369 55.175L325.455 42.253C322.725 35.155 317.629 32.698 313.898 32.061C322.179 31.151 329.095 25.236 329.095 16.773C329.095 7.309 322.543 1.212 311.987 1.212H292.604V3.214C297.609 3.487 298.519 4.306 298.519 10.494V52.354C298.519 58.997 297.609 59.634 292.604 60.18V62.182C298.155 61.727 298.974 61.636 301.977 61.636C304.98 61.636 305.799 61.727 311.35 62.182V60.18C306.345 59.634 305.435 58.997 305.435 52.354V32.88H307.346C313.716 32.88 315.991 36.702 317.902 42.162L322.543 55.448C324.636 61.545 328.458 62.819 332.462 62.819C334.191 62.819 336.193 62.637 337.649 62.273V60.271C333.281 60.271 332.098 59.634 330.369 55.175ZM310.622 3.76C318.357 3.76 321.724 8.947 321.724 17.137C321.724 25.236 318.357 30.332 310.713 30.332H305.435V3.76H310.622ZM388.192 1.212H351.61L350.427 16.136H352.247C354.067 6.308 355.523 3.76 362.803 3.76H366.443V52.354C366.443 59.088 365.442 59.634 359.891 60.18V62.182C364.077 61.818 366.716 61.636 369.901 61.636C373.086 61.636 375.725 61.818 379.911 62.182V60.18C374.36 59.634 373.359 59.088 373.359 52.354V3.76H376.999C384.279 3.76 385.735 6.308 387.555 16.136H389.375L388.192 1.212ZM440.231 3.032V1.03C434.68 1.485 433.861 1.576 430.858 1.576C427.855 1.576 427.036 1.485 421.485 1.03V3.032C426.49 3.578 427.4 4.215 427.4 10.858V29.331H406.743V10.858C406.743 4.215 407.653 3.578 412.658 3.032V1.03C407.107 1.485 406.288 1.576 403.285 1.576C400.282 1.576 399.463 1.485 393.912 1.03V3.032C398.917 3.578 399.827 4.215 399.827 10.858V52.354C399.827 58.997 398.917 59.634 393.912 60.18V62.182C399.463 61.727 400.282 61.636 403.285 61.636C406.288 61.636 407.107 61.727 412.658 62.182V60.18C407.653 59.634 406.743 58.997 406.743 52.354V31.879H427.4V52.354C427.4 58.997 426.49 59.634 421.485 60.18V62.182C427.036 61.727 427.855 61.636 430.858 61.636C433.861 61.636 434.68 61.727 440.231 62.182V60.18C435.226 59.634 434.316 58.997 434.316 52.354V10.858C434.316 4.215 435.226 3.578 440.231 3.032ZM480.84 47.076C478.656 56.813 477.382 59.452 469.92 59.452H463.368C459.455 59.452 458.909 58.36 458.909 55.812V31.788H469.465C472.559 31.788 473.469 33.426 473.651 39.159H475.471V21.869H473.651C473.378 27.602 472.559 29.24 469.465 29.24H458.909V3.76H468.009C475.198 3.76 476.927 6.217 478.656 15.317H480.476L479.202 1.212H446.078V3.214C451.083 3.487 451.993 4.306 451.993 10.494V52.718C451.993 58.906 451.083 59.725 446.078 59.998V62H481.113L482.66 47.076H480.84ZM539.581 47.076C537.397 56.813 536.123 59.452 528.661 59.452H522.109C518.196 59.452 517.65 58.36 517.65 55.812V31.788H528.206C531.3 31.788 532.21 33.426 532.392 39.159H534.212V21.869H532.392C532.119 27.602 531.3 29.24 528.206 29.24H517.65V3.76H526.75C533.939 3.76 535.668 6.217 537.397 15.317H539.217L537.943 1.212H504.819V3.214C509.824 3.487 510.734 4.306 510.734 10.494V52.718C510.734 58.906 509.824 59.725 504.819 59.998V62H539.854L541.401 47.076H539.581ZM579.613 70.008L578.339 68.188C576.337 65.276 572.97 63.456 569.421 62.91C580.705 62.455 589.896 51.717 589.896 31.606C589.896 11.131 580.341 0.301997 568.784 0.301997C557.227 0.301997 547.672 11.131 547.672 31.606C547.672 49.169 554.77 59.634 564.052 62.273C567.51 63.456 568.875 65.549 570.695 68.825L571.878 71.009C574.244 75.286 577.793 76.196 581.979 76.196C584.163 76.196 586.711 75.923 588.531 75.377V73.375C587.985 73.466 587.53 73.466 586.984 73.466C583.708 73.466 581.16 72.374 579.613 70.008ZM555.043 31.606C555.043 13.679 559.502 2.668 568.784 2.668C578.066 2.668 582.525 13.679 582.525 31.606C582.525 49.533 578.066 60.544 568.784 60.544C559.502 60.544 555.043 49.533 555.043 31.606ZM630.888 52.809L613.962 0.301997H612.87L598.037 52.718C596.308 58.724 595.398 59.634 591.121 60.18V62.182C593.487 61.909 595.216 61.636 597.309 61.636C599.402 61.636 602.314 61.909 604.771 62.182V60.18C599.766 59.634 598.856 59.179 600.676 52.718L603.315 43.436H620.787L623.608 52.718C625.61 59.27 624.518 59.634 619.513 60.18V62.182C623.881 61.818 626.247 61.636 629.068 61.636C631.98 61.636 633.8 61.818 637.713 62.182V60.18C633.618 59.634 632.981 59.361 630.888 52.809ZM604.043 40.888L611.778 14.134L619.968 40.888H604.043ZM688.029 1.212H651.447L650.264 16.136H652.084C653.904 6.308 655.36 3.76 662.64 3.76H666.28V52.354C666.28 59.088 665.279 59.634 659.728 60.18V62.182C663.914 61.818 666.553 61.636 669.738 61.636C672.923 61.636 675.562 61.818 679.748 62.182V60.18C674.197 59.634 673.196 59.088 673.196 52.354V3.76H676.836C684.116 3.76 685.572 6.308 687.392 16.136H689.212L688.029 1.212ZM714.882 62.91C726.439 62.91 735.994 52.081 735.994 31.606C735.994 11.131 726.439 0.301997 714.882 0.301997C703.325 0.301997 693.77 11.131 693.77 31.606C693.77 52.081 703.325 62.91 714.882 62.91ZM714.882 60.544C705.6 60.544 701.141 49.533 701.141 31.606C701.141 13.679 705.6 2.668 714.882 2.668C724.164 2.668 728.623 13.679 728.623 31.606C728.623 49.533 724.164 60.544 714.882 60.544ZM760.48 1.212H741.916V3.214C746.921 3.487 747.831 4.306 747.831 10.494V52.718C747.831 58.906 746.921 59.725 741.916 59.998V62H760.48C773.493 62 784.14 50.17 784.14 31.606C784.14 13.042 773.493 1.212 760.48 1.212ZM759.206 59.452C755.293 59.452 754.747 58.36 754.747 55.812V3.76H759.752C771.309 3.76 776.769 15.317 776.769 31.606C776.769 47.895 771.309 59.452 759.752 59.452H759.206ZM824.529 52.809L807.603 0.301997H806.511L791.678 52.718C789.949 58.724 789.039 59.634 784.762 60.18V62.182C787.128 61.909 788.857 61.636 790.95 61.636C793.043 61.636 795.955 61.909 798.412 62.182V60.18C793.407 59.634 792.497 59.179 794.317 52.718L796.956 43.436H814.428L817.249 52.718C819.251 59.27 818.159 59.634 813.154 60.18V62.182C817.522 61.818 819.888 61.636 822.709 61.636C825.621 61.636 827.441 61.818 831.354 62.182V60.18C827.259 59.634 826.622 59.361 824.529 52.809ZM797.684 40.888L805.419 14.134L813.609 40.888H797.684ZM863.961 1.576C861.595 1.576 858.865 1.394 856.135 1.03V3.032C861.049 3.487 861.777 4.124 859.138 10.039L850.129 30.059L840.028 9.857C837.207 4.215 837.753 3.578 843.213 3.032V1.03C839.391 1.394 836.661 1.576 834.022 1.576C831.292 1.576 830.018 1.485 825.286 1.03V3.032C829.017 3.578 829.836 4.124 832.657 9.948L844.578 34.427V52.354C844.669 59.088 843.577 59.634 838.299 60.18V62.182C843.668 61.727 844.942 61.636 848.036 61.636C851.13 61.636 852.04 61.727 857.773 62.182V60.18C852.495 59.634 851.403 59.088 851.494 52.354V33.426L861.868 10.039C864.598 3.76 865.599 3.578 869.603 3.032V1.03C867.51 1.394 865.781 1.576 863.961 1.576ZM871.071 62.91C873.801 62.91 875.621 60.908 875.621 58.269C875.621 55.63 873.801 53.628 871.071 53.628C868.341 53.628 866.521 55.63 866.521 58.269C866.521 60.908 868.341 62.91 871.071 62.91Z" fill="white"/>
</svg>
