<svg height="39.078" viewBox="0 0 245.265 39.078" width="245.265" xmlns="http://www.w3.org/2000/svg" xmlns:xlink="http://www.w3.org/1999/xlink"><clipPath id="a"><path d="m5.474-24.51 3.085-11.232 3.241 11.232h.261l2.625-12.47c.326-1.543.543-1.695 1.477-1.825v-.478a8.572 8.572 0 0 1 -1.434.13 12.09 12.09 0 0 1 -1.716-.13v.478c1.3.13 1.369.261 1.043 1.825l-1.782 8.517-3.129-10.994h-.26l-2.977 11.015-1.8-8.538c-.326-1.586-.282-1.695 1.021-1.825v-.478a20.382 20.382 0 0 1 -2.116.13h-.168a15.084 15.084 0 0 1 -1.912-.13v.478c.891.13 1.086.261 1.434 1.8l2.846 12.495zm15.751-.174v-.478c-1.195-.13-1.412-.282-1.412-1.868v-9.907c0-1.586.217-1.738 1.412-1.868v-.478c-1.242.1-1.492.127-2.109.13h-.129a21.97 21.97 0 0 1 -2.238-.13v.478c1.195.13 1.412.282 1.412 1.868v9.907c0 1.586-.217 1.738-1.412 1.868v.478c1.242-.1 1.492-.127 2.109-.13h.129a21.97 21.97 0 0 1 2.238.131zm8.126 0v-.478c-1.325-.13-1.564-.261-1.564-1.868v-11.6h.869c1.738 0 2.086.608 2.52 2.955h.435l-.282-3.563h-8.735l-.282 3.563h.435c.435-2.346.782-2.955 2.52-2.955h.869v11.6c0 1.608-.239 1.738-1.564 1.868v.478c1-.087 1.629-.13 2.39-.13s1.389.044 2.389.131zm14.4 0v-.478c-1.195-.13-1.412-.282-1.412-1.868v-9.907c0-1.586.217-1.738 1.412-1.868v-.478c-1.242.1-1.492.127-2.109.13h-.129a21.971 21.971 0 0 1 -2.238-.13v.478c1.195.13 1.412.282 1.412 1.868v4.41h-4.927v-4.41c0-1.586.217-1.738 1.412-1.868v-.478c-1.242.1-1.492.127-2.109.13h-.129a21.971 21.971 0 0 1 -2.238-.13v.478c1.195.13 1.412.282 1.412 1.868v9.907c0 1.586-.217 1.738-1.412 1.868v.478c1.242-.1 1.492-.127 2.109-.13h.129a21.97 21.97 0 0 1 2.238.13v-.478c-1.195-.13-1.412-.282-1.412-1.868v-4.888h4.932v4.888c0 1.586-.217 1.738-1.412 1.868v.478c1.242-.1 1.492-.127 2.109-.13h.129a21.97 21.97 0 0 1 2.237.131zm10.255 0v-.478c-1.369-.109-1.8-.282-1.8-1.868v-4.3h1.521c2.455 0 4.454-1.586 4.454-4.019 0-2.368-1.608-3.889-4.41-3.889h-4.628v.478c1.195.065 1.412.261 1.412 1.738v9.994c0 1.586-.217 1.738-1.412 1.868v.478c1.242-.1 1.492-.127 2.109-.13h.368c.78-.002 1.39.042 2.39.129zm-.521-7.278h-1.279v-6.67h1.238c2.064 0 2.976 1.3 2.976 3.389.001 2.021-.911 3.281-2.932 3.281zm15.317 7.43a5.554 5.554 0 0 0 1.238-.13v-.478c-1.043 0-1.325-.152-1.738-1.217l-1.173-3.085a3.59 3.59 0 0 0 -2.759-2.433 3.8 3.8 0 0 0 3.63-3.65c0-2.26-1.564-3.715-4.084-3.715h-4.627v.478c1.195.065 1.412.261 1.412 1.738v9.994c0 1.586-.217 1.738-1.412 1.868v.478c1.242-.1 1.492-.127 2.109-.13h.129a21.97 21.97 0 0 1 2.238.13v-.478c-1.195-.13-1.412-.282-1.412-1.868v-4.649h.456c1.521 0 2.064.912 2.52 2.216l1.108 3.172a2.259 2.259 0 0 0 2.368 1.76zm-5.193-7.756h-1.26v-6.344h1.238c1.847 0 2.651 1.238 2.651 3.194.003 1.938-.8 3.15-2.625 3.15zm11.953 7.778c2.759 0 5.04-2.585 5.04-7.474s-2.281-7.474-5.04-7.474-5.04 2.585-5.04 7.474 2.278 7.474 5.04 7.474zm0-.565c-2.216 0-3.281-2.629-3.281-6.909s1.065-6.909 3.281-6.909 3.281 2.629 3.281 6.909-1.065 6.909-3.281 6.909zm12.038.565a6.883 6.883 0 0 0 3.628-1.347v-3.237c0-1.608.2-1.738 1.26-1.868v-.478a16.055 16.055 0 0 1 -2.194.13 19.462 19.462 0 0 1 -2.238-.13v.478c1.26.13 1.521.261 1.521 1.868v3.5a3.941 3.941 0 0 1 -1.977.521c-2.368 0-3.454-2.585-3.454-6.909s1.043-6.909 3.237-6.909c1.716 0 2.737 1.282 3.215 3.65h.391v-4.215h-.3l-.478 1.39a3.447 3.447 0 0 0 -2.824-1.39c-2.759 0-5 2.607-5 7.474s2.256 7.472 5.213 7.472zm15.491-.022a5.554 5.554 0 0 0 1.238-.13v-.478c-1.043 0-1.325-.152-1.738-1.217l-1.173-3.085a3.59 3.59 0 0 0 -2.759-2.433 3.8 3.8 0 0 0 3.628-3.65c0-2.26-1.564-3.715-4.085-3.715h-4.629v.478c1.195.065 1.412.261 1.412 1.738v9.994c0 1.586-.217 1.738-1.412 1.868v.478c1.242-.1 1.492-.127 2.109-.13h.129a21.97 21.97 0 0 1 2.238.13v-.478c-1.195-.13-1.412-.282-1.412-1.868v-4.649h.456c1.521 0 2.064.912 2.52 2.216l1.108 3.172a2.259 2.259 0 0 0 2.368 1.76zm-5.191-7.756h-1.26v-6.344h1.238c1.847 0 2.651 1.238 2.651 3.194-.004 1.938-.808 3.15-2.629 3.15zm15.078 7.561.369-3.563h-.435c-.521 2.325-.826 2.955-2.607 2.955h-1.564c-.934 0-1.065-.261-1.065-.869v-5.736h2.52c.739 0 .956.391 1 1.76h.435v-4.128h-.435c-.065 1.369-.261 1.76-1 1.76h-2.52v-6.083h2.173c1.716 0 2.129.587 2.542 2.759h.435l-.3-3.368h-7.908v.478c1.195.065 1.412.261 1.412 1.738v10.081c0 1.477-.217 1.673-1.412 1.738v.478zm2.281.326.565-1.434a3.691 3.691 0 0 0 2.933 1.325 3.968 3.968 0 0 0 4-3.976 4.228 4.228 0 0 0 -2.433-3.911l-1.89-1.108c-1.26-.739-2.021-1.477-2.021-2.868a2.242 2.242 0 0 1 2.3-2.52c1.651 0 2.607 1.651 2.955 3.759h.391v-4.345h-.3l-.442 1.479a3.242 3.242 0 0 0 -2.694-1.456 3.51 3.51 0 0 0 -3.541 3.65 4.191 4.191 0 0 0 2.433 3.867l1.586.934c1.391.826 2.238 1.716 2.238 3.368a2.4 2.4 0 0 1 -2.651 2.564c-1.977 0-2.933-1.608-3.3-4.3h-.434v4.973zm9.538 0 .565-1.434a3.691 3.691 0 0 0 2.933 1.325 3.968 3.968 0 0 0 4-3.976 4.228 4.228 0 0 0 -2.433-3.911l-1.89-1.108c-1.26-.739-2.02-1.477-2.02-2.868a2.242 2.242 0 0 1 2.3-2.52c1.651 0 2.607 1.651 2.955 3.759h.391v-4.345h-.3l-.443 1.479a3.242 3.242 0 0 0 -2.694-1.456 3.51 3.51 0 0 0 -3.541 3.65 4.191 4.191 0 0 0 2.433 3.867l1.586.934c1.391.826 2.238 1.716 2.238 3.368a2.4 2.4 0 0 1 -2.651 2.564c-1.977 0-2.933-1.608-3.3-4.3h-.435v4.973zm13.4-.282v-.478c-1.195-.13-1.412-.282-1.412-1.868v-9.907c0-1.586.217-1.738 1.412-1.868v-.478c-1.242.1-1.492.127-2.109.13h-.129a21.971 21.971 0 0 1 -2.238-.13v.478c1.195.13 1.412.282 1.412 1.868v9.907c0 1.586-.217 1.738-1.412 1.868v.478c1.242-.1 1.492-.127 2.109-.13h.129a21.969 21.969 0 0 1 2.241.13zm6.366.174 3.585-12.514c.413-1.434.7-1.651 1.716-1.782v-.478a9.5 9.5 0 0 1 -1.477.13c-.521 0-1.173-.065-1.8-.13v.478c1.282.13 1.39.261.934 1.782l-2.651 9.1-2.694-9.1c-.456-1.543-.348-1.651.934-1.782v-.478c-1.108.087-1.673.13-2.368.13a19.041 19.041 0 0 1 -2.042-.13v.478c.978.13 1.217.2 1.695 1.76l3.905 12.535zm14.252-.217.369-3.563h-.435c-.521 2.325-.826 2.955-2.607 2.955h-1.564c-.934 0-1.065-.261-1.065-.869v-5.737h2.52c.739 0 .956.391 1 1.76h.435v-4.128h-.435c-.065 1.369-.261 1.76-1 1.76h-2.52v-6.083h2.173c1.716 0 2.129.587 2.542 2.759h.435l-.3-3.368h-7.908v.478c1.195.065 1.412.261 1.412 1.738v10.081c0 1.477-.217 1.673-1.412 1.738v.478zm10.45.043v-.478c-1.434-.13-1.716-.261-1.716-1.868v-4.736h2.607c.739 0 .956.391 1 1.76h.435v-4.128h-.435c-.065 1.369-.261 1.76-1 1.76h-2.606v-6.257h2.281c1.716 0 2.151.7 2.564 3.042h.434l-.326-3.65h-8.017v.478c1.195.065 1.412.261 1.412 1.738v9.994c0 1.586-.217 1.738-1.412 1.868v.478c1.242-.1 1.492-.127 2.109-.13h.216a24.3 24.3 0 0 1 2.455.129zm13.122-.043.369-3.563h-.434c-.521 2.325-.826 2.955-2.607 2.955h-1.564c-.934 0-1.065-.261-1.065-.869v-5.737h2.52c.739 0 .956.391 1 1.76h.434v-4.128h-.434c-.065 1.369-.261 1.76-1 1.76h-2.52v-6.083h2.173c1.716 0 2.129.587 2.542 2.759h.435l-.3-3.368h-7.908v.478c1.2.065 1.412.261 1.412 1.738v10.081c0 1.477-.217 1.673-1.412 1.738v.478zm12.015.043v-.478c-.978-.13-1.13-.2-1.629-1.76l-4.041-12.536h-.261l-3.541 12.514c-.413 1.434-.63 1.651-1.651 1.782v.478a12.381 12.381 0 0 1 1.477-.13c.5 0 1.195.065 1.781.13v-.478c-1.195-.13-1.412-.239-.978-1.782l.63-2.216h4.171l.673 2.216c.478 1.564.217 1.651-.978 1.782v.478c1.043-.087 1.608-.13 2.281-.13a19.751 19.751 0 0 1 2.064.13zm-4.237-5.084h-3.8l1.847-6.387zm11.428 5.084v-.478c-1.325-.13-1.564-.261-1.564-1.868v-11.6h.869c1.738 0 2.086.608 2.52 2.955h.434l-.282-3.563h-8.734l-.282 3.563h.434c.434-2.346.782-2.955 2.52-2.955h.869v11.6c0 1.608-.239 1.738-1.564 1.868v.478c1-.087 1.63-.13 2.39-.13s1.397.043 2.391.13zm8.8.174c2.5 0 3.976-1.434 3.976-4.237v-8.191c0-1.586.217-1.738 1.412-1.868v-.478a16.891 16.891 0 0 1 -1.716.13 16.893 16.893 0 0 1 -1.716-.13v.478c1.195.13 1.412.282 1.412 1.868v8.126c0 2.412-1.086 3.454-3.085 3.454-1.738 0-2.846-1.043-2.846-3.454v-8.126c0-1.586.217-1.738 1.412-1.868v-.478c-1.243.1-1.492.127-2.109.13h-.133a21.971 21.971 0 0 1 -2.238-.13v.478c1.195.13 1.412.282 1.412 1.868v8.343c.005 2.542 1.612 4.084 4.219 4.084zm16.142-.022a5.555 5.555 0 0 0 1.238-.13v-.478c-1.043 0-1.325-.152-1.738-1.217l-1.173-3.085a3.59 3.59 0 0 0 -2.759-2.433 3.8 3.8 0 0 0 3.628-3.65c0-2.26-1.564-3.715-4.084-3.715h-4.627v.478c1.195.065 1.412.261 1.412 1.738v9.994c0 1.586-.217 1.738-1.412 1.868v.478c1.242-.1 1.492-.127 2.109-.13h.129a21.969 21.969 0 0 1 2.238.13v-.478c-1.195-.13-1.412-.282-1.412-1.868v-4.649h.456c1.521 0 2.064.912 2.52 2.216l1.108 3.172a2.26 2.26 0 0 0 2.368 1.759zm-5.193-7.756h-1.26v-6.344h1.238c1.847 0 2.651 1.238 2.651 3.194.001 1.937-.803 3.149-2.628 3.149zm15.078 7.561.369-3.563h-.435c-.521 2.325-.826 2.955-2.607 2.955h-1.564c-.934 0-1.064-.261-1.064-.869v-5.737h2.52c.739 0 .956.391 1 1.76h.435v-4.128h-.435c-.065 1.369-.261 1.76-1 1.76h-2.52v-6.083h2.173c1.716 0 2.129.587 2.542 2.759h.435l-.3-3.368h-7.908v.478c1.195.065 1.412.261 1.412 1.738v10.081c0 1.477-.217 1.673-1.412 1.738v.478zm2.281.326.565-1.434a3.691 3.691 0 0 0 2.934 1.324 3.968 3.968 0 0 0 4-3.976 4.228 4.228 0 0 0 -2.433-3.911l-1.89-1.108c-1.26-.739-2.021-1.477-2.021-2.868a2.242 2.242 0 0 1 2.3-2.52c1.651 0 2.607 1.651 2.955 3.759h.391v-4.345h-.3l-.438 1.479a3.242 3.242 0 0 0 -2.694-1.456 3.51 3.51 0 0 0 -3.541 3.65 4.191 4.191 0 0 0 2.433 3.867l1.586.934c1.391.826 2.238 1.716 2.238 3.368a2.4 2.4 0 0 1 -2.651 2.564c-1.977 0-2.933-1.608-3.3-4.3h-.435v4.973zm-203.115 23.717v-.478c-.978-.13-1.13-.2-1.629-1.76l-4.041-12.536h-.261l-3.542 12.514c-.413 1.434-.63 1.651-1.651 1.782v.478a12.381 12.381 0 0 1 1.477-.13c.5 0 1.195.065 1.782.13v-.478c-1.195-.13-1.412-.239-.978-1.782l.63-2.216h4.171l.674 2.216c.478 1.564.217 1.651-.978 1.782v.478c1.043-.087 1.608-.13 2.281-.13a19.751 19.751 0 0 1 2.065.13zm-4.237-5.084h-3.8l1.847-6.387zm13.905 5.257v-12.427c0-1.586.217-1.738 1.412-1.868v-.478a16.892 16.892 0 0 1 -1.716.13h-.065a13.859 13.859 0 0 1 -1.825-.13v.478c1.347.13 1.586.282 1.586 1.89v8.365l-5.779-10.668a10.229 10.229 0 0 1 -1.151.065 13.978 13.978 0 0 1 -1.673-.109v.478c.826.109 1.195.3 1.412.587v11.167c0 1.586-.217 1.738-1.412 1.868v.478a16.892 16.892 0 0 1 1.716-.13h.065a17.176 17.176 0 0 1 1.825.13v-.478c-1.347-.13-1.586-.261-1.586-1.868v-10.3l6.93 12.82zm7.126-.217c3.107 0 5.649-2.824 5.649-7.256s-2.542-7.257-5.649-7.257h-4.432v.478c1.195.065 1.412.261 1.412 1.738v10.081c0 1.477-.217 1.673-1.412 1.738v.478zm-.174-.608h-.13c-.934 0-1.065-.261-1.065-.869v-12.428h1.195c2.759 0 4.063 2.759 4.063 6.648s-1.303 6.649-4.063 6.649zm15.86.652v-.478c-1.195-.13-1.412-.282-1.412-1.868v-9.907c0-1.586.217-1.738 1.412-1.868v-.478c-1.242.1-1.492.127-2.109.13h-.129a21.97 21.97 0 0 1 -2.238-.13v.478c1.195.13 1.412.282 1.412 1.868v9.906c0 1.586-.217 1.738-1.412 1.868v.478c1.242-.1 1.492-.127 2.109-.13h.129a21.97 21.97 0 0 1 2.238.131zm14.817 0v-.478c-1.195-.13-1.434-.282-1.477-1.868l-.3-9.907c-.043-1.586.152-1.738 1.347-1.847v-.478c-.936.061-1.308.09-1.622.1h-.154-.244a8.453 8.453 0 0 1 -1.108-.065l-3.242 10.74-3.172-10.732a8.157 8.157 0 0 1 -1.173.065c-.5 0-.7-.022-2.021-.13v.478c1.195.13 1.39.282 1.347 1.868l-.3 9.907c-.043 1.586-.282 1.738-1.477 1.868v.478a16.893 16.893 0 0 1 1.713-.13h.022a16.206 16.206 0 0 1 1.847.13v-.478c-1.325-.13-1.543-.261-1.5-1.868l.326-10.428 3.715 12.449h.261l3.78-12.471.3 10.45c.043 1.608-.174 1.738-1.5 1.868v.478c1.049-.086 1.591-.13 2.349-.13h.043a21.971 21.971 0 0 1 2.241.131zm6.083 0v-.478c-1.369-.109-1.8-.282-1.8-1.868v-4.3h1.521c2.455 0 4.454-1.586 4.454-4.019 0-2.368-1.608-3.889-4.41-3.889h-4.631v.478c1.195.065 1.412.261 1.412 1.738v9.991c0 1.586-.217 1.738-1.412 1.868v.478c1.242-.1 1.492-.127 2.109-.13h.368c.782 0 1.39.044 2.39.131zm-.521-7.278h-1.281v-6.67h1.236c2.064 0 2.976 1.3 2.976 3.389.002 2.02-.91 3.28-2.931 3.28zm15.317 7.43a5.554 5.554 0 0 0 1.238-.131v-.478c-1.043 0-1.325-.152-1.738-1.217l-1.173-3.085a3.59 3.59 0 0 0 -2.759-2.433 3.8 3.8 0 0 0 3.628-3.65c0-2.26-1.564-3.715-4.085-3.715h-4.627v.478c1.195.065 1.412.261 1.412 1.738v9.994c0 1.586-.217 1.738-1.412 1.868v.478c1.242-.1 1.492-.127 2.109-.13h.129a21.97 21.97 0 0 1 2.238.13v-.478c-1.195-.13-1.412-.282-1.412-1.868v-4.649h.456c1.521 0 2.064.912 2.52 2.216l1.108 3.172a2.259 2.259 0 0 0 2.368 1.76zm-5.192-7.757h-1.26v-6.344h1.238c1.847 0 2.651 1.238 2.651 3.194.001 1.938-.804 3.15-2.629 3.15zm15.078 7.561.369-3.563h-.435c-.521 2.325-.826 2.955-2.607 2.955h-1.564c-.934 0-1.065-.261-1.065-.869v-5.736h2.52c.739 0 .956.391 1 1.76h.435v-4.128h-.435c-.065 1.369-.261 1.76-1 1.76h-2.52v-6.083h2.173c1.716 0 2.129.587 2.542 2.759h.435l-.3-3.368h-7.908v.478c1.195.065 1.412.261 1.412 1.738v10.081c0 1.477-.217 1.673-1.412 1.738v.478zm2.281.326.565-1.434a3.691 3.691 0 0 0 2.933 1.325 3.968 3.968 0 0 0 4-3.976 4.228 4.228 0 0 0 -2.436-3.914l-1.891-1.1c-1.26-.739-2.021-1.477-2.021-2.868a2.242 2.242 0 0 1 2.3-2.52c1.651 0 2.607 1.651 2.955 3.759h.391v-4.345h-.3l-.435 1.474a3.242 3.242 0 0 0 -2.694-1.456 3.51 3.51 0 0 0 -3.541 3.65 4.191 4.191 0 0 0 2.433 3.867l1.586.934c1.391.826 2.238 1.716 2.238 3.368a2.4 2.4 0 0 1 -2.651 2.564c-1.977 0-2.933-1.608-3.3-4.3h-.434v4.973zm9.538 0 .565-1.434a3.691 3.691 0 0 0 2.932 1.325 3.968 3.968 0 0 0 4-3.976 4.228 4.228 0 0 0 -2.435-3.914l-1.89-1.1c-1.26-.739-2.021-1.477-2.021-2.868a2.242 2.242 0 0 1 2.3-2.52c1.651 0 2.607 1.651 2.955 3.759h.391v-4.345h-.3l-.436 1.474a3.242 3.242 0 0 0 -2.694-1.456 3.51 3.51 0 0 0 -3.541 3.65 4.191 4.191 0 0 0 2.433 3.867l1.586.934c1.391.826 2.238 1.716 2.238 3.368a2.4 2.4 0 0 1 -2.65 2.562c-1.977 0-2.933-1.608-3.3-4.3h-.435v4.975zm13.405-.282v-.478c-1.2-.13-1.412-.282-1.412-1.868v-9.907c0-1.586.217-1.738 1.412-1.868v-.478c-1.243.1-1.492.127-2.109.13h-.129a21.97 21.97 0 0 1 -2.238-.13v.478c1.195.13 1.412.282 1.412 1.868v9.906c0 1.586-.217 1.738-1.412 1.868v.478c1.242-.1 1.492-.127 2.109-.13h.129a21.972 21.972 0 0 1 2.238.131zm6.366.174 3.585-12.514c.413-1.434.7-1.651 1.716-1.782v-.478a9.5 9.5 0 0 1 -1.477.13c-.521 0-1.173-.065-1.8-.13v.478c1.282.13 1.39.261.934 1.782l-2.651 9.1-2.694-9.1c-.456-1.543-.348-1.651.934-1.782v-.478c-1.108.087-1.673.13-2.368.13a19.041 19.041 0 0 1 -2.042-.13v.478c.978.13 1.217.2 1.695 1.76l3.907 12.535zm14.252-.217.369-3.563h-.434c-.521 2.325-.826 2.955-2.607 2.955h-1.564c-.934 0-1.065-.261-1.065-.869v-5.737h2.52c.739 0 .956.391 1 1.76h.434v-4.128h-.434c-.065 1.369-.261 1.76-1 1.76h-2.52v-6.083h2.173c1.716 0 2.129.587 2.542 2.759h.434l-.3-3.368h-7.908v.478c1.195.065 1.412.261 1.412 1.738v10.081c0 1.477-.217 1.673-1.412 1.738v.478zm15.187.2a5.554 5.554 0 0 0 1.238-.13v-.484c-1.043 0-1.325-.152-1.738-1.217l-1.177-3.084a3.59 3.59 0 0 0 -2.759-2.433 3.8 3.8 0 0 0 3.628-3.65c0-2.26-1.564-3.715-4.084-3.715h-4.625v.478c1.195.065 1.412.261 1.412 1.738v9.993c0 1.586-.217 1.738-1.412 1.868v.478c1.243-.1 1.492-.127 2.109-.13h.129a21.97 21.97 0 0 1 2.238.13v-.478c-1.195-.13-1.412-.282-1.412-1.868v-4.649h.456c1.521 0 2.064.912 2.52 2.216l1.108 3.172a2.259 2.259 0 0 0 2.368 1.76zm-5.193-7.756h-1.26v-6.344h1.238c1.847 0 2.65 1.238 2.65 3.194 0 1.932-.804 3.144-2.629 3.144zm17.055 7.6v-.478c-.978-.13-1.13-.2-1.629-1.76l-4.041-12.536h-.261l-3.542 12.513c-.413 1.434-.63 1.651-1.651 1.782v.478a12.382 12.382 0 0 1 1.477-.13c.5 0 1.195.065 1.781.13v-.478c-1.195-.13-1.412-.239-.978-1.782l.63-2.216h4.175l.674 2.216c.478 1.564.217 1.651-.978 1.782v.478c1.043-.087 1.608-.13 2.281-.13a19.75 19.75 0 0 1 2.061.13zm-4.239-5.085h-3.8l1.847-6.387zm13.9 5.258v-12.428c0-1.586.217-1.738 1.412-1.868v-.478a16.893 16.893 0 0 1 -1.716.13h-.065a13.857 13.857 0 0 1 -1.825-.13v.478c1.347.13 1.586.282 1.586 1.89v8.365l-5.779-10.667a10.227 10.227 0 0 1 -1.151.065 13.977 13.977 0 0 1 -1.673-.109v.478c.826.109 1.195.3 1.412.587v11.166c0 1.586-.217 1.738-1.412 1.868v.478a16.892 16.892 0 0 1 1.716-.13h.065a17.176 17.176 0 0 1 1.825.13v-.478c-1.347-.13-1.586-.261-1.586-1.868v-10.3l6.937 12.82zm8.1 0a6.883 6.883 0 0 0 3.628-1.347v-3.238c0-1.608.2-1.738 1.26-1.868v-.478a16.054 16.054 0 0 1 -2.188.13 19.463 19.463 0 0 1 -2.238-.13v.478c1.26.13 1.521.261 1.521 1.868v3.5a3.94 3.94 0 0 1 -1.977.521c-2.368 0-3.454-2.585-3.454-6.909s1.043-6.909 3.237-6.909c1.716 0 2.738 1.282 3.215 3.65h.391v-4.215h-.3l-.478 1.39a3.447 3.447 0 0 0 -2.824-1.39c-2.759 0-5 2.607-5 7.474s2.262 7.472 5.217 7.472zm14.339-.217.369-3.563h-.435c-.521 2.325-.826 2.955-2.607 2.955h-1.564c-.934 0-1.065-.261-1.065-.869v-5.737h2.52c.739 0 .956.391 1 1.76h.435v-4.128h-.435c-.065 1.369-.261 1.76-1 1.76h-2.52v-6.083h2.173c1.716 0 2.129.587 2.542 2.759h.435l-.3-3.368h-7.908v.478c1.195.065 1.412.261 1.412 1.738v10.081c0 1.477-.217 1.673-1.412 1.738v.478zm2.89.217a1.055 1.055 0 0 0 1.086-1.108 1.055 1.055 0 0 0 -1.086-1.108 1.055 1.055 0 0 0 -1.086 1.108 1.055 1.055 0 0 0 1.096 1.107z"/></clipPath><clipPath id="b"><path d="m-26 162h300v-250h-300z"/></clipPath><g clip-path="url(#a)" transform="translate(-.933 39.479)"><g clip-path="url(#b)"><path d="m-.067-40.479h247.267v41.079h-247.267z" fill="#fff"/></g></g></svg>