<svg height="11.019" viewBox="0 0 39.224 11.019" width="39.224" xmlns="http://www.w3.org/2000/svg" xmlns:xlink="http://www.w3.org/1999/xlink"><clipPath id="a"><path clip-rule="evenodd" d="m3.979-5.173h8.588v-1.607h-8.588zm-1.595-.8a3.42 3.42 0 0 1 1.186-2.52c.657-.615 1.93-1.042 3.96-1.042h5.77v-1.607h-5.988a7.484 7.484 0 0 0 -4.955 1.522 4.637 4.637 0 0 0 -1.69 3.643 4.637 4.637 0 0 0 1.69 3.643 7.488 7.488 0 0 0 4.955 1.522h6.115v-1.606h-5.897c-2.027 0-3.3-.428-3.96-1.042a3.42 3.42 0 0 1 -1.186-2.517zm20.827 5.073a6.193 6.193 0 0 1 -6.464-1.178 5.263 5.263 0 0 1 0-7.792 6.179 6.179 0 0 1 8.329 0 5.254 5.254 0 0 1 1.259 6.047l-1.36-1.277a3.733 3.733 0 0 0 -1.114-3.64 4.377 4.377 0 0 0 -5.9 0 3.727 3.727 0 0 0 0 5.519 4.362 4.362 0 0 0 3.89 1.043zm1.952.04 1.214-1.14-4.859-4.545-1.218 1.136z"/></clipPath><clipPath id="b"><path d="m-129 219h300v-250h-300z"/></clipPath><clipPath id="c"><path clip-rule="evenodd" d="m34.369-9.88a3.882 3.882 0 0 1 2.689 1.11c.658.615 1.114 1.808 1.114 3.7v4.258h1.718v-4.458a6.441 6.441 0 0 0 -1.627-4.636 5.269 5.269 0 0 0 -3.894-1.581 5.269 5.269 0 0 0 -3.894 1.581 6.441 6.441 0 0 0 -1.627 4.636v4.458h1.718v-4.254c0-1.9.457-3.09 1.114-3.7a3.885 3.885 0 0 1 2.69-1.109"/></clipPath><clipPath id="d"><path d="m32.14-5.227h6.248v-1.622h-6.248z"/></clipPath><g transform="translate(-.667 11.487)"><g clip-path="url(#a)"><g clip-path="url(#b)"><path d="m-.333-13h28.575v13.946h-28.575z" fill="#fff"/></g></g><g clip-path="url(#c)"><g clip-path="url(#b)"><path d="m27.848-12.487h13.042v12.675h-13.042z" fill="#fff"/></g></g><g clip-path="url(#d)"><path d="m31.14-7.849h8.248v3.622h-8.248z" fill="#fff"/></g></g></svg>