<svg width="236" height="425" viewBox="0 0 236 425" fill="none" xmlns="http://www.w3.org/2000/svg">
<path d="M120.855 205.091L125 202L125 215.694C125 219.62 123.036 222 119.164 222C114.636 222 113 219.156 113 215.23L116.873 214.859C116.873 216.374 117.231 218.379 119.273 218.198C120.664 218.074 120.845 216.652 120.855 215.849L120.855 205.091Z" fill="white"/>
<path fill-rule="evenodd" clip-rule="evenodd" d="M1.557 119.215C1.557 156.496 18.5941 189.74 45.2085 211.405C65.2838 195.289 90.6713 185.666 118.278 185.666C145.886 185.666 171.273 195.29 191.348 211.405C217.963 189.74 235 156.496 235 119.215C235 53.9146 182.73 0.999998 118.279 0.999995C53.8268 0.999992 1.557 53.9146 1.557 119.215ZM0.557002 119.215C0.557 156.728 17.6667 190.194 44.4144 212.048C17.6666 233.901 0.556919 267.367 0.556917 304.881C0.556914 370.721 53.2626 424.096 118.278 424.096C183.294 424.096 236 370.721 236 304.881C236 267.367 218.89 233.901 192.142 212.048C218.89 190.195 236 156.728 236 119.215C236 53.3743 183.294 -2.30384e-06 118.279 -5.14577e-06C53.2627 -7.9877e-06 0.557005 53.3743 0.557002 119.215ZM235 304.881C235 267.6 217.963 234.356 191.348 212.691C171.393 228.71 146.189 238.314 118.773 238.429C118.691 238.429 118.609 238.43 118.527 238.43C118.494 238.43 118.461 238.43 118.427 238.429C118.378 238.43 118.328 238.43 118.278 238.43C90.6714 238.43 65.2838 228.806 45.2085 212.691C18.5941 234.356 1.55692 267.6 1.55692 304.881C1.55691 370.181 53.8267 423.096 118.278 423.096C182.73 423.096 235 370.181 235 304.881ZM118.766 237.429C118.654 237.429 118.541 237.429 118.429 237.429C104.456 237.376 93.1455 226.033 93.1455 212.048C93.1455 198.03 104.509 186.667 118.527 186.667C132.545 186.667 143.909 198.03 143.909 212.048C143.909 225.986 132.674 237.3 118.766 237.429ZM126.75 237.123C150.752 235.379 172.748 226.284 190.551 212.048C172.747 197.811 150.751 188.716 126.747 186.972C137.292 190.427 144.909 200.348 144.909 212.048C144.909 223.747 137.294 233.667 126.75 237.123ZM110.443 186.928C99.8276 190.342 92.1455 200.298 92.1455 212.048C92.1455 223.797 99.8263 233.753 110.441 237.167C86.1919 235.539 63.9655 226.409 46.0056 212.048C63.9662 197.686 86.1936 188.556 110.443 186.928Z" fill="url(#paint0_linear)"/>
<defs>
<linearGradient id="paint0_linear" x1="118.03" y1="-5.9874e-06" x2="118.03" y2="424.096" gradientUnits="userSpaceOnUse">
<stop stop-color="#FF4B54"/>
<stop offset="1" stop-color="#7200FF"/>
</linearGradient>
</defs>
</svg>
