<svg width="852" height="473" viewBox="0 0 852 473" fill="none" xmlns="http://www.w3.org/2000/svg">
<path d="M427.018 222.028L436 216L436 242.703C436 250.359 431.745 255 423.355 255C413.545 255 410 249.454 410 241.799L418.391 241.076C418.391 244.029 419.166 247.94 423.591 247.586C426.604 247.345 426.998 244.572 427.018 243.005L427.018 222.028Z" fill="white"/>
<path fill-rule="evenodd" clip-rule="evenodd" d="M239.5 472C314.631 472 381.641 437.7 425.356 384.098C392.591 343.643 373 292.331 373 236.5C373 236.387 373 236.274 373 236.161C373 236.108 373 236.054 373 236C373 235.848 373.001 235.697 373.002 235.545C373.224 180.085 392.778 129.127 425.356 88.9017C381.641 35.2999 314.631 1 239.5 1C107.768 1 1 106.449 1 236.5C1 366.551 107.768 472 239.5 472ZM374 236.161C374.001 235.957 374.001 235.754 374.002 235.552C374.243 207.039 397.431 184 426 184C454.569 184 477.757 207.039 477.998 235.552C477.999 235.754 477.999 235.957 478 236.161C477.913 264.806 454.665 288 426 288C397.335 288 374.087 264.806 374 236.161ZM374.257 247.526C376.648 298.761 395.621 345.725 426 383.305C456.379 345.725 475.352 298.761 477.743 247.526C472.481 271.255 451.313 289 426 289C400.687 289 379.519 271.255 374.257 247.526ZM479 236.161C479 236.274 479 236.387 479 236.5C479 292.331 459.409 343.643 426.644 384.098C470.359 437.7 537.369 472 612.5 472C744.232 472 851 366.551 851 236.5C851 106.449 744.232 1 612.5 1C537.369 1 470.359 35.2999 426.644 88.9017C459.222 129.127 478.776 180.085 478.998 235.545C478.999 235.697 479 235.848 479 236C479 236.054 479 236.108 479 236.161ZM477.68 224.192C475.034 173.456 456.126 126.961 426 89.6954C395.874 126.961 376.966 173.456 374.32 224.192C379.687 200.605 400.788 183 426 183C451.212 183 472.313 200.605 477.68 224.192ZM239.5 473C314.864 473 382.097 438.627 426 384.891C469.903 438.627 537.136 473 612.5 473C744.772 473 852 367.115 852 236.5C852 105.885 744.772 0 612.5 0C537.136 0 469.903 34.3733 426 88.1094C382.097 34.3733 314.864 0 239.5 0C107.228 0 0 105.885 0 236.5C0 367.115 107.228 473 239.5 473Z" fill="url(#paint0_linear)"/>
<defs>
<linearGradient id="paint0_linear" x1="-1.66896e-06" y1="237" x2="852" y2="237" gradientUnits="userSpaceOnUse">
<stop stop-color="#FF4B54"/>
<stop offset="1" stop-color="#7200FF"/>
</linearGradient>
</defs>
</svg>
