<svg width="25" height="25" viewBox="0 0 25 25" fill="none" xmlns="http://www.w3.org/2000/svg">
<path fill-rule="evenodd" clip-rule="evenodd" d="M12.2124 0C5.46767 0 0 5.46767 0 12.2124C0 18.9571 5.46767 24.4248 12.2124 24.4248C18.9571 24.4248 24.4248 18.9571 24.4248 12.2124C24.4248 5.46767 18.9571 0 12.2124 0ZM9.52733 5.73845C10.2221 5.70683 10.4441 5.6991 12.213 5.6991H12.211C13.9804 5.6991 14.2016 5.70683 14.8964 5.73845C15.5898 5.7702 16.0633 5.87998 16.4786 6.04105C16.9074 6.20727 17.2697 6.42981 17.632 6.79212C17.9943 7.15415 18.2168 7.51754 18.3837 7.94593C18.5438 8.36007 18.6537 8.83337 18.6863 9.52677C18.7175 10.2215 18.7257 10.4435 18.7257 12.2124C18.7257 13.9813 18.7175 14.2028 18.6863 14.8976C18.6537 15.5907 18.5438 16.0641 18.3837 16.4784C18.2168 16.9067 17.9943 17.27 17.632 17.6321C17.2701 17.9944 16.9072 18.2175 16.479 18.3838C16.0646 18.5449 15.5907 18.6547 14.8973 18.6864C14.2026 18.718 13.9812 18.7258 12.2122 18.7258C10.4434 18.7258 10.2215 18.718 9.52679 18.6864C8.83353 18.6547 8.36009 18.5449 7.94568 18.3838C7.51756 18.2175 7.15417 17.9944 6.79227 17.6321C6.43011 17.27 6.20757 16.9067 6.04107 16.4783C5.88014 16.0641 5.77036 15.5908 5.73847 14.8974C5.70699 14.2027 5.69912 13.9813 5.69912 12.2124C5.69912 10.4435 5.70726 10.2214 5.73834 9.52663C5.76955 8.8335 5.87946 8.36007 6.04093 7.94579C6.20784 7.51754 6.43038 7.15415 6.79268 6.79212C7.15472 6.42995 7.51811 6.20741 7.94649 6.04105C8.36063 5.87998 8.83393 5.7702 9.52733 5.73845Z" fill="#EFEFEF"/>
<path fill-rule="evenodd" clip-rule="evenodd" d="M11.6288 6.87297C11.7423 6.87279 11.8643 6.87284 11.996 6.8729L12.2131 6.87297C13.9522 6.87297 14.1583 6.87921 14.845 6.91042C15.4801 6.93946 15.8248 7.04557 16.0544 7.13472C16.3583 7.25278 16.575 7.3939 16.8028 7.62186C17.0308 7.84983 17.1719 8.06694 17.2903 8.3709C17.3794 8.60022 17.4857 8.94489 17.5146 9.57994C17.5458 10.2666 17.5526 10.4728 17.5526 12.2111C17.5526 13.9493 17.5458 14.1556 17.5146 14.8422C17.4855 15.4772 17.3794 15.8219 17.2903 16.0512C17.1722 16.3552 17.0308 16.5716 16.8028 16.7994C16.5749 17.0274 16.3584 17.1685 16.0544 17.2866C15.825 17.3761 15.4801 17.482 14.845 17.511C14.1584 17.5422 13.9522 17.549 12.2131 17.549C10.4739 17.549 10.2678 17.5422 9.58118 17.511C8.94613 17.4817 8.60147 17.3756 8.37174 17.2864C8.06778 17.1684 7.85067 17.0273 7.6227 16.7993C7.39474 16.5713 7.25362 16.3548 7.13529 16.0507C7.04614 15.8213 6.93989 15.4767 6.91099 14.8416C6.87978 14.155 6.87354 13.9488 6.87354 12.2094C6.87354 10.4701 6.87978 10.2649 6.91099 9.57831C6.94003 8.94326 7.04614 8.59859 7.13529 8.369C7.25334 8.06504 7.39474 7.84793 7.6227 7.61996C7.85067 7.392 8.06778 7.25088 8.37174 7.13255C8.60133 7.04299 8.94613 6.93715 9.58118 6.90798C10.182 6.88084 10.4149 6.87269 11.6288 6.87134V6.87297ZM15.6899 7.95449C15.2583 7.95449 14.9083 8.30418 14.9083 8.73582C14.9083 9.16733 15.2583 9.51742 15.6899 9.51742C16.1214 9.51742 16.4715 9.16733 16.4715 8.73582C16.4715 8.30431 16.1214 7.95422 15.6899 7.95422V7.95449ZM8.86825 12.2125C8.86825 10.3654 10.3658 8.86775 12.213 8.86767C14.0602 8.86767 15.5574 10.3653 15.5574 12.2125C15.5574 14.0598 14.0603 15.5567 12.2131 15.5567C10.3659 15.5567 8.86825 14.0598 8.86825 12.2125Z" fill="#EFEFEF"/>
<path fill-rule="evenodd" clip-rule="evenodd" d="M12.2131 10.0414C13.4121 10.0414 14.3842 11.0134 14.3842 12.2125C14.3842 13.4115 13.4121 14.3836 12.2131 14.3836C11.014 14.3836 10.042 13.4115 10.042 12.2125C10.042 11.0134 11.014 10.0414 12.2131 10.0414V10.0414Z" fill="#EFEFEF"/>
</svg>
