<svg width="131" height="74" viewBox="0 0 131 74" fill="none" xmlns="http://www.w3.org/2000/svg">
<path d="M40.7794 37.381L37.1803 36.4772C37.4451 32.7306 40.8054 32.1454 43.6376 32.1454C47.1834 32.1454 49.8034 33.82 49.8034 37.9127V46.6556H45.6223V44.6891H45.5166C44.8548 45.7251 43.6642 46.842 41.3355 46.842C38.9536 46.842 36.7839 45.4333 36.7839 42.3773C36.7839 38.8164 39.9593 37.8332 43.2411 37.8332H45.0403V37.2748C45.0403 36.1586 44.3792 35.5741 43.2145 35.5741C42.3944 35.5741 41.1506 35.7872 41.0182 37.381H40.7794ZM45.0397 40.6767H43.7433C42.6851 40.6767 41.6262 40.9426 41.6262 42.032C41.6262 42.909 42.2088 43.3613 43.0023 43.3613C43.9023 43.3613 45.0397 42.6171 45.0397 41.1289V40.6767Z" fill="white"/>
<path d="M57.7692 42.0587H57.9016L60.6799 32.4655H65.576L60.3893 46.7365H55.0169L49.8301 32.4655H54.9111L57.7692 42.0587Z" fill="white"/>
<path d="M65.02 39.5605C65.02 35.2548 67.6926 32.1454 72.1384 32.1454C76.9812 32.1454 79.0186 34.9622 79.0186 38.6561V40.676H69.9148C70.0205 42.8288 70.9996 43.5195 72.3758 43.5195C73.593 43.5195 74.4397 42.8549 74.5455 41.5263L79.0179 42.0313C78.6474 45.3003 76.372 46.9742 72.1377 46.9742C67.8515 46.9749 65.02 44.4767 65.02 39.5605ZM69.9953 37.7002H74.2296V37.5406C74.2296 36.4511 73.621 35.6269 72.1916 35.6269C70.7622 35.6269 70.0744 36.5841 69.9953 37.7002Z" fill="white"/>
<path d="M80.1042 46.6563V28.3187H84.8673V46.6556H80.1042V46.6563Z" fill="white"/>
<path d="M91.3777 31.6144H86.6125V28.3187H91.3777V31.6144ZM86.6139 46.6563V32.4648H91.377V46.6563H86.6139Z" fill="white"/>
<path d="M102.016 37.6468C102.016 36.5307 101.645 35.7598 100.375 35.7598C98.946 35.7598 97.8871 36.9555 97.8871 38.8692V46.6556H93.124V32.4648H97.4109V34.3251H97.5166C98.4957 32.8636 100.11 32.1462 101.724 32.1462C104.529 32.1462 106.779 33.8208 106.779 37.2755V46.6563H102.016V37.6468Z" fill="white"/>
<path d="M30.6964 29.0169V40.0388C30.6964 42.8289 29.2411 42.9885 28.5001 42.9885C27.5736 42.9885 25.9333 42.5898 25.9599 39.4537L21.3818 39.8257C21.3285 45.0345 24.5046 46.9743 28.5267 46.9743C32.2848 46.9743 35.5925 45.2202 35.5925 40.3567V25.702L30.6964 29.0169Z" fill="white"/>
</svg>
