<svg width="37" height="37" viewBox="0 0 37 37" fill="none" xmlns="http://www.w3.org/2000/svg">
<path fill-rule="evenodd" clip-rule="evenodd" d="M18.5 0C8.28273 0 0 8.28273 0 18.5C0 28.7173 8.28273 37 18.5 37C28.7173 37 37 28.7173 37 18.5C37 8.28273 28.7173 0 18.5 0ZM8.88126 15.3225H13.0738V27.9192H8.88126V15.3225ZM13.3499 11.4258C13.3227 10.1907 12.4394 9.25 11.0052 9.25C9.57098 9.25 8.63333 10.1907 8.63333 11.4258C8.63333 12.6353 9.54327 13.6032 10.9508 13.6032H10.9776C12.4394 13.6032 13.3499 12.6353 13.3499 11.4258ZM23.3664 15.0267C26.1252 15.0267 28.1935 16.8275 28.1935 20.6966L28.1934 27.9192H24.001V21.18C24.001 19.4872 23.3943 18.3321 21.8766 18.3321C20.7184 18.3321 20.0285 19.1108 19.7255 19.8629C19.6146 20.1325 19.5874 20.508 19.5874 20.8845V27.9196H15.3944C15.3944 27.9196 15.4496 16.5048 15.3944 15.3228H19.5874V17.107C20.1438 16.2493 21.1404 15.0267 23.3664 15.0267Z" fill="white"/>
</svg>
