<?xml version="1.0" encoding="UTF-8"?>
<svg width="64px" height="617px" viewBox="0 0 64 617" version="1.1" xmlns="http://www.w3.org/2000/svg" xmlns:xlink="http://www.w3.org/1999/xlink">
    <title>logos</title>
    <defs>
        <linearGradient x1="11.6613419%" y1="18.5303355%" x2="88.3386581%" y2="81.4696645%" id="linearGradient-1">
            <stop stop-color="#FFFFFF" offset="0%"></stop>
            <stop stop-color="#E7E8E6" offset="10%"></stop>
            <stop stop-color="#CDD0D0" offset="10%"></stop>
            <stop stop-color="#B5BBBD" offset="20%"></stop>
            <stop stop-color="#A5ACAF" offset="20%"></stop>
            <stop stop-color="#9BA3A7" offset="30%"></stop>
            <stop stop-color="#98A0A4" offset="30%"></stop>
            <stop stop-color="#828A8F" offset="40%"></stop>
            <stop stop-color="#667075" offset="50%"></stop>
            <stop stop-color="#535C63" offset="60%"></stop>
            <stop stop-color="#475158" offset="70%"></stop>
            <stop stop-color="#434D54" offset="80%"></stop>
            <stop stop-color="#475157" offset="100%"></stop>
        </linearGradient>
        <linearGradient x1="11.7346939%" y1="18.4967857%" x2="88.2653061%" y2="81.5032143%" id="linearGradient-2">
            <stop stop-color="#0B1F2A" offset="0%"></stop>
            <stop stop-color="#333F47" offset="20%"></stop>
            <stop stop-color="#777F84" offset="50%"></stop>
            <stop stop-color="#81898D" offset="50%"></stop>
            <stop stop-color="#B3B8B8" offset="70%"></stop>
            <stop stop-color="#D2D5D3" offset="80%"></stop>
            <stop stop-color="#DEE0DD" offset="80%"></stop>
            <stop stop-color="#FBFBFB" offset="100%"></stop>
        </linearGradient>
        <linearGradient x1="67.1446875%" y1="96.1062011%" x2="32.9259375%" y2="3.91554486%" id="linearGradient-3">
            <stop stop-color="#E1E3E1" offset="0%"></stop>
            <stop stop-color="#C1C5C4" offset="10%"></stop>
            <stop stop-color="#9BA1A2" offset="30%"></stop>
            <stop stop-color="#7D8487" offset="50%"></stop>
            <stop stop-color="#687074" stop-opacity="0" offset="70%"></stop>
            <stop stop-color="#5B6469" stop-opacity="0" offset="80%"></stop>
            <stop stop-color="#576065" stop-opacity="0" offset="100%"></stop>
        </linearGradient>
        <linearGradient x1="25%" y1="7.56451087%" x2="75%" y2="92.4354891%" id="linearGradient-4">
            <stop stop-color="#E1E3E1" offset="0%"></stop>
            <stop stop-color="#C1C5C4" offset="10%"></stop>
            <stop stop-color="#9BA1A2" offset="30%"></stop>
            <stop stop-color="#7D8487" offset="50%"></stop>
            <stop stop-color="#687074" stop-opacity="0" offset="70%"></stop>
            <stop stop-color="#5B6469" stop-opacity="0" offset="80%"></stop>
            <stop stop-color="#576065" stop-opacity="0" offset="100%"></stop>
        </linearGradient>
        <linearGradient x1="50.4098361%" y1="49.3327119%" x2="43.442623%" y2="55.8133424%" id="linearGradient-5">
            <stop stop-color="#27343C" offset="0%"></stop>
            <stop stop-color="#00111E" stop-opacity="0" offset="100%"></stop>
        </linearGradient>
        <linearGradient x1="52.9758463%" y1="91.1439114%" x2="51.3420483%" y2="74.5387454%" id="linearGradient-6">
            <stop stop-color="#02131F" offset="10%"></stop>
            <stop stop-color="#02131F" stop-opacity="0" offset="90%"></stop>
        </linearGradient>
        <linearGradient x1="100.406504%" y1="42.4179239%" x2="83.3333333%" y2="45.1613205%" id="linearGradient-7">
            <stop stop-color="#02131F" offset="20%"></stop>
            <stop stop-color="#02131F" stop-opacity="0" offset="90%"></stop>
        </linearGradient>
        <linearGradient x1="53.164557%" y1="54.8930279%" x2="50.6329114%" y2="51.3048723%" id="linearGradient-8">
            <stop stop-color="#02131F" offset="0%"></stop>
            <stop stop-color="#02131F" offset="10%"></stop>
            <stop stop-color="#02131F" stop-opacity="0" offset="100%"></stop>
        </linearGradient>
        <linearGradient x1="50.8359826%" y1="48.5122898%" x2="48.7305449%" y2="49.949691%" id="linearGradient-9">
            <stop stop-color="#02131F" offset="30%"></stop>
            <stop stop-color="#02131F" offset="30%"></stop>
            <stop stop-color="#02131F" stop-opacity="0" offset="80%"></stop>
        </linearGradient>
        <linearGradient x1="50.8979073%" y1="48.1529395%" x2="49.4736406%" y2="49.2309904%" id="linearGradient-10">
            <stop stop-color="#27343C" offset="40%"></stop>
            <stop stop-color="#3B474E" stop-opacity="0" offset="100%"></stop>
        </linearGradient>
        <linearGradient x1="32.8382935%" y1="32.0099256%" x2="71.9249556%" y2="71.9602978%" id="linearGradient-11">
            <stop stop-color="#24303A" stop-opacity="0" offset="0%"></stop>
            <stop stop-color="#25323B" stop-opacity="0" offset="0%"></stop>
            <stop stop-color="#27343C" offset="10%"></stop>
        </linearGradient>
        <linearGradient x1="55%" y1="102.109072%" x2="55%" y2="0.873606312%" id="linearGradient-12">
            <stop stop-color="#A5ABAF" offset="30%"></stop>
            <stop stop-color="#A5ABAF" stop-opacity="0" offset="100%"></stop>
        </linearGradient>
        <linearGradient x1="50.1597444%" y1="0%" x2="50.1597444%" y2="100%" id="linearGradient-13">
            <stop stop-color="#DEE0DD" offset="0%"></stop>
            <stop stop-color="#C5C9C7" offset="0%"></stop>
            <stop stop-color="#9EA4A5" offset="0%"></stop>
            <stop stop-color="#82898C" offset="0%"></stop>
            <stop stop-color="#71797D" offset="0%"></stop>
            <stop stop-color="#6B7378" offset="0%"></stop>
            <stop stop-color="#333F47" offset="20%"></stop>
            <stop stop-color="#27343C" offset="50%"></stop>
            <stop stop-color="#333F47" offset="80%"></stop>
            <stop stop-color="#434D54" offset="100%"></stop>
        </linearGradient>
        <linearGradient x1="45%" y1="50%" x2="45%" y2="50%" id="linearGradient-14">
            <stop stop-color="#DEE0DD" offset="0%"></stop>
            <stop stop-color="#C5C9C7" offset="0%"></stop>
            <stop stop-color="#9EA4A5" offset="0%"></stop>
            <stop stop-color="#82898C" offset="0%"></stop>
            <stop stop-color="#71797D" offset="0%"></stop>
            <stop stop-color="#6B7378" offset="0%"></stop>
            <stop stop-color="#333F47" offset="20%"></stop>
            <stop stop-color="#27343C" offset="50%"></stop>
            <stop stop-color="#333F47" offset="80%"></stop>
            <stop stop-color="#434D54" offset="100%"></stop>
        </linearGradient>
        <linearGradient x1="64.6553824%" y1="12.2249389%" x2="42.9249843%" y2="60.6356968%" id="linearGradient-15">
            <stop stop-color="#27343C" offset="70%"></stop>
            <stop stop-color="#2B373F" offset="70%"></stop>
            <stop stop-color="#36424A" offset="70%"></stop>
            <stop stop-color="#49545B" offset="70%"></stop>
            <stop stop-color="#646D73" stop-opacity="0" offset="80%"></stop>
            <stop stop-color="#868D92" stop-opacity="0" offset="80%"></stop>
            <stop stop-color="#B0B5B8" stop-opacity="0" offset="80%"></stop>
            <stop stop-color="#E1E3E4" stop-opacity="0" offset="80%"></stop>
            <stop stop-color="#FFFFFF" stop-opacity="0" offset="80%"></stop>
        </linearGradient>
    </defs>
    <g id="AU_version" stroke="none" stroke-width="1" fill="none" fill-rule="evenodd">
        <g id="Halfpage_300x600_F3_" transform="translate(-237.000000, 0.000000)">
            <g id="logos" transform="translate(237.000000, 0.000000)">
                <polygon id="Black-Fill" fill="#000000" points="0 617 63 617 63 0 0 0"></polygon>
                <text id="The-all-new-C-Class." transform="translate(28.500000, 454.000000) rotate(-90.000000) translate(-28.500000, -454.000000) " font-family="MBCorpoATitleCond-Regular, MB Corpo A Title Cond" font-size="22" font-style="condensed" font-weight="normal" fill="#FFFFFF">
                    <tspan x="-47" y="462">The all new C-Class.</tspan>
                </text>
                <g id="1xBlock" transform="translate(0.000000, 529.000000)">
                    <g id="Guidelines"></g>
                    <g id="MB-Star-Mobile" transform="translate(15.098039, 21.954390)">
                        <path d="M32.309375,16.17 C32.309375,24.9119062 25.1635417,31.9862812 16.3333333,31.9862812 C7.503125,31.9862812 0.357291667,24.9119062 0.357291667,16.17 C0.357291667,7.42809375 7.503125,0.35371875 16.3333333,0.35371875 C25.1635417,0.35371875 32.309375,7.42809375 32.309375,16.17 Z M16.3333333,1.3138125 C8.01354167,1.3138125 1.32708333,7.93340625 1.32708333,16.17 C1.32708333,24.4065937 8.06458333,31.0261875 16.3333333,31.0261875 C24.653125,31.0261875 31.3395833,24.3560625 31.3395833,16.17 C31.3395833,7.93340625 24.653125,1.3138125 16.3333333,1.3138125 Z" id="outer_24_" fill="url(#linearGradient-1)" fill-rule="nonzero"></path>
                        <path d="M16.3333333,1.3138125 C8.01354167,1.3138125 1.32708333,7.93340625 1.32708333,16.17 C1.32708333,24.4065938 8.06458333,31.0261875 16.3333333,31.0261875 C24.653125,31.0261875 31.3395833,24.3560625 31.3395833,16.17 C31.3395833,7.93340625 24.653125,1.3138125 16.3333333,1.3138125 Z M16.3333333,30.0660937 C8.575,30.0660937 2.296875,23.85075 2.296875,16.17 C2.296875,8.48925 8.575,2.27390625 16.3333333,2.27390625 C24.0916667,2.27390625 30.3697917,8.48925 30.3697917,16.17 C30.3697917,23.85075 24.0916667,30.0660937 16.3333333,30.0660937 Z" id="Shape" fill="url(#linearGradient-2)" fill-rule="nonzero"></path>
                        <path d="M16.3333333,31.9862812 C25.1635417,31.9862812 32.309375,24.9119062 32.309375,16.17 C32.309375,7.42809375 25.1635417,0.35371875 16.3333333,0.35371875 C7.503125,0.35371875 0.357291667,7.42809375 0.357291667,16.17 C0.357291667,24.9119062 7.503125,31.9862812 16.3333333,31.9862812 L16.3333333,31.9862812 Z M16.3333333,0 C25.3166667,0 32.6666667,7.2765 32.6666667,16.17 C32.6666667,25.0635 25.3166667,32.34 16.3333333,32.34 C7.35,32.34 0,25.0635 0,16.17 C0,7.2765 7.35,0 16.3333333,0 L16.3333333,0 Z" id="Shape" fill="url(#linearGradient-3)" fill-rule="nonzero" opacity="0.4"></path>
                        <path d="M1.12291667,16.2205313 C1.12291667,7.93340625 7.91145833,1.1116875 16.3333333,1.1116875 L16.3333333,1.1116875 C24.7552083,1.1116875 31.54375,7.882875 31.54375,16.2205313 L31.54375,16.2205313 C31.54375,24.5076562 24.7552083,31.2283125 16.3333333,31.2283125 L16.3333333,31.2283125 C7.91145833,31.2283125 1.12291667,24.5076562 1.12291667,16.2205313 L1.12291667,16.2205313 Z M5.86979167,5.81109375 C3.16458333,8.48925 1.48020833,12.1780313 1.48020833,16.2205313 L1.48020833,16.2205313 C1.48020833,20.2630313 3.16458333,23.9518125 5.81875,26.5794375 L5.81875,26.5794375 C8.52395833,29.2070625 12.25,30.8745938 16.3333333,30.8745938 L16.3333333,30.8745938 C20.4166667,30.8745938 24.1427083,29.2575938 26.796875,26.5794375 L26.796875,26.5794375 C29.5020833,23.9518125 31.1354167,20.2630313 31.1354167,16.2205313 L31.1354167,16.2205313 C31.1354167,12.1780313 29.4510417,8.48925 26.796875,5.81109375 L26.796875,5.81109375 C24.1427083,3.1329375 20.4166667,1.46540625 16.3333333,1.46540625 L16.3333333,1.46540625 C12.25,1.46540625 8.52395833,3.1329375 5.86979167,5.81109375 L5.86979167,5.81109375 Z" id="Shape" fill="#FFFFFF" fill-rule="nonzero"></path>
                        <path d="M16.3333333,30.116625 C12.55625,30.116625 9.034375,28.6512188 6.38020833,26.0235938 C3.72604167,23.3959688 2.24583333,19.9093125 2.24583333,16.17 C2.24583333,12.4306875 3.72604167,8.94403125 6.38020833,6.31640625 C9.034375,3.68878125 12.55625,2.223375 16.3333333,2.223375 C20.1104167,2.223375 23.6322917,3.68878125 26.2864583,6.31640625 C28.940625,8.94403125 30.4208333,12.4306875 30.4208333,16.17 C30.4208333,19.9093125 28.940625,23.3959688 26.2864583,26.0235938 C23.6322917,28.6512188 20.1104167,30.116625 16.3333333,30.116625 L16.3333333,30.116625 Z M16.3333333,29.712375 C19.9572917,29.712375 23.428125,28.2975 25.9802083,25.7709375 C28.5833333,23.1938437 29.9614583,19.80825 29.9614583,16.2205312 C29.9614583,12.6328125 28.5322917,9.1966875 25.9802083,6.670125 C23.3770833,4.09303125 19.9572917,2.7286875 16.3333333,2.7286875 C12.709375,2.7286875 9.23854167,4.1435625 6.68645833,6.670125 C4.08333333,9.14615625 2.65416667,12.5822812 2.65416667,16.17 C2.65416667,19.7577187 4.08333333,23.1938437 6.63541667,25.7204062 C9.23854167,28.2975 12.709375,29.712375 16.3333333,29.712375 L16.3333333,29.712375 Z" id="Shape" fill="url(#linearGradient-4)" fill-rule="nonzero" opacity="0.4"></path>
                        <path d="M28.7364583,22.7390625 C28.48125,22.5369375 18.6302083,14.8056562 18.6302083,14.8056562 L16.3333333,1.819125 C16.1802083,1.86965625 15.9760417,2.02125 15.8739583,2.223375 L14.240625,14.8561875 L4.08333333,22.5874687 C4.08333333,22.5874687 3.87916667,22.840125 3.77708333,22.9917187 C3.72604167,23.0927812 3.72604167,23.244375 3.72604167,23.3959687 C3.72604167,23.3959687 3.72604167,23.3959687 3.72604167,23.3959687 L16.2822917,18.2923125 L28.8385417,23.3959687 C28.8385417,23.3959687 28.8385417,23.3959687 28.8385417,23.3959687 C28.940625,23.1433125 28.8385417,22.8906562 28.7364583,22.7390625 Z" id="Path" fill="#FFFFFF"></path>
                        <path d="M16.4354167,16.57425 L16.3333333,18.8986875 L27.86875,23.4970312 C28.2770833,23.6991562 28.5833333,23.5980937 28.8895833,23.3959687 L16.5885417,16.5237188 C16.5375,16.4731875 16.4354167,16.5237188 16.4354167,16.57425 Z" id="Path" fill="#565F64"></path>
                        <path d="M16.4354167,16.57425 C16.4354167,16.57425 17.0989583,17.7364687 17.8645833,18.5449687 C18.9364583,19.7071875 20.365625,20.5156875 20.365625,20.5156875 L27.86875,23.4970312 C28.2770833,23.6991562 28.5833333,23.5980937 28.8895833,23.3959687 L16.5885417,16.5237188 C16.5375,16.4731875 16.4354167,16.5237188 16.4354167,16.57425 Z" id="Path" fill="url(#linearGradient-5)"></path>
                        <path d="M28.8385417,22.9411875 C28.8385417,22.8906562 28.7875,22.840125 28.7364583,22.7390625 L18.221875,15.1088437 L16.7927083,16.0184062 C16.7927083,16.0184062 16.8947917,16.0689375 16.9458333,16.0184062 C17.0989583,15.967875 17.4052083,15.9173437 17.7114583,16.0184062 C17.9666667,16.1194687 28.8385417,22.9917187 28.8385417,22.9917187 C28.8385417,22.9917187 28.8385417,22.9917187 28.8385417,22.9411875 Z" id="Path" fill-opacity="0.6" fill="#A4AAAE"></path>
                        <path d="M28.48125,22.4864062 L18.68125,14.8056562 L18.68125,14.8056562 L18.221875,15.1088437 L28.7364583,22.7895937 C28.6854167,22.6885312 28.5833333,22.5874687 28.48125,22.4864062 Z" id="Path" fill="#333E46"></path>
                        <path d="M16.5885417,15.8162812 C16.5375,15.8668125 16.5375,15.8668125 16.5375,15.8668125 C16.5375,15.8668125 16.5375,15.967875 16.6395833,15.9173437 C16.690625,15.8668125 18.1708333,15.1088437 18.68125,14.8056562 L16.8947917,2.67815625 C16.84375,2.223375 16.6395833,2.02125 16.2822917,1.86965625 L16.4864583,15.9173437 L16.5885417,15.8162812 Z" id="Path" fill="#565F64"></path>
                        <path d="M15.7208333,2.67815625 L15.7208333,3.3350625 L14.5979167,14.5024687 C14.5979167,14.6540625 14.6489583,14.8056562 14.8020833,14.9067187 L15.465625,15.4120312 L15.925,3.08240625 L15.9760417,2.1223125 C15.8229167,2.223375 15.771875,2.4255 15.7208333,2.67815625 Z" id="Path" fill-opacity="0.6" fill="#A4AAAE"></path>
                        <path d="M15.1083333,15.6141562 L14.4958333,15.1088437 L4.134375,22.5369375 C4.134375,22.5369375 3.828125,22.7390625 3.77708333,22.9411875 L3.77708333,22.9411875 C3.77708333,22.9411875 3.77708333,22.9411875 3.77708333,22.9411875 L3.77708333,22.9411875 L4.134375,22.7390625 L4.134375,22.7390625 L15.00625,15.967875 C15.2104167,15.8668125 15.2614583,15.76575 15.1083333,15.6141562 Z" id="Path" fill-opacity="0.6" fill="#A4AAAE"></path>
                        <path d="M16.1802083,16.57425 C16.1802083,16.5237188 16.1291667,16.4731875 16.078125,16.5237188 L3.72604167,23.4465 C4.03229167,23.648625 4.33854167,23.6991562 4.746875,23.5475625 L16.2822917,18.9492187 L16.1802083,16.57425 Z" id="Path" fill="#565F64"></path>
                        <path d="M16.5375,15.8668125 L16.5885417,15.8162812 C16.5375,15.8668125 16.5375,15.8668125 16.5375,15.8668125 L16.5375,15.8668125 C16.5375,15.8668125 16.5375,15.9173437 16.5885417,15.9173437 C16.5885417,15.9173437 16.6395833,15.9173437 16.6395833,15.9173437 C16.690625,15.8668125 18.1708333,15.1088437 18.68125,14.8056562 L18.4770833,13.34025 L18.4770833,13.34025 L16.8947917,2.67815625 C16.8947917,2.47603125 16.84375,2.3244375 16.7416667,2.223375 C16.7416667,2.223375 17.5072917,12.4306875 17.5072917,13.542375 C17.5072917,15.0077812 16.5375,15.8668125 16.5375,15.8668125 Z" id="Path" fill="url(#linearGradient-6)"></path>
                        <path d="M16.1802083,16.57425 C16.1802083,16.5237188 16.1291667,16.4731875 16.078125,16.5237188 L3.72604167,23.4465 C4.03229167,23.648625 4.33854167,23.6991562 4.746875,23.5475625 L16.2822917,18.9492187 L16.1802083,16.57425 Z" id="Path" fill-opacity="0.8" fill="url(#linearGradient-7)"></path>
                        <path d="M4.746875,23.4970312 L16.2822917,18.8986875 L16.1802083,16.6753125 C15.9760417,17.2816875 15.61875,17.9385937 14.6489583,18.4439062 C14.6489583,18.4439062 14.6489583,18.4439062 14.6489583,18.4439062 C13.934375,18.8481562 7.09479167,22.1832187 4.64479167,23.3454375 C4.49166667,23.4465 4.2875,23.4970312 4.18541667,23.5475625 C4.38958333,23.648625 4.54270833,23.5980937 4.746875,23.4970312 Z" id="Path" fill="url(#linearGradient-8)" opacity="0.8"></path>
                        <path d="M16.5885417,15.8162812 C16.5375,15.8668125 16.5375,15.8668125 16.5375,15.8668125 C16.5375,15.8668125 16.5375,15.967875 16.6395833,15.9173437 C16.690625,15.8668125 18.1708333,15.1088437 18.68125,14.8056562 L16.8947917,2.67815625 C16.84375,2.223375 16.6395833,2.02125 16.2822917,1.86965625 L16.4864583,15.9173437 L16.5885417,15.8162812 Z" id="Path" fill="url(#linearGradient-9)"></path>
                        <path d="M16.5885417,15.8162812 C16.5375,15.8668125 16.5375,15.8668125 16.5375,15.8668125 C16.5375,15.8668125 16.5375,15.967875 16.6395833,15.9173437 C16.690625,15.8668125 18.1708333,15.1088437 18.68125,14.8056562 L16.8947917,2.67815625 C16.84375,2.223375 16.6395833,2.02125 16.2822917,1.86965625 L16.4864583,15.9173437 L16.5885417,15.8162812 Z" id="Path" fill="url(#linearGradient-10)"></path>
                        <path d="M2.603125,22.435875 C2.24583333,21.627375 0.204166667,17.6859375 2.45,10.10625 L1.58229167,10.10625 C1.12291667,11.6221875 0.765625,12.53175 0.561458333,13.8960938 C0.561458333,13.8960938 0.459375,14.4014063 0.408333333,14.95725 C0.357291667,15.5130938 0.357291667,15.8162813 0.357291667,16.17 C0.357291667,19.201875 1.12291667,20.9704688 1.12291667,20.9704688 C1.93958333,23.4970313 3.36875,25.7709375 5.30833333,27.489 C6.99270833,28.9544063 9.59583333,30.0660938 11.7395833,30.4703438 C11.3822917,30.4198125 5.25729167,27.8427188 2.603125,22.435875 Z" id="Path" fill="url(#linearGradient-11)"></path>
                        <path d="M16.5375,16.4731875 L16.078125,16.4731875 L16.078125,16.4731875 C16.1291667,16.4731875 16.1802083,16.4731875 16.1802083,16.5237187 L16.2822917,18.8481562 L16.2822917,18.8481562 L16.3333333,18.8481562 L16.4354167,16.5237187 C16.4354167,16.4731875 16.4864583,16.4226562 16.5375,16.4731875 L16.5375,16.4731875 L16.5375,16.4731875 Z" id="Path" fill="url(#linearGradient-12)"></path>
                        <path d="M21.4375,1.16221875 C26.796875,3.18346875 31.85,8.74190625 31.85,15.76575 C31.85,24.255 25.0104167,31.1777812 16.3333333,31.1777812 L16.3333333,31.9862812 C25.0104167,31.9862812 32.309375,24.9119062 32.309375,16.17 C32.309375,9.1966875 27.8177083,3.3350625 21.4375,1.16221875 Z" id="Path" fill="url(#linearGradient-13)"></path>
                        <path d="M16.4864583,0.35371875 C16.4354167,0.35371875 16.384375,0.35371875 16.3333333,0.35371875 C16.384375,0.35371875 16.4354167,0.35371875 16.4864583,0.35371875 C16.4864583,0.35371875 16.4864583,0.35371875 16.4864583,0.35371875 Z" id="Path" fill="url(#linearGradient-14)"></path>
                        <path d="M30.0125,10.2073125 C26.4395833,2.07178125 18.375,1.617 17.915625,1.56646875 C17.915625,1.56646875 17.915625,1.56646875 17.8645833,1.56646875 L17.8645833,1.56646875 C24.040625,2.67815625 27.9708333,6.670125 29.3489583,10.8642187 C29.3489583,10.8642187 29.3489583,10.91475 29.3489583,10.91475 C29.9614583,12.53175 30.2677083,14.2498125 30.31875,16.1194687 C30.3697917,17.8880625 29.9614583,19.8587812 29.1958333,21.6779062 C29.1447917,21.9305625 29.09375,22.23375 29.0427083,22.23375 L29.859375,22.23375 C32.309375,17.6859375 31.2375,13.0875937 30.0125,10.2073125 Z" id="Path" fill="url(#linearGradient-15)"></path>
                        <path d="M1.12291667,16.2205313 C1.12291667,7.93340625 7.91145833,1.1116875 16.3333333,1.1116875 L16.3333333,1.1116875 C24.7552083,1.1116875 31.54375,7.882875 31.54375,16.2205313 L31.54375,16.2205313 C31.54375,24.5076562 24.7552083,31.2283125 16.3333333,31.2283125 L16.3333333,31.2283125 C7.91145833,31.2283125 1.12291667,24.5076562 1.12291667,16.2205313 L1.12291667,16.2205313 Z M5.86979167,5.81109375 C3.16458333,8.48925 1.48020833,12.1780313 1.48020833,16.2205313 L1.48020833,16.2205313 C1.48020833,20.2630313 3.16458333,23.9518125 5.81875,26.5794375 L5.81875,26.5794375 C8.52395833,29.2070625 12.25,30.8745938 16.3333333,30.8745938 L16.3333333,30.8745938 C20.4166667,30.8745938 24.1427083,29.2575938 26.796875,26.5794375 L26.796875,26.5794375 C29.5020833,23.9518125 31.1354167,20.2630313 31.1354167,16.2205313 L31.1354167,16.2205313 C31.1354167,12.1780313 29.4510417,8.48925 26.796875,5.81109375 L26.796875,5.81109375 C24.1427083,3.1329375 20.4166667,1.46540625 16.3333333,1.46540625 L16.3333333,1.46540625 C12.25,1.46540625 8.52395833,3.1329375 5.86979167,5.81109375 L5.86979167,5.81109375 Z" id="Shape" fill="#FBFBFB" fill-rule="nonzero"></path>
                        <path d="M4.03229167,22.638 L4.03229167,22.638 L14.4447917,15.2099062 C15.00625,15.5130937 15.925,15.9173437 16.0270833,15.9173437 C16.1291667,15.967875 16.1291667,15.8668125 16.1291667,15.8668125 L14.853125,14.8056562 C14.7,14.7045937 14.6489583,14.553 14.6489583,14.4014062 L15.8739583,2.223375 C15.8229167,2.27390625 15.8229167,2.37496875 15.771875,2.4255 C15.7208333,2.5265625 15.7208333,2.57709375 15.7208333,2.67815625 L13.934375,14.8561875 L4.134375,22.4864062 C4.08333333,22.5369375 4.03229167,22.5874687 4.03229167,22.638 Z" id="Path" fill="#333F47"></path>
                    </g>
                </g>
            </g>
        </g>
    </g>
</svg>