<svg width="452" height="126" viewBox="0 0 452 126" fill="none" xmlns="http://www.w3.org/2000/svg">
<path d="M80.4256 41.264H70.0256V76H80.4256C89.7336 76 96.6496 70.54 96.6496 58.632C96.6496 46.724 89.7336 41.264 80.4256 41.264ZM79.9576 72.1H74.7576V45.164H79.9576C87.0296 45.164 91.8136 49.272 91.8136 58.632C91.8136 67.992 87.0296 72.1 79.9576 72.1ZM106.171 45.736C108.043 45.736 109.291 44.436 109.291 42.616C109.291 40.744 108.043 39.444 106.171 39.444C104.299 39.444 102.999 40.744 102.999 42.616C102.999 44.436 104.299 45.736 106.171 45.736ZM103.831 50.312V76H108.459V50.312H103.831ZM117.192 69.396L114.748 72.1C117.088 74.804 120.416 76.52 124.732 76.52C130.504 76.52 134.3 73.556 134.3 69.136C134.3 64.404 130.556 62.792 127.228 61.544L124.108 60.4C121.612 59.516 120.052 58.528 120.052 56.552C120.052 54.836 121.56 53.432 124.576 53.432C127.124 53.432 129.308 54.42 131.18 56.188L133.624 53.432C131.336 51.092 128.32 49.792 124.368 49.792C118.96 49.792 115.684 52.86 115.684 56.76C115.684 60.764 118.856 62.844 121.82 63.936L124.888 65.028C128.112 66.068 129.932 66.952 129.932 69.344C129.932 71.84 127.904 72.88 124.576 72.88C121.612 72.88 119.324 71.58 117.192 69.396ZM150.831 76.52C154.835 76.52 158.423 74.908 160.399 70.436L156.811 68.668C155.459 71.684 153.639 72.828 150.935 72.828C147.087 72.828 144.175 69.5 144.175 63.208C144.175 56.864 147.087 53.484 150.935 53.484C153.483 53.484 155.251 54.576 156.603 57.176L160.087 55.2C158.059 51.3 154.627 49.792 150.831 49.792C144.279 49.792 139.443 54.888 139.443 63.208C139.443 71.476 144.175 76.52 150.831 76.52ZM176.788 76.52C183.808 76.52 188.488 71.424 188.488 63.156C188.488 54.888 183.808 49.792 176.788 49.792C169.768 49.792 165.088 54.888 165.088 63.156C165.088 71.424 169.768 76.52 176.788 76.52ZM176.788 72.828C172.576 72.828 169.82 69.448 169.82 63.156C169.82 56.864 172.576 53.484 176.788 53.484C181 53.484 183.756 56.864 183.756 63.156C183.756 69.448 181 72.828 176.788 72.828ZM201.225 76H206.113L215.265 50.312H210.689L204.917 67.524C204.501 68.824 204.241 69.864 203.929 71.164H203.721C203.357 69.864 203.097 68.72 202.629 67.368L197.013 50.312H192.177L201.225 76ZM241.067 62.324C241.067 54.68 236.803 49.792 230.355 49.792C223.751 49.792 218.967 54.784 218.967 63.208C218.967 71.58 223.855 76.52 230.875 76.52C234.723 76.52 237.843 75.116 240.287 72.308L237.843 69.656C236.023 71.788 233.787 72.88 231.187 72.88C226.715 72.88 224.011 69.916 223.647 64.404H241.015C241.067 63.78 241.067 62.948 241.067 62.324ZM230.355 53.432C234.047 53.432 236.231 56.032 236.543 61.024H223.699C224.219 55.98 226.715 53.432 230.355 53.432ZM259.336 49.792C256.112 49.792 253.824 51.716 252.576 54.576H252.368V50.312H247.948V76H252.576V62.74C252.576 56.864 255.488 54.004 258.92 54.004C259.7 54.004 260.532 54.004 261.364 54.16V50C260.74 49.844 260.116 49.792 259.336 49.792ZM304.882 49.792C301.034 49.792 298.486 51.664 297.186 54.368C296.042 51.456 293.546 49.792 290.322 49.792C286.682 49.792 284.394 51.508 283.198 54.056H282.99V50.312H278.57V76H283.198V60.608C283.198 56.032 285.954 53.484 288.918 53.484C292.246 53.484 293.234 55.72 293.234 59.204V76H297.862V60.608C297.862 55.772 300.618 53.484 303.582 53.484C306.91 53.484 307.898 55.72 307.898 59.204V76H312.526V58.268C312.526 53.016 309.458 49.792 304.882 49.792ZM330.909 76.52C337.929 76.52 342.609 71.424 342.609 63.156C342.609 54.888 337.929 49.792 330.909 49.792C323.889 49.792 319.209 54.888 319.209 63.156C319.209 71.424 323.889 76.52 330.909 76.52ZM330.909 72.828C326.697 72.828 323.941 69.448 323.941 63.156C323.941 56.864 326.697 53.484 330.909 53.484C335.121 53.484 337.877 56.864 337.877 63.156C337.877 69.448 335.121 72.828 330.909 72.828ZM360.95 49.792C357.726 49.792 355.438 51.716 354.19 54.576H353.982V50.312H349.562V76H354.19V62.74C354.19 56.864 357.102 54.004 360.534 54.004C361.314 54.004 362.146 54.004 362.978 54.16V50C362.354 49.844 361.73 49.792 360.95 49.792ZM388.129 62.324C388.129 54.68 383.865 49.792 377.417 49.792C370.813 49.792 366.029 54.784 366.029 63.208C366.029 71.58 370.917 76.52 377.937 76.52C381.785 76.52 384.905 75.116 387.349 72.308L384.905 69.656C383.085 71.788 380.849 72.88 378.249 72.88C373.777 72.88 371.073 69.916 370.709 64.404H388.077C388.129 63.78 388.129 62.948 388.129 62.324ZM377.417 53.432C381.109 53.432 383.293 56.032 383.605 61.024H370.761C371.281 55.98 373.777 53.432 377.417 53.432Z" fill="#FBFEFF"/>
<rect x="2.5" y="2.5" width="447" height="121" stroke="white" stroke-width="5"/>
</svg>
