<svg xmlns="http://www.w3.org/2000/svg" xmlns:xlink="http://www.w3.org/1999/xlink" width="138.831" height="14.574" viewBox="0 0 138.831 14.574">
  <defs>
    <clipPath id="clip-path">
      <path id="Path_3" data-name="Path 3" d="M7.182-.958V-1.42C5.9-1.546,5.67-1.672,5.67-3.226V-14.44h.84c1.68,0,2.016.588,2.436,2.856h.42l-.273-3.444H.651L.378-11.584H.8c.42-2.268.756-2.856,2.436-2.856h.84V-3.226c0,1.554-.231,1.68-1.512,1.806v.462c.966-.084,1.575-.126,2.31-.126S6.216-1.042,7.182-.958Zm11.508,0V-1.42c-.944-.1-1.12-.278-1.133-1.432V-8.035c0-1.869-.882-3-2.457-3A2.6,2.6,0,0,0,12.81-9.673v-5.565h-.294a17.847,17.847,0,0,1-2.394.168v.441c1.05.084,1.218.315,1.218,1.575V-3.016c0,1.3-.147,1.491-1.134,1.6v.462a15.5,15.5,0,0,1,1.869-.126,14.218,14.218,0,0,1,1.785.126V-1.42c-.884-.1-1.038-.259-1.049-1.43V-7.72c0-1.554.9-2.667,1.995-2.667.819,0,1.281.483,1.281,1.806v5.565c0,1.323-.126,1.491-1.05,1.6v.462a14.218,14.218,0,0,1,1.785-.126A15.5,15.5,0,0,1,18.69-.958Zm4.641.168c1.743,0,2.94-1.3,3.087-3.507h-.525C25.767-2.47,24.8-1.42,23.583-1.42c-1.554,0-2.226-1.491-2.226-4.473v-.294h5.061v-.189c0-2.919-1.386-4.662-3.192-4.662-1.848,0-3.423,1.932-3.423,5.145C19.8-3.058,20.916-.79,23.331-.79Zm1.617-5.922h-3.57c.1-2.394.693-3.8,1.806-3.8C24.36-10.513,24.948-9,24.948-6.712ZM32.277-.685l.546-1.386A3.567,3.567,0,0,0,35.658-.79a3.836,3.836,0,0,0,3.864-3.843,4.087,4.087,0,0,0-2.352-3.78L35.343-9.484c-1.218-.714-1.953-1.428-1.953-2.772a2.167,2.167,0,0,1,2.226-2.436c1.6,0,2.52,1.6,2.856,3.633h.378v-4.2h-.294l-.42,1.428a3.133,3.133,0,0,0-2.6-1.407,3.392,3.392,0,0,0-3.423,3.528,4.051,4.051,0,0,0,2.352,3.738l1.533.9c1.344.8,2.163,1.659,2.163,3.255A2.319,2.319,0,0,1,35.6-1.336c-1.911,0-2.835-1.554-3.192-4.158h-.42V-.685ZM45.549-6.418v-.84H41.328v.84ZM52.227-.79c1.995,0,3.57-1.47,3.738-4.977h-.546c-.168,3.087-1.47,4.242-2.877,4.242-2.268,0-3.318-2.226-3.318-6.489,0-4.179.987-6.678,3.066-6.678,1.638,0,2.583,1.176,3.066,3.864h.378v-4.41H55.44l-.462,1.344a3.249,3.249,0,0,0-2.688-1.344c-2.625,0-4.767,2.52-4.767,7.224S49.56-.79,52.227-.79Zm8.715-.168V-1.42c-.944-.1-1.12-.278-1.133-1.432V-15.238h-.294a17.847,17.847,0,0,1-2.394.168v.441c1.05.084,1.218.315,1.218,1.575V-3.016c0,1.3-.147,1.491-1.134,1.6v.462a13.925,13.925,0,0,1,3.738,0Zm3.633.168a2.424,2.424,0,0,0,2.31-1.7v.168c0,.987.462,1.449,1.239,1.449a4.674,4.674,0,0,0,1.155-.168v-.42c-.819,0-1.155-.231-1.155-1.218V-8.014a2.707,2.707,0,0,0-2.772-3.024A2.659,2.659,0,0,0,62.6-8.56c0,.546.294.735.651.735.4,0,.672-.168.672-.84,0-1.344.546-1.848,1.386-1.848s1.344.525,1.344,1.869v1.491c-.462.084-.945.231-1.323.336-2,.546-3.15,1.344-3.15,3.276C62.181-1.924,63.021-.79,64.575-.79Zm.525-.8c-.84,0-1.365-.714-1.365-2.037,0-1.239.294-2.289,1.764-2.709.378-.105.756-.21,1.155-.294v2.52C66.654-2.449,65.919-1.588,65.1-1.588Zm5.607.861.315-.987a2.69,2.69,0,0,0,2.121.924A2.863,2.863,0,0,0,76.02-3.646a2.825,2.825,0,0,0-1.7-2.646l-1.365-.735c-.882-.483-1.407-.924-1.407-1.806a1.488,1.488,0,0,1,1.575-1.68c1.176,0,1.827,1.218,2.058,2.6h.4V-11.1h-.336l-.336.945a2.385,2.385,0,0,0-1.869-.882,2.532,2.532,0,0,0-2.562,2.625,2.677,2.677,0,0,0,1.7,2.688l1.155.63c.945.5,1.554,1.05,1.554,2.037A1.639,1.639,0,0,1,73.08-1.315c-1.386,0-2.058-1.176-2.31-2.982h-.4v3.57Zm7.161,0,.315-.987A2.69,2.69,0,0,0,80.3-.79a2.863,2.863,0,0,0,2.877-2.856,2.825,2.825,0,0,0-1.7-2.646l-1.365-.735c-.882-.483-1.407-.924-1.407-1.806a1.488,1.488,0,0,1,1.575-1.68c1.176,0,1.827,1.218,2.058,2.6h.4V-11.1H82.4l-.336.945a2.385,2.385,0,0,0-1.869-.882,2.532,2.532,0,0,0-2.562,2.625,2.677,2.677,0,0,0,1.7,2.688l1.155.63c.945.5,1.554,1.05,1.554,2.037a1.639,1.639,0,0,1-1.806,1.743c-1.386,0-2.058-1.176-2.31-2.982h-.4v3.57Zm11.109.042.546-1.386A3.567,3.567,0,0,0,92.358-.79a3.836,3.836,0,0,0,3.864-3.843,4.087,4.087,0,0,0-2.352-3.78L92.043-9.484c-1.218-.714-1.953-1.428-1.953-2.772a2.167,2.167,0,0,1,2.226-2.436c1.6,0,2.52,1.6,2.856,3.633h.378v-4.2h-.294l-.42,1.428a3.133,3.133,0,0,0-2.6-1.407,3.392,3.392,0,0,0-3.423,3.528,4.051,4.051,0,0,0,2.352,3.738l1.533.9c1.344.8,2.163,1.659,2.163,3.255a2.319,2.319,0,0,1-2.562,2.478c-1.911,0-2.835-1.554-3.192-4.158h-.42V-.685ZM100.086-.79a2.424,2.424,0,0,0,2.31-1.7v.168c0,.987.462,1.449,1.239,1.449a4.674,4.674,0,0,0,1.155-.168v-.42c-.819,0-1.155-.231-1.155-1.218V-8.014a2.707,2.707,0,0,0-2.772-3.024A2.659,2.659,0,0,0,98.112-8.56c0,.546.294.735.651.735.4,0,.672-.168.672-.84,0-1.344.546-1.848,1.386-1.848s1.344.525,1.344,1.869v1.491c-.462.084-.945.231-1.323.336-2,.546-3.15,1.344-3.15,3.276C97.692-1.924,98.532-.79,100.086-.79Zm.525-.8c-.84,0-1.365-.714-1.365-2.037,0-1.239.294-2.289,1.764-2.709.378-.105.756-.21,1.155-.294v2.52C102.165-2.449,101.43-1.588,100.611-1.588Zm8.652.63V-1.42c-.944-.1-1.12-.278-1.133-1.432V-15.238h-.294a17.847,17.847,0,0,1-2.394.168v.441c1.05.084,1.218.315,1.218,1.575V-3.016c0,1.3-.147,1.491-1.134,1.6v.462a13.925,13.925,0,0,1,3.738,0Zm4.767.168C116-.79,117.6-2.7,117.6-5.914s-1.6-5.124-3.57-5.124-3.57,1.911-3.57,5.124S112.056-.79,114.03-.79Zm0-.525c-1.407,0-2.016-1.638-2.016-4.6s.609-4.6,2.016-4.6,2.016,1.638,2.016,4.6S115.437-1.315,114.03-1.315ZM122.6-.79c1.974,0,3.57-1.911,3.57-5.124s-1.6-5.124-3.57-5.124-3.57,1.911-3.57,5.124S120.624-.79,122.6-.79Zm0-.525c-1.407,0-2.016-1.638-2.016-4.6s.609-4.6,2.016-4.6,2.016,1.638,2.016,4.6S124-1.315,122.6-1.315Zm13.335.357V-1.42c-.944-.1-1.12-.278-1.133-1.432V-8.035c0-1.869-.882-3-2.457-3a2.638,2.638,0,0,0-2.373,1.512v-1.428h-.21a17.847,17.847,0,0,1-2.394.168v.441c1.05.084,1.218.315,1.218,1.575v5.754c0,1.3-.147,1.491-1.134,1.6v.462a15.5,15.5,0,0,1,1.869-.126,14.218,14.218,0,0,1,1.785.126V-1.42c-.884-.1-1.037-.259-1.049-1.43V-7.72c0-1.554.9-2.667,2-2.667.819,0,1.281.483,1.281,1.806v5.565c0,1.323-.126,1.491-1.05,1.6v.462a14.218,14.218,0,0,1,1.785-.126A15.5,15.5,0,0,1,135.933-.958Zm2.226.168a1.02,1.02,0,0,0,1.05-1.071,1.02,1.02,0,0,0-1.05-1.071,1.02,1.02,0,0,0-1.05,1.071A1.02,1.02,0,0,0,138.159-.79Z" fill="none"/>
    </clipPath>
    <clipPath id="clip-path-2">
      <path id="Path_2" data-name="Path 2" d="M-56,17H672V-73H-56Z" fill="none"/>
    </clipPath>
  </defs>
  <g id="Group_3" data-name="Group 3" transform="translate(-0.378 15.259)">
    <g id="Group_2" data-name="Group 2" clip-path="url(#clip-path)">
      <g id="Group_1" data-name="Group 1" clip-path="url(#clip-path-2)">
        <path id="Path_1" data-name="Path 1" d="M-.622-16.259H140.209V.315H-.622Z" fill="#fff"/>
      </g>
    </g>
  </g>
</svg>
