<svg height="18.154" viewBox="0 0 259.407 18.154" width="259.407" xmlns="http://www.w3.org/2000/svg" xmlns:xlink="http://www.w3.org/1999/xlink"><clipPath id="a"><path d="m4.669-3.958v-.463c-1.39-.127-1.669-.253-1.669-1.811v-4.591h2.532c.716 0 .927.379.969 1.706h.421v-4h-.422c-.063 1.327-.253 1.706-.969 1.706h-2.531v-6.065h2.216c1.664 0 2.085.674 2.485 2.948h.421l-.316-3.538h-7.771v.463c1.158.063 1.369.253 1.369 1.685v9.688c0 1.537-.211 1.685-1.369 1.811v.463a21.3 21.3 0 0 1 2.165-.128h.084a23.554 23.554 0 0 1 2.385.126zm6.075-11.794a.979.979 0 0 0 1.011-1.032.979.979 0 0 0 -1.011-1.032.979.979 0 0 0 -1.011 1.032.979.979 0 0 0 1.011 1.033zm1.956 11.794v-.463c-.99-.105-1.137-.295-1.137-1.6v-7.961h-.293a17.9 17.9 0 0 1 -2.4.168v.442c1.053.084 1.221.316 1.221 1.58v5.77c0 1.306-.147 1.5-1.137 1.6v.463a15.542 15.542 0 0 1 1.874-.126 15.542 15.542 0 0 1 1.872.127zm4.875 0v-.463c-1.264-.105-1.453-.274-1.453-1.6v-4.086c0-1.874.695-3.222 1.6-3.222a.505.505 0 0 1 .548.569c0 .168-.063.316-.063.548a.675.675 0 0 0 .737.695c.569 0 .779-.463.779-1.011a1.493 1.493 0 0 0 -1.623-1.539 2.315 2.315 0 0 0 -2.064 1.685v-1.6h-.211a17.9 17.9 0 0 1 -2.4.168v.442c1.053.084 1.221.316 1.221 1.58v5.77c0 1.306-.147 1.5-1.137 1.6v.463a15.542 15.542 0 0 1 1.874-.126h.126a18.636 18.636 0 0 1 2.068.127zm3.253.232.316-.99a2.7 2.7 0 0 0 2.127.927 2.872 2.872 0 0 0 2.885-2.864 2.833 2.833 0 0 0 -1.706-2.654l-1.369-.737c-.885-.484-1.411-.927-1.411-1.811a1.493 1.493 0 0 1 1.58-1.685c1.179 0 1.832 1.221 2.064 2.611h.4v-3.2h-.337l-.337.948a2.392 2.392 0 0 0 -1.874-.885 2.539 2.539 0 0 0 -2.566 2.632 2.685 2.685 0 0 0 1.706 2.7l1.158.632c.948.505 1.558 1.053 1.558 2.043a1.644 1.644 0 0 1 -1.811 1.748c-1.39 0-2.064-1.179-2.317-2.991h-.4v3.58zm9.445-.063a3.164 3.164 0 0 0 1.853-.569v-.632a1.88 1.88 0 0 1 -1.179.421c-.779 0-1.221-.358-1.221-1.832v-6.845h2.3v-.611h-2.3v-2.863h-.442c-.211 1.9-.821 2.8-2.506 3.012v.463h1.474v7.118c.001 1.6.738 2.338 2.022 2.338zm6.707-5.644v-.842h-4.232v.842zm4.9 5.644c1.62 0 2.65-1.311 2.82-3.517h-.527c-.126 1.853-.906 2.885-1.98 2.885-1.39 0-2.085-1.685-2.085-4.486 0-2.885.653-4.633 2-4.633 1.116 0 1.727.948 2.043 2.927h.4v-3.517h-.337l-.337.906a2.26 2.26 0 0 0 -1.748-.842c-1.938 0-3.58 1.938-3.58 5.16 0 2.821 1.18 5.117 3.328 5.117zm7.486-.168v-.463c-.99-.105-1.137-.295-1.137-1.6v-12.259h-.295a17.9 17.9 0 0 1 -2.4.168v.442c1.053.084 1.221.316 1.221 1.58v10.067c0 1.306-.147 1.5-1.137 1.6v.463a13.965 13.965 0 0 1 3.749 0zm3.4.168a2.431 2.431 0 0 0 2.314-1.711v.168c0 .99.463 1.453 1.243 1.453a4.688 4.688 0 0 0 1.158-.168v-.421c-.821 0-1.158-.232-1.158-1.221v-5.349a2.714 2.714 0 0 0 -2.78-3.033 2.667 2.667 0 0 0 -2.759 2.485c0 .548.295.737.653.737.4 0 .674-.168.674-.842 0-1.348.548-1.853 1.39-1.853s1.348.526 1.348 1.874v1.5c-.463.084-.948.232-1.327.337-2 .548-3.159 1.348-3.159 3.285-.001 1.621.837 2.759 2.4 2.759zm.527-.8c-.842 0-1.369-.716-1.369-2.043 0-1.243.295-2.3 1.769-2.717.379-.105.758-.211 1.158-.295v2.527c-.003 1.664-.74 2.527-1.561 2.527zm5.38.863.316-.99a2.7 2.7 0 0 0 2.127.927 2.872 2.872 0 0 0 2.884-2.865 2.833 2.833 0 0 0 -1.706-2.654l-1.369-.737c-.885-.484-1.411-.927-1.411-1.811a1.493 1.493 0 0 1 1.58-1.685c1.179 0 1.832 1.221 2.064 2.611h.4v-3.2h-.337l-.337.948a2.392 2.392 0 0 0 -1.874-.885 2.539 2.539 0 0 0 -2.569 2.632 2.685 2.685 0 0 0 1.706 2.7l1.158.632c.948.505 1.558 1.053 1.558 2.043a1.644 1.644 0 0 1 -1.811 1.748c-1.39 0-2.064-1.179-2.317-2.991h-.4v3.58zm6.938 0 .316-.99a2.7 2.7 0 0 0 2.127.927 2.872 2.872 0 0 0 2.885-2.864 2.833 2.833 0 0 0 -1.709-2.654l-1.369-.737c-.885-.484-1.411-.927-1.411-1.811a1.493 1.493 0 0 1 1.58-1.685c1.179 0 1.832 1.221 2.064 2.611h.4v-3.2h-.337l-.337.948a2.392 2.392 0 0 0 -1.874-.885 2.539 2.539 0 0 0 -2.569 2.632 2.685 2.685 0 0 0 1.706 2.7l1.158.632c.947.502 1.559 1.048 1.559 2.038a1.644 1.644 0 0 1 -1.811 1.748c-1.39 0-2.064-1.179-2.317-2.991h-.4v3.58zm13.435-.063c1.622 0 2.654-1.306 2.822-3.517h-.526c-.126 1.853-.906 2.885-1.98 2.885-1.39 0-2.085-1.685-2.085-4.486 0-2.885.653-4.633 2-4.633 1.116 0 1.727.948 2.043 2.927h.4v-3.517h-.34l-.337.906a2.26 2.26 0 0 0 -1.748-.842c-1.938 0-3.58 1.938-3.58 5.16 0 2.821 1.18 5.117 3.328 5.117zm7.549 0c1.98 0 3.58-1.916 3.58-5.139s-1.6-5.139-3.58-5.139-3.58 1.916-3.58 5.139 1.597 5.139 3.577 5.139zm0-.526c-1.411 0-2.022-1.643-2.022-4.612s.611-4.612 2.022-4.612 2.022 1.643 2.022 4.612-.617 4.611-2.025 4.611zm17.511.358v-.463c-.99-.105-1.137-.295-1.137-1.6v-5.033c0-1.874-.864-3.012-2.422-3.012a2.529 2.529 0 0 0 -2.338 1.643 2.206 2.206 0 0 0 -2.232-1.643 2.477 2.477 0 0 0 -2.232 1.474v-1.39h-.215a17.9 17.9 0 0 1 -2.4.168v.442c1.053.084 1.221.316 1.221 1.58v5.77c0 1.306-.147 1.5-1.137 1.6v.463a15.542 15.542 0 0 1 1.874-.126 14.258 14.258 0 0 1 1.79.126v-.463c-.927-.105-1.053-.274-1.053-1.6v-4.717c0-1.558.842-2.675 1.874-2.675.779 0 1.221.484 1.221 1.811v5.581c0 1.327-.126 1.5-1.053 1.6v.463a12.743 12.743 0 0 1 3.58 0v-.463c-.927-.105-1.053-.274-1.053-1.6v-4.717c0-1.558.842-2.675 1.874-2.675.779 0 1.221.484 1.221 1.811v5.581c0 1.327-.126 1.5-1.053 1.6v.463a14.257 14.257 0 0 1 1.79-.126 15.541 15.541 0 0 1 1.874.126zm4.811 0v-.463c-1.2-.105-1.39-.274-1.39-1.6v-7.224h2.359v-.611h-2.359v-2.085c0-1.306.253-1.98.927-1.98.506 0 .8.274.8 1.1 0 .442.147.758.611.758a.572.572 0 0 0 .632-.653 1.763 1.763 0 0 0 -1.937-1.706c-1.116 0-2.359.821-2.359 3.349 0 1.137-.189 1.243-1.643 1.327v.505h1.5v7.224c0 1.306-.147 1.5-1.137 1.6v.463a15.543 15.543 0 0 1 1.874-.126h.084a18.578 18.578 0 0 1 2.035.121zm4.832.168c1.98 0 3.58-1.916 3.58-5.139s-1.6-5.139-3.58-5.139-3.58 1.916-3.58 5.139 1.598 5.139 3.577 5.139zm0-.526c-1.411 0-2.022-1.643-2.022-4.612s.611-4.612 2.022-4.612 2.022 1.643 2.022 4.612-.614 4.611-2.025 4.611zm8.686.358v-.463c-1.264-.105-1.453-.274-1.453-1.6v-4.086c0-1.874.695-3.222 1.6-3.222a.505.505 0 0 1 .548.569c0 .168-.063.316-.063.548a.675.675 0 0 0 .737.695c.569 0 .779-.463.779-1.011a1.493 1.493 0 0 0 -1.622-1.537 2.315 2.315 0 0 0 -2.064 1.685v-1.6h-.211a17.9 17.9 0 0 1 -2.4.168v.442c1.053.084 1.222.316 1.222 1.58v5.77c0 1.306-.147 1.5-1.137 1.6v.463a15.541 15.541 0 0 1 1.874-.126h.126a18.634 18.634 0 0 1 2.062.124zm5.822.168a3.164 3.164 0 0 0 1.853-.569v-.632a1.88 1.88 0 0 1 -1.179.421c-.779 0-1.221-.358-1.221-1.832v-6.845h2.29v-.611h-2.3v-2.863h-.442c-.211 1.9-.821 2.8-2.506 3.012v.463h1.474v7.118c.007 1.6.744 2.338 2.029 2.338zm3.125 2.889a3.727 3.727 0 0 0 1.811-3.2c0-1.432-.674-1.811-1.243-1.811a1.012 1.012 0 0 0 -1.05 1.069 1.006 1.006 0 0 0 1.053 1.053 1.1 1.1 0 0 0 .695-.232v.042a3.3 3.3 0 0 1 -1.516 2.7zm7.18-2.822.316-.99a2.7 2.7 0 0 0 2.122.923 2.871 2.871 0 0 0 2.885-2.864 2.833 2.833 0 0 0 -1.706-2.654l-1.369-.737c-.885-.484-1.411-.927-1.411-1.811a1.493 1.493 0 0 1 1.579-1.685c1.179 0 1.832 1.221 2.064 2.611h.4v-3.2h-.337l-.337.948a2.392 2.392 0 0 0 -1.874-.885 2.539 2.539 0 0 0 -2.569 2.632 2.685 2.685 0 0 0 1.706 2.7l1.158.632c.948.505 1.558 1.053 1.558 2.043a1.644 1.644 0 0 1 -1.811 1.748c-1.39 0-2.064-1.179-2.317-2.991h-.4v3.58zm8.918-.063a2.431 2.431 0 0 0 2.32-1.715v.168c0 .99.463 1.453 1.243 1.453a4.687 4.687 0 0 0 1.158-.168v-.421c-.821 0-1.158-.232-1.158-1.221v-5.349a2.714 2.714 0 0 0 -2.78-3.033 2.667 2.667 0 0 0 -2.759 2.485c0 .548.295.737.653.737.4 0 .674-.168.674-.842 0-1.348.548-1.853 1.39-1.853s1.348.526 1.348 1.874v1.5c-.463.084-.948.232-1.327.337-2 .548-3.159 1.348-3.159 3.285-.004 1.621.838 2.759 2.397 2.759zm.526-.8c-.842 0-1.369-.716-1.369-2.043 0-1.243.295-2.3 1.769-2.717.379-.105.758-.211 1.158-.295v2.527c.001 1.66-.737 2.523-1.558 2.523zm8.876.632v-.463c-1.2-.105-1.39-.274-1.39-1.6v-7.224h2.359v-.611h-2.359v-2.085c0-1.306.253-1.98.927-1.98.506 0 .8.274.8 1.1 0 .442.147.758.611.758a.572.572 0 0 0 .632-.653 1.763 1.763 0 0 0 -1.937-1.706c-1.116 0-2.359.821-2.359 3.349 0 1.137-.189 1.243-1.643 1.327v.505h1.5v7.224c0 1.306-.147 1.5-1.137 1.6v.463a15.543 15.543 0 0 1 1.874-.126h.084a18.578 18.578 0 0 1 2.038.117zm4.811.168c1.748 0 2.948-1.306 3.1-3.517h-.527c-.126 1.832-1.1 2.885-2.317 2.885-1.559 0-2.232-1.5-2.232-4.486v-.297h5.076v-.19c0-2.927-1.39-4.675-3.2-4.675-1.853 0-3.433 1.938-3.433 5.16-.004 2.841 1.112 5.116 3.533 5.116zm1.622-5.939h-3.58c.105-2.4.695-3.812 1.811-3.812 1.179-.004 1.769 1.512 1.769 3.808zm5.57 5.939a3.164 3.164 0 0 0 1.853-.569v-.636a1.88 1.88 0 0 1 -1.179.421c-.779 0-1.221-.358-1.221-1.832v-6.845h2.3v-.611h-2.3v-2.863h-.442c-.211 1.9-.821 2.8-2.506 3.012v.463h1.474v7.118c-.001 1.6.736 2.338 2.021 2.338zm3.548 3.517c.927 0 1.474-.421 2.064-2.064l3.517-9.9c.337-.948.4-1.074 1.221-1.221v-.463a6.24 6.24 0 0 1 -1.285.126 7.479 7.479 0 0 1 -1.39-.126v.463c.948.147 1.179.274.842 1.221l-1.9 5.433-1.9-5.476c-.337-.969-.232-1.074.842-1.179v-.463a15.367 15.367 0 0 1 -1.959.126 12.484 12.484 0 0 1 -1.769-.126v.463c.463.042.927.126 1.327 1.221l2.717 7.5-.842 2.4c-.463 1.285-.863 1.39-1.116 1.39-.4 0-.59-.168-.632-.632-.063-.611-.358-.821-.737-.821-.505 0-.716.316-.716.779.01.755.663 1.345 1.715 1.345zm12.845-3.517a2.431 2.431 0 0 0 2.316-1.715v.168c0 .99.463 1.453 1.242 1.453a4.687 4.687 0 0 0 1.158-.168v-.421c-.821 0-1.158-.232-1.158-1.221v-5.349a2.714 2.714 0 0 0 -2.78-3.033 2.667 2.667 0 0 0 -2.759 2.485c0 .548.295.737.653.737.4 0 .674-.168.674-.842 0-1.348.548-1.853 1.39-1.853s1.348.526 1.348 1.874v1.5c-.463.084-.948.232-1.327.337-2 .548-3.159 1.348-3.159 3.285.001 1.621.843 2.759 2.401 2.759zm.527-.8c-.842 0-1.369-.716-1.369-2.043 0-1.243.295-2.3 1.769-2.717.379-.105.758-.211 1.158-.295v2.527c-.001 1.66-.738 2.523-1.563 2.523zm13.277.632v-.463c-.99-.105-1.137-.295-1.137-1.6v-5.033c0-1.874-.885-3.012-2.464-3.012a2.646 2.646 0 0 0 -2.38 1.516v-1.432h-.211a17.9 17.9 0 0 1 -2.4.168v.442c1.053.084 1.221.316 1.221 1.58v5.77c0 1.306-.147 1.5-1.137 1.6v.463a15.542 15.542 0 0 1 1.874-.126 14.258 14.258 0 0 1 1.79.126v-.463c-.927-.105-1.053-.274-1.053-1.6v-4.717c0-1.558.906-2.675 2-2.675.821 0 1.285.484 1.285 1.811v5.581c0 1.327-.126 1.5-1.053 1.6v.463a14.258 14.258 0 0 1 1.79-.126 15.542 15.542 0 0 1 1.874.122zm4.159.168a2.469 2.469 0 0 0 2.211-1.727v1.6h.189a17.9 17.9 0 0 1 2.4-.168v-.442c-1.053-.084-1.221-.316-1.221-1.579v-12.178h-.295a17.9 17.9 0 0 1 -2.4.168v.442c1.053.084 1.221.316 1.221 1.58v3.412a2.206 2.206 0 0 0 -2.022-1.39c-1.727 0-3.391 1.959-3.391 5.118.001 3.138 1.306 5.16 3.307 5.16zm.232-.632c-1.369 0-1.98-1.853-1.98-4.549 0-2.906.59-4.57 1.916-4.57 1.2 0 2 1.6 2 4.57 0 3.113-.8 4.545-1.937 4.545zm12.55.463v-.463c-.99-.105-1.137-.295-1.137-1.6v-12.262h-.295a17.9 17.9 0 0 1 -2.4.168v.442c1.053.084 1.221.316 1.221 1.58v10.067c0 1.306-.147 1.5-1.137 1.6v.463a13.965 13.965 0 0 1 3.749 0zm4.222.168a2.6 2.6 0 0 0 2.4-1.706v1.579h.211a17.9 17.9 0 0 1 2.4-.168v-.442c-1.053-.084-1.222-.316-1.222-1.579v-7.876h-.295a18.93 18.93 0 0 1 -2.485.168v.442c1.116.084 1.306.316 1.306 1.58v4.675c0 1.432-.842 2.443-1.916 2.443-.863 0-1.369-.548-1.369-2v-7.308h-.295a17.9 17.9 0 0 1 -2.4.168v.442c1.053.084 1.221.316 1.221 1.58v5.181c-.001 1.786.821 2.818 2.443 2.818zm13.425-.168v-.463c-.569-.084-.99-.168-1.6-1.39l-1.916-3.77 1.242-2.317c.758-1.39 1.137-1.453 1.959-1.558v-.463a7.837 7.837 0 0 1 -1.348.126 10.557 10.557 0 0 1 -1.559-.126v.463c1.1.084 1.1.19.358 1.558l-.99 1.832-.99-1.98c-.611-1.2-.632-1.306.295-1.411v-.463a12.779 12.779 0 0 1 -1.706.126 13.684 13.684 0 0 1 -1.769-.126v.463c.674.084.969.168 1.6 1.39l1.706 3.37-1.5 2.717c-.695 1.285-.948 1.432-1.811 1.558v.463a6.976 6.976 0 0 1 1.285-.126 9.5 9.5 0 0 1 1.474.126v-.463c-1.011-.126-1.116-.19-.358-1.558l1.242-2.253 1.2 2.4c.59 1.2.611 1.327-.274 1.411v.463a15.542 15.542 0 0 1 1.874-.126 10.392 10.392 0 0 1 1.585.123zm3.822.168a2.6 2.6 0 0 0 2.4-1.706v1.579h.211a17.9 17.9 0 0 1 2.4-.168v-.442c-1.053-.084-1.221-.316-1.221-1.579v-7.876h-.295a18.93 18.93 0 0 1 -2.485.168v.442c1.116.084 1.306.316 1.306 1.58v4.675c0 1.432-.842 2.443-1.917 2.443-.863 0-1.369-.548-1.369-2v-7.308h-.295a17.9 17.9 0 0 1 -2.4.168v.442c1.053.084 1.221.316 1.221 1.58v5.181c-.001 1.786.82 2.818 2.442 2.818zm9.824-.168v-.463c-1.264-.105-1.453-.274-1.453-1.6v-4.086c0-1.874.7-3.222 1.6-3.222a.505.505 0 0 1 .548.569c0 .168-.063.316-.063.548a.675.675 0 0 0 .737.695c.569 0 .779-.463.779-1.011a1.493 1.493 0 0 0 -1.622-1.537 2.315 2.315 0 0 0 -2.064 1.685v-1.6h-.211a17.9 17.9 0 0 1 -2.4.168v.442c1.053.084 1.221.316 1.221 1.58v5.77c0 1.306-.147 1.5-1.137 1.6v.463a15.542 15.542 0 0 1 1.874-.126h.126a18.637 18.637 0 0 1 2.063.121zm3.822 3.686c.927 0 1.474-.421 2.064-2.064l3.517-9.9c.337-.948.4-1.074 1.221-1.221v-.463a6.24 6.24 0 0 1 -1.285.126 7.48 7.48 0 0 1 -1.39-.126v.463c.948.147 1.179.274.842 1.221l-1.897 5.432-1.9-5.476c-.337-.969-.232-1.074.842-1.179v-.463a15.365 15.365 0 0 1 -1.959.126 12.484 12.484 0 0 1 -1.769-.126v.463c.463.042.927.126 1.327 1.221l2.717 7.5-.842 2.4c-.463 1.285-.863 1.39-1.116 1.39-.4 0-.59-.168-.632-.632-.063-.611-.358-.821-.737-.821-.505 0-.716.316-.716.779.005.756.657 1.346 1.71 1.346zm7.254-3.517a1.023 1.023 0 0 0 1.053-1.074 1.023 1.023 0 0 0 -1.053-1.074 1.023 1.023 0 0 0 -1.053 1.074 1.023 1.023 0 0 0 1.051 1.07z"/></clipPath><clipPath id="b"><path d="m-54 14h728v-90h-728z"/></clipPath><g clip-path="url(#a)" transform="translate(-.035 18.426)"><g clip-path="url(#b)"><path d="m-4.965-23.426h269.408v28.154h-269.408z" fill="#fff"/></g></g></svg>