<svg height="14.553" viewBox="0 0 165.106 14.553" width="165.106" xmlns="http://www.w3.org/2000/svg" xmlns:xlink="http://www.w3.org/1999/xlink"><clipPath id="a"><path d="m4.772-.578c1.981 0 3.544-1.459 3.711-4.941h-.542c-.167 3.064-1.46 4.211-2.857 4.211-2.252 0-3.294-2.21-3.294-6.442 0-4.149.98-6.63 3.044-6.63 1.626 0 2.564 1.168 3.044 3.836h.375v-4.378h-.291l-.462 1.333a3.226 3.226 0 0 0 -2.669-1.334c-2.603 0-4.731 2.502-4.731 7.172s2.024 7.173 4.672 7.173zm7.589 0a2.407 2.407 0 0 0 2.293-1.689v.167c0 .98.459 1.439 1.23 1.439a4.641 4.641 0 0 0 1.147-.167v-.417c-.813 0-1.147-.229-1.147-1.209v-5.3a2.687 2.687 0 0 0 -2.752-3 2.64 2.64 0 0 0 -2.732 2.461c0 .542.292.73.646.73.4 0 .667-.167.667-.834 0-1.334.542-1.835 1.376-1.835s1.334.521 1.334 1.856v1.476c-.459.083-.938.229-1.314.334-1.978.546-3.125 1.338-3.125 3.256 0 1.61.834 2.732 2.377 2.732zm.521-.792c-.834 0-1.355-.709-1.355-2.022 0-1.23.292-2.273 1.751-2.69.375-.1.751-.208 1.147-.292v2.5c0 1.648-.725 2.503-1.543 2.503zm8.986.625v-.455c-1.251-.1-1.439-.271-1.439-1.585v-4.048c0-1.856.688-3.19 1.585-3.19a.5.5 0 0 1 .542.563c0 .167-.063.313-.063.542a.668.668 0 0 0 .73.688c.563 0 .771-.459.771-1a1.478 1.478 0 0 0 -1.605-1.522 2.292 2.292 0 0 0 -2.043 1.668v-1.586h-.208a17.718 17.718 0 0 1 -2.377.167v.438c1.042.083 1.209.313 1.209 1.564v5.713c0 1.293-.146 1.48-1.126 1.585v.459a15.387 15.387 0 0 1 1.856-.126h.125a18.45 18.45 0 0 1 2.043.125zm6.588.167c1.73 0 2.919-1.293 3.065-3.482h-.521c-.125 1.814-1.084 2.86-2.293 2.86-1.543 0-2.21-1.48-2.21-4.441v-.292h5.025v-.188c0-2.9-1.376-4.629-3.169-4.629-1.835 0-3.4 1.918-3.4 5.108.001 2.812 1.106 5.064 3.504 5.064zm1.605-5.88h-3.543c.1-2.377.688-3.774 1.793-3.774 1.167 0 1.751 1.501 1.751 3.774zm3.358 5.942.313-.98a2.671 2.671 0 0 0 2.106.917 2.843 2.843 0 0 0 2.856-2.836 2.8 2.8 0 0 0 -1.694-2.626l-1.355-.73c-.876-.48-1.4-.917-1.4-1.793a1.478 1.478 0 0 1 1.564-1.668c1.168 0 1.814 1.209 2.043 2.585h.4v-3.169h-.334l-.334.938a2.368 2.368 0 0 0 -1.856-.876 2.514 2.514 0 0 0 -2.544 2.606 2.658 2.658 0 0 0 1.689 2.669l1.147.625c.938.5 1.543 1.042 1.543 2.022a1.628 1.628 0 0 1 -1.788 1.732c-1.376 0-2.043-1.168-2.293-2.961h-.4v3.545zm14.407-.229v-.455c-1.188-.1-1.376-.271-1.376-1.585v-7.155h2.335v-.6h-2.335v-2.064c0-1.293.25-1.96.917-1.96.5 0 .792.271.792 1.084 0 .438.146.751.6.751a.566.566 0 0 0 .625-.646 1.746 1.746 0 0 0 -1.918-1.689c-1.105 0-2.335.813-2.335 3.315 0 1.126-.188 1.23-1.626 1.314v.5h1.48v7.151c0 1.293-.146 1.48-1.126 1.585v.459a15.387 15.387 0 0 1 1.861-.13h.08a18.394 18.394 0 0 1 2.026.125zm5.463.167c1.96 0 3.544-1.9 3.544-5.087s-1.585-5.087-3.544-5.087-3.544 1.9-3.544 5.087 1.583 5.087 3.543 5.087zm0-.521c-1.4 0-2-1.626-2-4.566s.6-4.566 2-4.566 2 1.626 2 4.566-.604 4.565-2.001 4.565zm8.84.354v-.455c-1.251-.1-1.439-.271-1.439-1.585v-4.048c0-1.856.688-3.19 1.585-3.19a.5.5 0 0 1 .542.563c0 .167-.063.313-.063.542a.668.668 0 0 0 .73.688c.563 0 .771-.459.771-1a1.478 1.478 0 0 0 -1.605-1.522 2.292 2.292 0 0 0 -2.043 1.668v-1.586h-.207a17.718 17.718 0 0 1 -2.377.167v.438c1.042.083 1.209.313 1.209 1.564v5.713c0 1.293-.146 1.48-1.126 1.585v.459a15.387 15.387 0 0 1 1.854-.126h.125a18.45 18.45 0 0 1 2.043.125zm9.778.167 2.335-7.568 2.564 7.568h.294l1.981-8.361c.229-.959.4-1.063 1.209-1.209v-.459a4.835 4.835 0 0 1 -1.23.125 8.7 8.7 0 0 1 -1.459-.125v.459c.938.146 1.126.271.917 1.209l-1.211 5.462-2.564-7.276h-.293l-2.168 7.235-1.334-5.463c-.229-.938-.188-1.063.876-1.168v-.459a12.73 12.73 0 0 1 -1.856.125 11.413 11.413 0 0 1 -1.689-.125v.459c.438.042.959.1 1.23 1.209l2.106 8.362zm17.263-.167v-.455c-.937-.1-1.112-.276-1.125-1.422v-5.15c0-1.856-.876-2.981-2.439-2.981a2.582 2.582 0 0 0 -2.274 1.353v-5.525h-.292a17.718 17.718 0 0 1 -2.377.167v.438c1.042.083 1.209.313 1.209 1.564v9.966c0 1.293-.146 1.48-1.126 1.585v.459a15.387 15.387 0 0 1 1.854-.124 14.116 14.116 0 0 1 1.772.125v-.455c-.876-.1-1.029-.256-1.042-1.412v-4.847c0-1.543.9-2.648 1.981-2.648.813 0 1.272.48 1.272 1.793v5.525c0 1.314-.125 1.48-1.042 1.585v.459a14.116 14.116 0 0 1 1.773-.125 15.387 15.387 0 0 1 1.856.125zm3.5.167a2.407 2.407 0 0 0 2.293-1.689v.167c0 .98.459 1.439 1.23 1.439a4.641 4.641 0 0 0 1.147-.167v-.417c-.813 0-1.147-.229-1.147-1.209v-5.3a2.687 2.687 0 0 0 -2.752-3 2.64 2.64 0 0 0 -2.731 2.46c0 .542.292.73.646.73.4 0 .667-.167.667-.834 0-1.334.542-1.835 1.376-1.835s1.334.521 1.334 1.856v1.477c-.459.083-.938.229-1.314.334-1.976.546-3.119 1.338-3.119 3.256 0 1.61.83 2.732 2.373 2.732zm.521-.792c-.834 0-1.355-.709-1.355-2.022 0-1.23.292-2.273 1.751-2.69.375-.1.751-.208 1.147-.292v2.5c.003 1.648-.727 2.503-1.54 2.503zm8.048.792a3.132 3.132 0 0 0 1.835-.563v-.625a1.861 1.861 0 0 1 -1.168.417c-.771 0-1.209-.354-1.209-1.814v-6.777h2.273v-.6h-2.27v-2.84h-.438c-.209 1.876-.813 2.773-2.481 2.981v.459h1.459v7.047c0 1.585.73 2.315 2.002 2.315zm19.2-.167v-.455c-.98-.1-1.126-.292-1.126-1.585v-4.987c0-1.856-.855-2.981-2.4-2.981a2.5 2.5 0 0 0 -2.314 1.626 2.184 2.184 0 0 0 -2.21-1.626 2.452 2.452 0 0 0 -2.21 1.459v-1.376h-.209a17.719 17.719 0 0 1 -2.377.167v.438c1.043.083 1.209.313 1.209 1.564v5.713c0 1.293-.146 1.48-1.126 1.585v.459a15.388 15.388 0 0 1 1.864-.126 14.116 14.116 0 0 1 1.772.125v-.455c-.917-.1-1.042-.271-1.042-1.585v-4.67c0-1.543.834-2.648 1.856-2.648.771 0 1.209.48 1.209 1.793v5.525c0 1.314-.125 1.48-1.042 1.585v.459a12.616 12.616 0 0 1 3.544 0v-.459c-.917-.1-1.042-.271-1.042-1.585v-4.67c0-1.543.834-2.648 1.856-2.648.771 0 1.209.48 1.209 1.793v5.525c0 1.314-.125 1.48-1.042 1.585v.459a14.115 14.115 0 0 1 1.772-.125 15.388 15.388 0 0 1 1.854.121zm3.5.167a2.407 2.407 0 0 0 2.293-1.689v.167c0 .98.459 1.439 1.23 1.439a4.641 4.641 0 0 0 1.147-.167v-.417c-.813 0-1.147-.229-1.147-1.209v-5.3a2.687 2.687 0 0 0 -2.752-3 2.64 2.64 0 0 0 -2.731 2.46c0 .542.292.73.646.73.4 0 .667-.167.667-.834 0-1.334.542-1.835 1.376-1.835s1.334.521 1.334 1.856v1.477c-.459.083-.938.229-1.314.334-1.981.542-3.127 1.334-3.127 3.253.009 1.613.839 2.735 2.386 2.735zm.521-.792c-.834 0-1.355-.709-1.355-2.022 0-1.23.292-2.273 1.751-2.69.375-.1.751-.208 1.147-.292v2.5c.008 1.648-.722 2.503-1.535 2.503zm8.048.792a3.132 3.132 0 0 0 1.835-.563v-.625a1.861 1.861 0 0 1 -1.168.417c-.771 0-1.209-.354-1.209-1.814v-6.777h2.273v-.6h-2.273v-2.84h-.438c-.209 1.876-.813 2.773-2.481 2.981v.459h1.459v7.047c.008 1.585.738 2.315 2.01 2.315zm5.692 0a3.132 3.132 0 0 0 1.835-.563v-.625a1.861 1.861 0 0 1 -1.168.417c-.771 0-1.209-.354-1.209-1.814v-6.777h2.273v-.6h-2.273v-2.84h-.438c-.208 1.876-.813 2.773-2.481 2.981v.459h1.46v7.047c.007 1.585.737 2.315 2.009 2.315zm6.276 0c1.73 0 2.919-1.293 3.065-3.482h-.521c-.12 1.814-1.077 2.86-2.286 2.86-1.543 0-2.21-1.48-2.21-4.441v-.292h5.025v-.188c0-2.9-1.376-4.629-3.169-4.629-1.835 0-3.4 1.918-3.4 5.108.001 2.812 1.106 5.064 3.503 5.064zm1.605-5.88h-3.544c.1-2.377.688-3.774 1.793-3.774 1.175 0 1.759 1.501 1.759 3.774zm6.776 5.713v-.455c-1.251-.1-1.439-.271-1.439-1.585v-4.048c0-1.856.688-3.19 1.585-3.19a.5.5 0 0 1 .542.563c0 .167-.062.313-.062.542a.668.668 0 0 0 .73.688c.563 0 .771-.459.771-1a1.478 1.478 0 0 0 -1.605-1.522 2.292 2.292 0 0 0 -2.043 1.668v-1.586h-.208a17.718 17.718 0 0 1 -2.377.167v.438c1.042.083 1.209.313 1.209 1.564v5.713c0 1.293-.146 1.48-1.126 1.585v.459a15.388 15.388 0 0 1 1.866-.126h.125a18.451 18.451 0 0 1 2.04.125zm3.523.229.313-.98a2.671 2.671 0 0 0 2.106.917 2.843 2.843 0 0 0 2.856-2.836 2.8 2.8 0 0 0 -1.689-2.627l-1.355-.73c-.876-.48-1.4-.917-1.4-1.793a1.478 1.478 0 0 1 1.564-1.668c1.168 0 1.814 1.209 2.043 2.585h.4v-3.169h-.334l-.334.938a2.368 2.368 0 0 0 -1.856-.876 2.514 2.514 0 0 0 -2.544 2.606 2.658 2.658 0 0 0 1.689 2.669l1.147.625c.938.5 1.543 1.042 1.543 2.022a1.628 1.628 0 0 1 -1.793 1.73c-1.376 0-2.043-1.168-2.293-2.961h-.4v3.548zm7.777-.063a1.013 1.013 0 0 0 1.042-1.063 1.013 1.013 0 0 0 -1.042-1.063 1.013 1.013 0 0 0 -1.042 1.063 1.013 1.013 0 0 0 1.05 1.064z"/></clipPath><clipPath id="b"><path d="m-54 19h728v-90h-728z"/></clipPath><g clip-path="url(#a)" transform="translate(-.101 15.069)"><g clip-path="url(#b)"><path d="m-4.9-20.069h175.108v24.553h-175.108z" fill="#fff"/></g></g></svg>