<svg xmlns="http://www.w3.org/2000/svg" xmlns:xlink="http://www.w3.org/1999/xlink" width="103.904" height="27" viewBox="0 0 103.904 27">
  <defs>
    <clipPath id="clip-path">
      <path id="Path_2" data-name="Path 2" d="M0,0H103.9V-27H0Z" fill="none"/>
    </clipPath>
    <clipPath id="clip-path-2">
      <path id="Path_5" data-name="Path 5" d="M11.481-9.881a2.391,2.391,0,0,0,2.43-2.484h-.594c-.14,1.264-.8,1.933-1.868,1.933-1.382,0-2.225-1.21-2.225-3.175,0-1.944.853-3.164,2.2-3.164a1.655,1.655,0,0,1,1.76,1.447h.6a2.225,2.225,0,0,0-2.354-2c-1.75,0-2.884,1.469-2.884,3.737S9.677-9.881,11.481-9.881Zm5.627.011c1.274,0,2.138-1.08,2.138-2.678s-.864-2.7-2.138-2.7-2.138,1.091-2.138,2.657C14.969-10.95,15.812-9.87,17.108-9.87Zm0-.508c-.94,0-1.555-.864-1.555-2.2,0-1.274.637-2.16,1.555-2.16s1.555.886,1.555,2.192S18.037-10.378,17.108-10.378ZM21.136-10v-2.938a2,2,0,0,1,.292-1.177,1.44,1.44,0,0,1,1.2-.626.959.959,0,0,1,.95.529,2.248,2.248,0,0,1,.14,1.068V-10h.562v-2.927a3.541,3.541,0,0,0-.13-1.458,1.441,1.441,0,0,0-1.48-.864,1.676,1.676,0,0,0-1.566.907,2.133,2.133,0,0,0-.1-.767h-.551a3.5,3.5,0,0,1,.118,1.16v.341q0,.1,0,.2V-10ZM26.6-10v-4.644h1.264v-.464h-1.3v-.421a2.717,2.717,0,0,1,.076-.842.679.679,0,0,1,.68-.443,1.2,1.2,0,0,1,.648.194v-.572a2.1,2.1,0,0,0-.691-.13,1.225,1.225,0,0,0-1.123.616,2.468,2.468,0,0,0-.173,1.264v.335h-.734v.464h.734V-10Zm2.484-6.34a.463.463,0,0,0,.475-.464.468.468,0,0,0-.475-.486.475.475,0,0,0-.475.486A.457.457,0,0,0,29.085-16.34ZM29.4-10v-5.108h-.616V-10Zm3.38,2.214c1.382,0,2.246-.594,2.246-1.544a1.267,1.267,0,0,0-.691-1.166,3.75,3.75,0,0,0-1.62-.335c-.864-.086-.994-.13-.994-.346,0-.259.292-.421,1.069-.626a2.759,2.759,0,0,0,1.22-.486,1.456,1.456,0,0,0,.464-1.145,1.616,1.616,0,0,0-.508-1.253l1.048.032v-.454l-1.512.054a2.923,2.923,0,0,0-.734-.1,1.662,1.662,0,0,0-1.8,1.717,1.438,1.438,0,0,0,1.069,1.48c-.67.259-.918.475-.918.832,0,.27.162.443.54.583-.756.27-1.091.659-1.091,1.274C30.565-8.369,31.439-7.786,32.779-7.786ZM32.735-12.3a1.1,1.1,0,0,1-1.177-1.145,1.168,1.168,0,0,1,1.21-1.231,1.144,1.144,0,0,1,1.123,1.231A1.08,1.08,0,0,1,32.735-12.3Zm.043,4c-1.015,0-1.674-.389-1.674-.983s.616-.961,1.674-.961c1.1,0,1.685.335,1.685.961C34.463-8.682,33.826-8.3,32.779-8.3ZM37.714-9.87a1.334,1.334,0,0,0,1.35-.853,2.168,2.168,0,0,0,.108.724h.572a2.516,2.516,0,0,1-.118-1.033v-4.075h-.562v2.938a2.028,2.028,0,0,1-.248,1.188,1.227,1.227,0,0,1-1.091.6,1.07,1.07,0,0,1-.94-.454,1.987,1.987,0,0,1-.173-1.091v-3.186h-.562v3.164a2.5,2.5,0,0,0,.194,1.3A1.619,1.619,0,0,0,37.714-9.87ZM41.807-10v-2.257a3.7,3.7,0,0,1,.248-1.588,1.271,1.271,0,0,1,1.026-.853,1.51,1.51,0,0,1,.659.184v-.562a1.588,1.588,0,0,0-.68-.173c-.551,0-.95.378-1.3,1.242.011-.14.011-.248.011-.324a3.985,3.985,0,0,0-.086-.778h-.529c.013.112.024.207.033.3l.016.174c.02.26.026.537.027,1.141V-10Zm4.644.13a1.79,1.79,0,0,0,1.8-1.253l-.551-.1a1.275,1.275,0,0,1-1.253.842c-.983,0-1.523-.734-1.555-2.117h3.488v-.194c0-1.555-.778-2.56-1.987-2.56-1.274,0-2.1,1.08-2.1,2.754C44.3-10.864,45.123-9.87,46.451-9.87Zm1.328-3.089H44.907c.13-1.134.659-1.782,1.469-1.782S47.715-14.082,47.78-12.959Zm6.739,3.078a2.044,2.044,0,0,0,2.268-2,1.905,1.905,0,0,0-.41-1.21,4.032,4.032,0,0,0-1.523-.972,6.308,6.308,0,0,1-1.307-.67,1.033,1.033,0,0,1-.454-.842,1.274,1.274,0,0,1,1.4-1.2,1.353,1.353,0,0,1,1.469,1.35h.6a1.861,1.861,0,0,0-2.03-1.9,1.881,1.881,0,0,0-2.074,1.793,1.617,1.617,0,0,0,.724,1.361,10.01,10.01,0,0,0,1.458.756,3.6,3.6,0,0,1,1.08.626,1.266,1.266,0,0,1,.41.95,1.455,1.455,0,0,1-1.6,1.4,1.576,1.576,0,0,1-1.7-1.674h-.616a2.326,2.326,0,0,0,.486,1.48A2.228,2.228,0,0,0,54.519-9.881Zm5.951-2.6v-.464H57.457v.464Zm3.542,2.6a2.391,2.391,0,0,0,2.43-2.484h-.594c-.14,1.264-.8,1.933-1.868,1.933-1.382,0-2.225-1.21-2.225-3.175,0-1.944.853-3.164,2.2-3.164a1.655,1.655,0,0,1,1.76,1.447h.6a2.225,2.225,0,0,0-2.354-2c-1.75,0-2.884,1.469-2.884,3.737S62.209-9.881,64.012-9.881ZM68.4-10v-7.225h-.616V-10Zm2.938.13a1.586,1.586,0,0,0,1.512-.853,3.22,3.22,0,0,0,.13.724h.562a3.32,3.32,0,0,1-.129-1.234v-2.049a3.455,3.455,0,0,0-.1-1.1,1.541,1.541,0,0,0-1.588-.864c-1.08,0-1.717.5-1.814,1.415h.583c.108-.616.508-.907,1.22-.907.821,0,1.134.313,1.134,1.145v.27c-2.29.346-3.11.875-3.11,1.987A1.449,1.449,0,0,0,71.335-9.87Zm.054-.508a.966.966,0,0,1-1.058-.972c0-.767.648-1.166,2.516-1.534v.583a2.406,2.406,0,0,1-.248,1.274A1.374,1.374,0,0,1,71.389-10.378Zm5.141.508A1.565,1.565,0,0,0,78.3-11.436a1.285,1.285,0,0,0-.313-.907,2.735,2.735,0,0,0-1.361-.626c-.94-.281-1.177-.464-1.177-.918,0-.508.432-.853,1.069-.853a.989.989,0,0,1,1.123.994h.551a1.466,1.466,0,0,0-1.663-1.5c-.983,0-1.663.562-1.663,1.382,0,.7.367,1.091,1.35,1.393A6.337,6.337,0,0,1,77.3-12.1l.06.038.031.021a.787.787,0,0,1,.313.67c0,.594-.464.994-1.177.994a1.144,1.144,0,0,1-1.274-1.156H74.7C74.7-10.464,75.352-9.87,76.529-9.87Zm4.568,0a1.565,1.565,0,0,0,1.771-1.566,1.285,1.285,0,0,0-.313-.907,2.735,2.735,0,0,0-1.361-.626c-.94-.281-1.177-.464-1.177-.918,0-.508.432-.853,1.069-.853a.989.989,0,0,1,1.123.994h.551a1.466,1.466,0,0,0-1.663-1.5c-.983,0-1.663.562-1.663,1.382,0,.7.367,1.091,1.35,1.393a6.337,6.337,0,0,1,1.086.373l.06.038.031.021a.787.787,0,0,1,.313.67c0,.594-.464.994-1.177.994a1.144,1.144,0,0,1-1.274-1.156h-.551C79.273-10.464,79.921-9.87,81.1-9.87Z" fill="none"/>
    </clipPath>
    <clipPath id="clip-path-3">
      <path id="Path_4" data-name="Path 4" d="M-611,22H117V-68H-611Z" fill="none"/>
    </clipPath>
  </defs>
  <g id="Group_7" data-name="Group 7" transform="translate(0 27)">
    <g id="Group_2" data-name="Group 2" clip-path="url(#clip-path)">
      <g id="Group_1" data-name="Group 1" transform="translate(0 -27)">
        <path id="Path_1" data-name="Path 1" d="M0,0H103.9V27H0Z" fill="none"/>
      </g>
    </g>
    <g id="Group_4" data-name="Group 4" clip-path="url(#clip-path-2)">
      <g id="Group_3" data-name="Group 3" clip-path="url(#clip-path-3)">
        <path id="Path_3" data-name="Path 3" d="M7.554-18.322H83.869V-6.786H7.554Z" fill="#fff"/>
      </g>
    </g>
  </g>
</svg>
