<?xml version="1.0" encoding="utf-8"?>
<!-- Generator: Adobe Illustrator 27.3.0, SVG Export Plug-In . SVG Version: 6.00 Build 0)  -->
<svg version="1.1" id="Layer_1" xmlns="http://www.w3.org/2000/svg" xmlns:xlink="http://www.w3.org/1999/xlink" x="0px" y="0px"
	 viewBox="0 0 914 935.4" style="enable-background:new 0 0 914 935.4;" xml:space="preserve">
<style type="text/css">
	.st0{fill:#FFFFFF;}
</style>
<path class="st0" d="M457,894.1C220,894.1,27.3,701.4,27.3,464.4S220,34.7,457,34.7s429.7,192.8,429.7,429.7S693.9,894.1,457,894.1z
	 M457,69.4c-217.8,0-395,177.2-395,395s177.2,395,395,395s395-177.2,395-395S674.8,69.4,457,69.4z"/>
<path class="st0" d="M405.7,659.2c-7,0-13.9-2.7-19.2-8c-10.6-10.6-10.6-27.9,0-38.5l170.2-170.2L386.4,272.4
	c-10.6-10.6-10.6-27.9,0-38.5c10.6-10.6,27.9-10.6,38.5,0l189.4,189.4c10.6,10.6,10.6,27.9,0,38.5L424.9,651.2
	C419.6,656.5,412.6,659.2,405.7,659.2z"/>
</svg>
