<?xml version="1.0" encoding="utf-8"?>
<!-- Generator: Adobe Illustrator 27.3.0, SVG Export Plug-In . SVG Version: 6.00 Build 0)  -->
<svg version="1.1" id="Layer_1" xmlns="http://www.w3.org/2000/svg" xmlns:xlink="http://www.w3.org/1999/xlink" x="0px" y="0px"
	 viewBox="0 0 187.1 33.4" style="enable-background:new 0 0 187.1 33.4;" xml:space="preserve">
<style type="text/css">
	.st0{fill-rule:evenodd;clip-rule:evenodd;fill:#FFFFFF;}
</style>
<path class="st0" d="M14.2,12.1c-0.7,0.9-1.6,2-1.6,3.6c0,3,1.7,5.3,4.8,5.3c4.1,0,4.9-4.2,4.9-6.2c0-0.2,0-0.4,0-0.7l0,0
	c1.1-0.2,2.2-0.6,3.2-1.3l0,0c0,2,0.1,3.9,0.1,4.8c0,2.8,0.2,3.1,1,3.1c0.9,0,1.4-1.9,2.3-3.7c1-2.2,2.1-4.5,2.7-4.5
	c1.2,0-1,8.2,2,8.2c2.1,0,5.2-8.3,6.5-8.3c1,0-1.1,8.3,1.2,8.3c1.7,0,4.6-8.5,5.6-8.5s-1.1,8.5,1.9,8.5c2.7,0,4.9-7,5.7-7
	c0.4,0,1,0.9,1.5,2.2v0c-0.9,1.2-1.5,2.3-1.5,3.1c0,1.1,0.8,1.6,1.7,1.6c1.2,0,2.5-1.3,2.5-3.3c0-0.4,0-1.6-0.5-2.7l0,0
	c1.9-1.7,4.3-3.2,5.8-3.5c-0.8,0.9-2.3,1.8-2.3,4.5c0,2.9,2.2,5.1,5.1,5.1c4,0,4.9-4.3,4.9-5.9c0-0.6-0.1-1.1-0.2-1.6l0,0
	c1.4-0.6,2.4-1.5,2.8-1.5c0.8,0,0.5,2.5,0.5,5.1c0,2-0.3,4,1.2,4c1.1,0,1.6-2.2,2.7-4.1c1.1-1.9,2.2-4.5,2.7-4.5
	c0.6,0,0.4,4,0.4,4.8c0,1-0.2,4.1,1.8,4.1c1.4,0,3.9-3.8,3.9-4.3c0-0.3,0-0.3-0.2-0.3s-1.8,2.6-2.4,2.6c-0.9,0-0.3-3.3-0.3-5.7
	c0-1.1,0.2-3.4-1.6-3.4c-2.3,0-4.5,6.4-5.1,6.4s0.9-6.1-1.9-6.1c-1.2,0-2.9,1.6-4.7,2.4h0c-0.7-1.3-1.9-2-3.1-2
	c-0.9,0-1.5,0.6-1.5,1.3c0,0.9,0.7,2.2,2.5,2.2c0.5,0,0.9-0.1,1.4-0.2h0c0.2,0.5,0.2,1,0.2,1.4c0,1.6-1.1,3.6-3.1,3.6
	c-1.6,0-3-1.7-3-3.8c0-3.4,2.1-3.9,2.1-4.6c0-0.3-0.2-0.4-0.7-0.4c-2.3,0-5.4,1.9-7.8,4.1l0,0c-0.1-0.1-0.2-0.3-0.3-0.4
	c-2.3-3.3-1.4-4-2-4c-0.7,0-4.1,9.1-5.4,9.1c-1.7,0,1.4-8.7-1.9-8.7c-2.7,0-4.2,6.9-5.2,6.9s1-6.9-1.9-6.9c-2,0-5.1,8.2-6.5,8.2
	c-1.1,0,1-8.1-1.6-8.1s-4.5,6.3-5.1,6.3c-0.5,0-0.4-2-0.4-5.6v0c2.1-2.2,3.5-5.2,3.5-8.1c0-1.3-0.6-2.4-1.9-2.4
	c-2.4,0-3.9,3.9-3.9,8.1c0,0.9,0,2.1,0,3.3v0c-1.1,0.8-2.2,1.3-2.8,1.3h-0.5c-0.6-1.8-2.1-2.6-3.2-2.6c-0.9,0-1.5,0.8-1.5,1.5
	c0,1,0.9,2.1,3.7,2.1l0,0c0.1,0.4,0.1,0.7,0.1,1c0,1.6-1.2,3.7-3.2,3.7c-1.8,0-3.1-2-3.1-4.2c0-2.9,1.9-3.7,1.9-3.9
	c0-0.1,0-0.2-0.1-0.2c-1.9,0-5,2.1-7.9,5.1l0,0c-0.3-2.5-0.7-5.4-0.7-8.9c0-5,0.9-5.7,0.9-6.3C9,0.1,8.9,0,8.4,0C7.3,0,0,3.3,0,10.6
	c0,5.6,3.1,8.1,5.1,9.6l0,0C3,23.4,1.4,26.9,1.4,30c0,1.7,0.7,3.4,2,3.4c2,0,5.9-4.3,5.9-13c0-1.1-0.1-2.5-0.3-4l0,0
	C10.7,14.5,12.5,13,14.2,12.1C14.1,12.1,14.2,12.1,14.2,12.1z M169.6,13L169.6,13c-0.4-0.7-0.9-1.3-1.5-1.3c-0.3,0-0.6,0.3-0.6,0.5
	c0,0.5,0.5,0.9,1.3,0.9C169.1,13,169.4,13,169.6,13L169.6,13L169.6,13z M105.4,19.7c0.4-0.5,0.8-1,1.2-1.5l0,0c-0.5-2.6-1-5.1-1-6.9
	c0-5.3,2.3-9,2.3-9.8c0-0.5,0.1-0.6-0.3-0.6c-0.3,0-5.5,2.2-5.5,10.1C102,14,103.5,17.8,105.4,19.7L105.4,19.7z M104.9,20.3
	c-0.7-0.6-1.4-1.5-2.5-2.2c-0.9-0.6-3.2,0-5.2,0.4l0,0c-0.2,1.2-0.6,2.3-1,2.3c-0.3,0-0.4-0.9-0.7-2h0c-0.9,0.1-1.7,0.3-2.1,0.3
	c-1.4,0-4.6-0.6-4.6-2.7c0-1.2,1.3-1.7,2.6-1.7c1.5,0,3.8,1,4.3,2.2c0.2-2-1.3-3.1-1.3-3.4s1.6-0.9,1.7-0.9c0.6,0,1.2,2.8,1.2,4.9
	v0.3l0,0c1.6-0.3,3.3-0.7,4.4-0.5c-1.1-1.5-1.9-3.6-1.9-6.5c0-7.3,7.3-10.6,8.4-10.6c0.5,0,0.6,0.1,0.6,0.4c0,0.6-0.9,1.3-0.9,6.3
	c0,3.4,0.4,6.4,0.7,8.9l0,0c2.9-3,6-5.1,7.9-5.1c0.1,0,0.1,0.1,0.1,0.2c0,0.2-1.9,1.1-1.9,3.9c0,2.2,1.4,4.2,3.2,4.2
	c2,0,3.2-2.1,3.2-3.7c0-0.3,0-0.7-0.1-1l0,0c-2.8-0.1-3.7-1.1-3.7-2.1c0-0.7,0.7-1.5,1.6-1.5c1.1,0,2.6,0.8,3.1,2.7h0.6
	c0.6,0,1.7-0.4,2.8-1.3l0,0c0-1.2-0.1-2.4-0.1-3.3c0-4.2,1.4-8.1,3.9-8.1c1.2,0,1.9,1,1.9,2.4c0,2.9-1.4,5.9-3.5,8.1v0
	c0,3.6-0.1,5.6,0.4,5.6c0.6,0,2.6-6.3,5.1-6.3s0.5,8.1,1.6,8.1c1.3,0,4.4-8.2,6.5-8.2c2.9,0,0.9,6.9,1.9,6.9c1,0,2.5-6.9,5.2-6.9
	c3.4,0,0.2,8.7,1.9,8.7c1.3,0,4.6-9.1,5.4-9.1c0.6,0-0.3,0.7,2,4c0.1,0.1,0.2,0.3,0.3,0.4l0,0c2.4-2.2,5.5-4.1,7.8-4.1
	c0.4,0,0.6,0.1,0.6,0.4c0,0.7-2,1.2-2,4.6c0,2.1,1.4,3.8,3,3.8c2,0,3.1-2,3.1-3.6c0-0.4-0.1-0.9-0.2-1.4l0,0
	c-0.4,0.1-0.9,0.2-1.4,0.2c-1.8,0-2.5-1.2-2.5-2.2c0-0.7,0.6-1.3,1.5-1.3c1.2,0,2.4,0.7,3.1,2l0,0c1.9-0.8,3.6-2.3,4.7-2.3
	c2.8,0,1.2,6.1,1.9,6.1c0.7,0,2.9-6.4,5.1-6.4c1.8,0,1.6,2.4,1.6,3.4c0,2.4-0.6,5.7,0.3,5.7c0.6,0,2.2-2.6,2.4-2.6
	c0.2,0,0.2,0.1,0.2,0.3c0,0.5-2.6,4.3-4,4.3c-2,0-1.8-3.1-1.8-4.1c0-0.8,0.2-4.8-0.4-4.8c-0.5,0-1.6,2.6-2.7,4.5
	c-1.1,1.9-1.6,4.1-2.7,4.1c-1.5,0-1.2-2-1.2-4c0-2.6,0.3-5.1-0.5-5.1c-0.4,0-1.4,0.9-2.8,1.6l0,0c0.1,0.5,0.2,1,0.2,1.6
	c0,1.7-0.9,5.9-4.9,5.9c-2.9,0-5.1-2.2-5.1-5.1c0-2.7,1.5-3.5,2.4-4.5c-1.5,0.2-3.9,1.8-5.8,3.5v0c0.4,1.1,0.5,2.3,0.5,2.7
	c0,1.9-1.2,3.3-2.5,3.3c-0.8,0-1.7-0.5-1.7-1.6c0-0.8,0.6-2,1.5-3.1l0,0c-0.5-1.3-1.1-2.2-1.5-2.2c-0.7,0-2.9,7-5.6,7
	c-3,0-0.9-8.5-1.9-8.5c-1,0-3.9,8.5-5.5,8.5c-2.4,0-0.2-8.3-1.3-8.3c-1.3,0-4.4,8.3-6.5,8.3c-2.9,0-0.7-8.2-2-8.2
	c-0.6,0-1.7,2.2-2.7,4.5c-0.9,1.8-1.4,3.7-2.3,3.7c-0.9,0-1-0.3-1-3.1c0-0.9-0.1-2.8-0.1-4.8l0,0c-1,0.7-2.1,1.1-3.2,1.3l0,0
	c0,0.2,0,0.4,0,0.7c0,2-0.8,6.2-4.9,6.2c-3.1,0-4.8-2.4-4.8-5.3c0-1.6,0.8-2.7,1.5-3.6c-1.6,1-3.5,2.5-5.2,4.3v0
	c0.2,1.5,0.3,2.8,0.3,3.9c0,8.8-3.8,13.1-5.9,13.1c-1.3,0-2-1.7-2-3.4C101.3,27,102.8,23.5,104.9,20.3L104.9,20.3L104.9,20.3
	L104.9,20.3z M156.1,16.9L156.1,16.9c-0.5,0.7-0.8,1.4-0.8,2s0.1,1,0.5,1c0.3,0,0.6-0.4,0.6-1C156.4,18.3,156.3,17.6,156.1,16.9
	L156.1,16.9L156.1,16.9z M127.6,9.8L127.6,9.8c1.3-1.6,2.2-3.8,2.2-6.4c0-1.2-0.1-2-0.7-2C127.4,1.4,127.5,7.6,127.6,9.8L127.6,9.8
	L127.6,9.8z M120.7,13.2L120.7,13.2c-0.3-0.8-0.8-1.4-1.5-1.4c-0.3,0-0.5,0.2-0.5,0.4C118.7,12.9,119.6,13.1,120.7,13.2L120.7,13.2
	L120.7,13.2z M106.7,18.9L106.7,18.9c-2.3,3-4,6.5-4,9.9c0,1.1,0,2.7,1.5,2.7c1.9,0,3.2-2.8,3.2-6.7
	C107.4,22.9,107.1,20.9,106.7,18.9L106.7,18.9L106.7,18.9z M95.3,18L95.3,18c-0.5-1.3-1.4-2.5-3.2-2.5c-0.5,0-0.8,0.4-0.8,1
	c0,1,1.6,1.6,3,1.6C94.5,18.1,94.9,18,95.3,18L95.3,18L95.3,18z M69.8,13C69.5,13,69.3,13,69,13c-0.8,0-1.3-0.3-1.3-0.9
	c0-0.2,0.3-0.5,0.6-0.5C68.9,11.7,69.4,12.2,69.8,13L69.8,13L69.8,13z M56.3,17c0.2,0.6,0.3,1.3,0.3,2c0,0.6-0.3,1-0.6,1
	c-0.4,0-0.5-0.4-0.5-1S55.8,17.7,56.3,17L56.3,17L56.3,17L56.3,17z M27.7,9.8c0-2.2-0.2-8.4,1.5-8.4c0.6,0,0.7,0.7,0.7,2
	C30,6,29,8.1,27.7,9.8C27.7,9.8,27.7,9.8,27.7,9.8z M20.8,13.2c-1-0.1-2-0.3-2-0.9c0-0.2,0.2-0.4,0.5-0.4
	C20,11.9,20.5,12.4,20.8,13.2L20.8,13.2L20.8,13.2z M6.7,18.1c-0.4,0.5-0.8,1-1.2,1.6l0,0c-1.8-1.8-3.3-5.7-3.3-8.9
	c0-7.9,5.2-10.1,5.5-10.1C8.1,0.7,8,0.8,8,1.3c0,0.8-2.3,4.6-2.3,9.8C5.7,13,6.2,15.5,6.7,18.1L6.7,18.1L6.7,18.1L6.7,18.1z
	 M6.9,18.9c0.4,2,0.7,4.1,0.7,5.9c0,3.9-1.3,6.7-3.2,6.7c-1.5,0-1.5-1.6-1.5-2.7C2.9,25.4,4.6,21.9,6.9,18.9L6.9,18.9L6.9,18.9z"/>
</svg>
