<svg height="30.344" viewBox="0 0 108.524 30.344" width="108.524" xmlns="http://www.w3.org/2000/svg" xmlns:xlink="http://www.w3.org/1999/xlink"><clipPath id="a"><path d="m108.852-30.672h-108.524v30.344h108.524zm-1.344 1.344v27.656h-105.837v-27.656z"/></clipPath><clipPath id="b"><path d="m-95 134h300v-250h-300z"/></clipPath><clipPath id="c"><path d="m19.857-12.306a2.983 2.983 0 0 0 3.006-2.255l-.924-.37a2.056 2.056 0 0 1 -2.045 1.688c-1.281 0-2.279-1.035-2.279-3.326s1-3.326 2.279-3.326a1.991 1.991 0 0 1 1.984 1.5l.9-.357a2.925 2.925 0 0 0 -2.92-2.082c-1.885 0-3.388 1.478-3.388 4.263s1.515 4.265 3.387 4.265zm6.912-.025c1.663 0 2.772-1.207 2.772-3.166s-1.109-3.166-2.772-3.166-2.769 1.207-2.769 3.163 1.106 3.169 2.769 3.169zm0-.875c-1 0-1.651-.8-1.651-2.292s.653-2.292 1.651-2.292 1.651.8 1.651 2.292-.653 2.293-1.651 2.293zm5.519.752v-3.622a1.551 1.551 0 0 1 1.491-1.712c.85 0 1.133.554 1.133 1.392v3.942h1.088v-4.176a1.846 1.846 0 0 0 -1.91-2.033 1.885 1.885 0 0 0 -1.786 1.01h-.062v-.887h-1.05v6.086zm7.244 0v-5.246h1.4v-.838h-1.4v-.752c0-.7.234-1.01.788-1.01a3.538 3.538 0 0 1 .715.086v-.85a3.471 3.471 0 0 0 -.9-.1 1.558 1.558 0 0 0 -1.7 1.712v.912h-1.145v.838h1.146v5.248zm3.277-7.17a.7.7 0 0 0 .739-.739.708.708 0 0 0 -.739-.752.718.718 0 0 0 -.752.752.715.715 0 0 0 .752.739zm.542 7.17v-6.086h-1.1v6.086zm4.149 2.341c1.762 0 2.834-.665 2.834-1.786 0-1.035-1.072-1.577-2.168-1.7-1.429-.16-1.873-.259-1.873-.6 0-.283.431-.493 1.6-.678 1.072-.148 1.811-.788 1.811-1.725a1.269 1.269 0 0 0 -.6-1.158v-.074a9 9 0 0 0 1.121.074v-.776h-1.925a2.863 2.863 0 0 0 -.862-.123 2.005 2.005 0 0 0 -2.255 1.971 1.606 1.606 0 0 0 1.281 1.577v.049c-.727.148-1.22.493-1.22 1.01 0 .468.345.776.949.862v.049a1.661 1.661 0 0 0 -1.449 1.441c0 .983 1.034 1.587 2.756 1.587zm-.062-5.458a1.111 1.111 0 0 1 -1.22-1.133 1.135 1.135 0 0 1 1.22-1.183 1.132 1.132 0 0 1 1.236 1.187 1.115 1.115 0 0 1 -1.232 1.129zm.1 4.694c-1.158 0-1.762-.394-1.762-.936 0-.567.6-.961 1.762-.961s1.762.394 1.762.961c0 .542-.6.936-1.76.936zm6.024-1.454a1.885 1.885 0 0 0 1.786-1.01h.062v.887h1.05v-6.086h-1.1v3.622a1.551 1.551 0 0 1 -1.491 1.712c-.85 0-1.133-.554-1.133-1.392v-3.942h-1.081v4.176a1.846 1.846 0 0 0 1.91 2.033zm6.024-.123v-3.146c0-1.392.69-2.07 1.5-2.07a3.114 3.114 0 0 1 .579.037v-.986a1.921 1.921 0 0 0 -.48-.049 1.713 1.713 0 0 0 -1.6 1.133h-.045v-1.01h-1.047v6.086zm5.889.123a2.816 2.816 0 0 0 2.23-1l-.579-.628a2.012 2.012 0 0 1 -1.577.764c-1.06 0-1.7-.7-1.786-2.008h4.115c.012-.148.012-.345.012-.493 0-1.811-1.01-2.969-2.538-2.969-1.565 0-2.7 1.183-2.7 3.179s1.163 3.155 2.826 3.155zm1.346-3.669h-3.043c.123-1.2.715-1.8 1.577-1.8s1.392.615 1.466 1.8zm10.706 3.548v-.912h-3.745v-2.9h3.425v-.875h-3.425v-2.636h3.659v-.912h-4.78v8.23zm8.6 1.355-1.478-1.91a4.366 4.366 0 0 0 1.417-3.56c0-2.8-1.54-4.263-3.536-4.263s-3.536 1.466-3.536 4.263 1.552 4.263 3.536 4.263a3.491 3.491 0 0 0 1.146-.185l1.071 1.389zm-3.6-2.144c-1.318 0-2.378-1.01-2.378-3.326s1.06-3.326 2.378-3.326 2.378 1.01 2.378 3.326-1.058 3.325-2.376 3.325zm5.667.788.665-2.094h3.228l.665 2.094h1.17l-2.772-8.23h-1.266l-2.772 8.23zm3.622-2.981h-2.671l1.084-3.4a8.344 8.344 0 0 0 .246-.862h.049c.062.3.123.554.222.875z"/></clipPath><g transform="translate(-.328 30.672)"><g clip-path="url(#a)"><g clip-path="url(#b)"><path d="m-.672-31.672h110.524v32.344h-110.524z" fill="#fff"/></g></g><g clip-path="url(#c)"><g clip-path="url(#b)"><path d="m15.469-22.164h79.456v13.051h-79.456z" fill="#fff"/></g></g></g></svg>