<svg enable-background="new 0 0 432 120" viewBox="0 0 432 120" xmlns="http://www.w3.org/2000/svg"><path d="m178.8 46h9.5v3.2c1-.9 4.3-4 10.4-4 7.2 0 12.8 5.3 12.8 13.6v21.5h-10v-18.8c0-4.6-2.2-7.4-6.3-7.4-3.9 0-6.3 2.6-6.3 7.4v18.9h-10v-34.4zm105.4 17.2c0-4.7 3.5-8.6 8.5-8.6 4.9 0 8.5 3.9 8.5 8.6s-3.5 8.6-8.5 8.6-8.5-3.9-8.5-8.6m-9.9 0c0 9.9 7.9 17.9 18.3 17.9s18.3-8 18.3-17.9-7.9-17.9-18.3-17.9c-10.4-.1-18.3 8-18.3 17.9m-127.8 0c0-4.7 3.5-8.6 8.5-8.6 4.9 0 8.5 3.9 8.5 8.6s-3.5 8.6-8.5 8.6-8.5-3.9-8.5-8.6m-9.9 0c0 9.9 7.9 17.9 18.3 17.9s18.3-8 18.3-17.9-7.9-17.9-18.3-17.9c-10.4-.1-18.3 8-18.3 17.9m222.9-17.2h10.2v32 2.3h-10.2zm0-12.5h10.2v8.7h-10.2zm18 0h10.2v44.5 2.3h-10.2zm-34.2 29.6c0 4.8-3.7 8.6-8.6 8.6s-8.6-3.7-8.6-8.6 3.7-8.6 8.6-8.6c5 .1 8.6 3.8 8.6 8.6m-16.9 17.2.1-2.6c.7.5 3.8 3.4 10.4 3.4 8.7 0 16.7-7.8 16.7-17.9 0-10.2-7.5-17.9-16.6-17.9-6.9 0-10.1 3.2-10.5 3.5v-15.3h-9.8v46.8zm-237.2 0 10.6-13.6 6.6 6.7-15.1 18.9h11.8l9.7-12.5 18.2 18.5h14.2l-26.1-26.3 20.6-26h-11.8l-15.2 19.5-6.6-6.6 16.9-21.3h-11.8l-11.6 14.9-6.2-6.5h-14l14.2 14.3-16 20zm-44.9-46.8h30.8v8.7h-20.3v9.7h19.4v8.5h-19.4v11.2h20.4v8.7h-30.9zm175.2 0h16.6l7.8 34.2h.4l8-34.2h16.1v46.8h-9.9v-35.3h-.5l-8.7 35.4h-11.1l-8.4-35.4h-.5v35.4h-9.9v-46.9z" fill="#ea2333"/></svg>