<svg width="110" height="59" viewBox="0 0 110 59" fill="none" xmlns="http://www.w3.org/2000/svg">
<path d="M49.0168 10.048C48.5848 11.974 48.3328 12.496 46.8568 12.496H45.5608C44.7868 12.496 44.6788 12.28 44.6788 11.776V7.024H46.7668C47.3788 7.024 47.5588 7.348 47.5948 8.482H47.9548V5.062H47.5948C47.5408 6.196 47.3788 6.52 46.7668 6.52H44.6788V1.48H46.4788C47.9008 1.48 48.2428 1.966 48.5848 3.766H48.9448L48.6928 0.975999H42.1408V1.372C43.1308 1.426 43.3108 1.588 43.3108 2.812V11.164C43.3108 12.388 43.1308 12.55 42.1408 12.604V13H49.0708L49.3768 10.048H49.0168ZM55.1893 11.452L53.5513 8.23L54.6133 6.25C55.2613 5.062 55.5853 5.008 56.2873 4.918V4.522C55.8733 4.594 55.4953 4.63 55.1353 4.63C54.7213 4.63 54.2893 4.594 53.8033 4.522V4.918C54.7393 4.99 54.7393 5.08 54.1093 6.25L53.2633 7.816L52.4173 6.124C51.8953 5.098 51.8773 5.008 52.6693 4.918V4.522C52.1293 4.594 51.6613 4.63 51.2113 4.63C50.7073 4.63 50.2933 4.594 49.6993 4.522V4.918C50.2753 4.99 50.5273 5.062 51.0673 6.106L52.5253 8.986L51.2473 11.308C50.6533 12.406 50.4373 12.532 49.6993 12.64V13.036C50.0953 12.964 50.4373 12.928 50.7973 12.928C51.1933 12.928 51.5893 12.964 52.0573 13.036V12.64C51.1933 12.532 51.1033 12.478 51.7513 11.308L52.8133 9.382L53.8393 11.434C54.3433 12.46 54.3613 12.568 53.6053 12.64V13.036C54.1993 12.964 54.7213 12.928 55.2073 12.928C55.6753 12.928 56.0533 12.964 56.5573 13.036V12.64C56.0713 12.568 55.7113 12.496 55.1893 11.452ZM60.7069 4.396C59.9329 4.396 59.2669 4.882 58.8349 5.836V4.468H58.6729C57.9709 4.576 57.3589 4.594 56.6209 4.612V4.99C57.5209 5.062 57.6649 5.26 57.6649 6.34V14.368C57.6649 15.484 57.5389 15.646 56.6929 15.736V16.132C57.2869 16.06 57.8089 16.024 58.2949 16.024H58.3309C58.8349 16.024 59.3929 16.06 60.0049 16.132V15.736C59.0689 15.646 58.9249 15.502 58.9249 14.368V12.028C59.3209 12.784 59.9149 13.18 60.6349 13.18C62.1109 13.18 63.5329 11.506 63.5329 8.806C63.5329 6.124 62.4169 4.396 60.7069 4.396ZM60.5629 12.73C59.5369 12.73 58.8529 11.362 58.8529 8.824C58.8529 6.16 59.5369 4.936 60.5089 4.936C61.6789 4.936 62.2009 6.52 62.2009 8.824C62.2009 11.308 61.6969 12.73 60.5629 12.73ZM70.0934 8.554V8.392C70.0934 5.89 68.9054 4.396 67.3574 4.396C65.7734 4.396 64.4234 6.052 64.4234 8.806C64.4234 11.236 65.3774 13.18 67.4474 13.18C68.9414 13.18 69.9674 12.064 70.0934 10.174H69.6434C69.5354 11.74 68.7074 12.64 67.6634 12.64C66.3314 12.64 65.7554 11.362 65.7554 8.806V8.554H70.0934ZM67.3214 4.846C68.3294 4.846 68.8334 6.142 68.8334 8.104H65.7734C65.8634 6.052 66.3674 4.846 67.3214 4.846ZM74.7692 4.396C73.9772 4.396 73.3652 4.954 73.0052 5.836V4.468H72.8252C72.1232 4.576 71.5112 4.594 70.7732 4.612V4.99C71.6732 5.062 71.8172 5.26 71.8172 6.34V11.272C71.8172 12.388 71.6912 12.55 70.8452 12.64V13.036C71.4392 12.964 71.9612 12.928 72.4472 12.928H72.5552C73.0952 12.928 73.6712 12.964 74.3192 13.036V12.64C73.2392 12.55 73.0772 12.406 73.0772 11.272V7.78C73.0772 6.178 73.6712 5.026 74.4452 5.026C74.7512 5.026 74.9132 5.206 74.9132 5.512C74.9132 5.656 74.8592 5.782 74.8592 5.98C74.8592 6.358 75.1292 6.574 75.4892 6.574C75.9752 6.574 76.1552 6.178 76.1552 5.71C76.1552 5.008 75.6872 4.396 74.7692 4.396ZM78.0274 2.956C78.5494 2.956 78.8914 2.578 78.8914 2.074C78.8914 1.57 78.5494 1.192 78.0274 1.192C77.5054 1.192 77.1634 1.57 77.1634 2.074C77.1634 2.578 77.5054 2.956 78.0274 2.956ZM77.4694 6.34V11.272C77.4694 12.388 77.3434 12.55 76.4974 12.64V13.036C77.0914 12.964 77.6134 12.928 78.0994 12.928C78.5854 12.928 79.1074 12.964 79.7014 13.036V12.64C78.8554 12.55 78.7294 12.388 78.7294 11.272V4.468H78.4774C77.7754 4.576 77.1634 4.594 76.4254 4.612V4.99C77.3254 5.062 77.4694 5.26 77.4694 6.34ZM86.0466 8.554V8.392C86.0466 5.89 84.8586 4.396 83.3106 4.396C81.7266 4.396 80.3766 6.052 80.3766 8.806C80.3766 11.236 81.3306 13.18 83.4006 13.18C84.8946 13.18 85.9206 12.064 86.0466 10.174H85.5966C85.4886 11.74 84.6606 12.64 83.6166 12.64C82.2846 12.64 81.7086 11.362 81.7086 8.806V8.554H86.0466ZM83.2746 4.846C84.2826 4.846 84.7866 6.142 84.7866 8.104H81.7266C81.8166 6.052 82.3206 4.846 83.2746 4.846ZM93.0984 11.272V6.97C93.0984 5.368 92.3424 4.396 90.9924 4.396C90.0924 4.396 89.3724 4.9 88.9584 5.692V4.468H88.7784C88.0764 4.576 87.4644 4.594 86.7264 4.612V4.99C87.6264 5.062 87.7704 5.26 87.7704 6.34V11.272C87.7704 12.388 87.6444 12.55 86.7984 12.64V13.036C87.3924 12.964 87.9144 12.928 88.4004 12.928C88.8684 12.928 89.3544 12.964 89.9304 13.036V12.64C89.1384 12.55 89.0304 12.406 89.0304 11.272V7.24C89.0304 5.908 89.8044 4.954 90.7404 4.954C91.4424 4.954 91.8384 5.368 91.8384 6.502V11.272C91.8384 12.406 91.7304 12.55 90.9384 12.64V13.036C91.5144 12.964 92.0004 12.928 92.4684 12.928C92.9544 12.928 93.4764 12.964 94.0704 13.036V12.64C93.2244 12.55 93.0984 12.388 93.0984 11.272ZM99.4564 10.174C99.3484 11.758 98.6824 12.64 97.7644 12.64C96.5764 12.64 95.9824 11.2 95.9824 8.806C95.9824 6.34 96.5404 4.846 97.6924 4.846C98.6464 4.846 99.1684 5.656 99.4384 7.348H99.7804V4.342H99.4924L99.2044 5.116C98.8804 4.72 98.3584 4.396 97.7104 4.396C96.0544 4.396 94.6504 6.052 94.6504 8.806C94.6504 11.218 95.6584 13.18 97.4944 13.18C98.8804 13.18 99.7624 12.064 99.9064 10.174H99.4564ZM106.43 8.554V8.392C106.43 5.89 105.242 4.396 103.694 4.396C102.11 4.396 100.76 6.052 100.76 8.806C100.76 11.236 101.714 13.18 103.784 13.18C105.278 13.18 106.304 12.064 106.43 10.174H105.98C105.872 11.74 105.044 12.64 104 12.64C102.668 12.64 102.092 11.362 102.092 8.806V8.554H106.43ZM103.658 4.846C104.666 4.846 105.17 6.142 105.17 8.104H102.11C102.2 6.052 102.704 4.846 103.658 4.846ZM4.30133 22.102C4.73333 22.102 4.98533 22.336 4.98533 23.038C4.98533 23.416 5.11133 23.686 5.50733 23.686C5.92133 23.686 6.04733 23.434 6.04733 23.128C6.04733 22.12 5.18333 21.67 4.39133 21.67C3.43733 21.67 2.37533 22.372 2.37533 24.532C2.37533 25.504 2.21333 25.594 0.971332 25.666V26.098H2.24933V32.272C2.24933 33.388 2.12333 33.55 1.27733 33.64V34.036C1.87133 33.964 2.39333 33.928 2.87933 33.928H2.95133C3.47333 33.928 4.04933 33.964 4.69733 34.036V33.64C3.67133 33.55 3.50933 33.406 3.50933 32.272V26.098H5.52533V25.576H3.50933V23.794C3.50933 22.678 3.72533 22.102 4.30133 22.102ZM7.42025 23.956C7.94225 23.956 8.28425 23.578 8.28425 23.074C8.28425 22.57 7.94225 22.192 7.42025 22.192C6.89825 22.192 6.55625 22.57 6.55625 23.074C6.55625 23.578 6.89825 23.956 7.42025 23.956ZM6.86225 27.34V32.272C6.86225 33.388 6.73625 33.55 5.89025 33.64V34.036C6.48425 33.964 7.00625 33.928 7.49225 33.928C7.97825 33.928 8.50025 33.964 9.09425 34.036V33.64C8.24825 33.55 8.12225 33.388 8.12225 32.272V25.468H7.87025C7.16825 25.576 6.55625 25.594 5.81825 25.612V25.99C6.71825 26.062 6.86225 26.26 6.86225 27.34ZM13.5495 25.396C12.7575 25.396 12.1455 25.954 11.7855 26.836V25.468H11.6055C10.9035 25.576 10.2915 25.594 9.55353 25.612V25.99C10.4535 26.062 10.5975 26.26 10.5975 27.34V32.272C10.5975 33.388 10.4715 33.55 9.62553 33.64V34.036C10.2195 33.964 10.7415 33.928 11.2275 33.928H11.3355C11.8755 33.928 12.4515 33.964 13.0995 34.036V33.64C12.0195 33.55 11.8575 33.406 11.8575 32.272V28.78C11.8575 27.178 12.4515 26.026 13.2255 26.026C13.5315 26.026 13.6935 26.206 13.6935 26.512C13.6935 26.656 13.6395 26.782 13.6395 26.98C13.6395 27.358 13.9095 27.574 14.2695 27.574C14.7555 27.574 14.9355 27.178 14.9355 26.71C14.9355 26.008 14.4675 25.396 13.5495 25.396ZM18.8249 29.464L17.6549 28.834C16.8989 28.42 16.4489 28.042 16.4489 27.286C16.4489 26.368 16.9529 25.846 17.7989 25.846C18.8069 25.846 19.3649 26.89 19.5629 28.078H19.9049V25.342H19.6169L19.3289 26.152C19.0049 25.738 18.4289 25.396 17.7269 25.396C16.6289 25.396 15.5309 26.206 15.5309 27.646C15.5309 28.942 16.0889 29.464 16.9889 29.95L17.9789 30.49C18.7889 30.922 19.3109 31.39 19.3109 32.236C19.3109 33.154 18.7349 33.73 17.7629 33.73C16.5749 33.73 15.9989 32.722 15.7829 31.174H15.4409V34.234H15.7289L15.9989 33.388C16.3589 33.856 17.0429 34.18 17.8169 34.18C19.2209 34.18 20.2829 33.046 20.2829 31.732C20.2829 30.652 19.7429 29.95 18.8249 29.464ZM24.2217 33.514C23.5557 33.514 23.1777 33.208 23.1777 31.948V26.098H25.1397V25.576H23.1777V23.128H22.7997C22.6197 24.748 22.0977 25.522 20.6577 25.702V26.098H21.9177V32.182C21.9177 33.55 22.5477 34.18 23.6457 34.18C24.2397 34.18 24.7617 34.018 25.2297 33.694V33.154C24.9237 33.388 24.5997 33.514 24.2217 33.514ZM25.6069 28.636V29.356H29.2249V28.636H25.6069ZM35.2132 31.174C35.1052 32.758 34.4392 33.64 33.5212 33.64C32.3332 33.64 31.7392 32.2 31.7392 29.806C31.7392 27.34 32.2972 25.846 33.4492 25.846C34.4032 25.846 34.9252 26.656 35.1952 28.348H35.5372V25.342H35.2492L34.9612 26.116C34.6372 25.72 34.1152 25.396 33.4672 25.396C31.8112 25.396 30.4072 27.052 30.4072 29.806C30.4072 32.218 31.4152 34.18 33.2512 34.18C34.6372 34.18 35.5192 33.064 35.6632 31.174H35.2132ZM37.2724 23.668V32.272C37.2724 33.388 37.1464 33.55 36.3004 33.64V34.036C36.8944 33.964 37.4164 33.928 37.9024 33.928C38.3884 33.928 38.9104 33.964 39.5044 34.036V33.64C38.6584 33.55 38.5324 33.388 38.5324 32.272V21.796H38.2804C37.5784 21.904 36.9664 21.922 36.2284 21.94V22.318C37.1284 22.39 37.2724 22.588 37.2724 23.668ZM45.2938 32.56V27.988C45.2938 26.476 44.4478 25.396 42.9178 25.396C41.6578 25.396 40.5598 26.35 40.5598 27.52C40.5598 27.988 40.8118 28.15 41.1178 28.15C41.4598 28.15 41.6938 28.006 41.6938 27.43C41.6938 26.278 42.1618 25.846 42.8818 25.846C43.6018 25.846 44.0338 26.296 44.0338 27.448V28.726C43.6378 28.798 43.2238 28.924 42.8998 29.014C41.1898 29.482 40.1998 30.166 40.1998 31.822C40.1998 33.208 40.9198 34.18 42.2518 34.18C43.1158 34.18 43.8538 33.694 44.2318 32.722V32.866C44.2318 33.712 44.6278 34.108 45.2938 34.108C45.7078 34.108 46.0678 34.018 46.2838 33.964V33.604C45.5818 33.604 45.2938 33.406 45.2938 32.56ZM42.7018 33.496C41.9818 33.496 41.5318 32.884 41.5318 31.75C41.5318 30.688 41.7838 29.788 43.0438 29.428C43.3678 29.338 43.6918 29.248 44.0338 29.176V31.336C44.0338 32.758 43.4038 33.496 42.7018 33.496ZM50.2392 29.464L49.0692 28.834C48.3132 28.42 47.8632 28.042 47.8632 27.286C47.8632 26.368 48.3672 25.846 49.2132 25.846C50.2212 25.846 50.7792 26.89 50.9772 28.078H51.3192V25.342H51.0312L50.7432 26.152C50.4192 25.738 49.8432 25.396 49.1412 25.396C48.0432 25.396 46.9452 26.206 46.9452 27.646C46.9452 28.942 47.5032 29.464 48.4032 29.95L49.3932 30.49C50.2032 30.922 50.7252 31.39 50.7252 32.236C50.7252 33.154 50.1492 33.73 49.1772 33.73C47.9892 33.73 47.4132 32.722 47.1972 31.174H46.8552V34.234H47.1432L47.4132 33.388C47.7732 33.856 48.4572 34.18 49.2312 34.18C50.6352 34.18 51.6972 33.046 51.6972 31.732C51.6972 30.652 51.1572 29.95 50.2392 29.464ZM56.0139 29.464L54.8439 28.834C54.0879 28.42 53.6379 28.042 53.6379 27.286C53.6379 26.368 54.1419 25.846 54.9879 25.846C55.9959 25.846 56.5539 26.89 56.7519 28.078H57.0939V25.342H56.8059L56.5179 26.152C56.1939 25.738 55.6179 25.396 54.9159 25.396C53.8179 25.396 52.7199 26.206 52.7199 27.646C52.7199 28.942 53.2779 29.464 54.1779 29.95L55.1679 30.49C55.9779 30.922 56.4999 31.39 56.4999 32.236C56.4999 33.154 55.9239 33.73 54.9519 33.73C53.7639 33.73 53.1879 32.722 52.9719 31.174H52.6299V34.234H52.9179L53.1879 33.388C53.5479 33.856 54.2319 34.18 55.0059 34.18C56.4099 34.18 57.4719 33.046 57.4719 31.732C57.4719 30.652 56.9319 29.95 56.0139 29.464ZM66.0474 31.174C65.9394 32.758 65.2734 33.64 64.3554 33.64C63.1674 33.64 62.5734 32.2 62.5734 29.806C62.5734 27.34 63.1314 25.846 64.2834 25.846C65.2374 25.846 65.7594 26.656 66.0294 28.348H66.3714V25.342H66.0834L65.7954 26.116C65.4714 25.72 64.9494 25.396 64.3014 25.396C62.6454 25.396 61.2414 27.052 61.2414 29.806C61.2414 32.218 62.2494 34.18 64.0854 34.18C65.4714 34.18 66.3534 33.064 66.4974 31.174H66.0474ZM70.3926 34.18C72.0846 34.18 73.4526 32.542 73.4526 29.788C73.4526 27.034 72.0846 25.396 70.3926 25.396C68.7006 25.396 67.3326 27.034 67.3326 29.788C67.3326 32.542 68.7006 34.18 70.3926 34.18ZM70.3926 33.73C69.1866 33.73 68.6646 32.326 68.6646 29.788C68.6646 27.25 69.1866 25.846 70.3926 25.846C71.5986 25.846 72.1206 27.25 72.1206 29.788C72.1206 32.326 71.5986 33.73 70.3926 33.73ZM84.2382 32.272V27.97C84.2382 26.368 83.5002 25.396 82.1682 25.396C81.2682 25.396 80.5482 25.936 80.1702 26.8C79.8822 25.918 79.2342 25.396 78.2622 25.396C77.4162 25.396 76.7502 25.882 76.3542 26.656V25.468H76.1742C75.4722 25.576 74.8602 25.594 74.1222 25.612V25.99C75.0222 26.062 75.1662 26.26 75.1662 27.34V32.272C75.1662 33.388 75.0402 33.55 74.1942 33.64V34.036C74.7882 33.964 75.3102 33.928 75.7962 33.928C76.2642 33.928 76.7502 33.964 77.3262 34.036V33.64C76.5342 33.55 76.4262 33.406 76.4262 32.272V28.24C76.4262 26.908 77.1462 25.954 78.0282 25.954C78.6942 25.954 79.0722 26.368 79.0722 27.502V32.272C79.0722 33.406 78.9642 33.55 78.1722 33.64V34.036C78.7482 33.964 79.2342 33.928 79.7022 33.928C80.1702 33.928 80.6562 33.964 81.2322 34.036V33.64C80.4402 33.55 80.3322 33.406 80.3322 32.272V28.24C80.3322 26.908 81.0522 25.954 81.9342 25.954C82.6002 25.954 82.9782 26.368 82.9782 27.502V32.272C82.9782 33.406 82.8702 33.55 82.0782 33.64V34.036C82.6542 33.964 83.1402 33.928 83.6082 33.928C84.0942 33.928 84.6162 33.964 85.2102 34.036V33.64C84.3642 33.55 84.2382 33.388 84.2382 32.272ZM88.7783 22.102C89.2103 22.102 89.4623 22.336 89.4623 23.038C89.4623 23.416 89.5883 23.686 89.9843 23.686C90.3983 23.686 90.5243 23.434 90.5243 23.128C90.5243 22.12 89.6603 21.67 88.8683 21.67C87.9143 21.67 86.8523 22.372 86.8523 24.532C86.8523 25.504 86.6903 25.594 85.4483 25.666V26.098H86.7263V32.272C86.7263 33.388 86.6003 33.55 85.7543 33.64V34.036C86.3483 33.964 86.8703 33.928 87.3563 33.928H87.4283C87.9503 33.928 88.5263 33.964 89.1743 34.036V33.64C88.1483 33.55 87.9863 33.406 87.9863 32.272V26.098H90.0023V25.576H87.9863V23.794C87.9863 22.678 88.2023 22.102 88.7783 22.102ZM93.1485 34.18C94.8405 34.18 96.2085 32.542 96.2085 29.788C96.2085 27.034 94.8405 25.396 93.1485 25.396C91.4565 25.396 90.0885 27.034 90.0885 29.788C90.0885 32.542 91.4565 34.18 93.1485 34.18ZM93.1485 33.73C91.9425 33.73 91.4205 32.326 91.4205 29.788C91.4205 27.25 91.9425 25.846 93.1485 25.846C94.3545 25.846 94.8765 27.25 94.8765 29.788C94.8765 32.326 94.3545 33.73 93.1485 33.73ZM100.874 25.396C100.082 25.396 99.4701 25.954 99.1101 26.836V25.468H98.9301C98.2281 25.576 97.6161 25.594 96.8781 25.612V25.99C97.7781 26.062 97.9221 26.26 97.9221 27.34V32.272C97.9221 33.388 97.7961 33.55 96.9501 33.64V34.036C97.5441 33.964 98.0661 33.928 98.5521 33.928H98.6601C99.2001 33.928 99.7761 33.964 100.424 34.036V33.64C99.3441 33.55 99.1821 33.406 99.1821 32.272V28.78C99.1821 27.178 99.7761 26.026 100.55 26.026C100.856 26.026 101.018 26.206 101.018 26.512C101.018 26.656 100.964 26.782 100.964 26.98C100.964 27.358 101.234 27.574 101.594 27.574C102.08 27.574 102.26 27.178 102.26 26.71C102.26 26.008 101.792 25.396 100.874 25.396ZM105.824 33.514C105.158 33.514 104.78 33.208 104.78 31.948V26.098H106.742V25.576H104.78V23.128H104.402C104.222 24.748 103.7 25.522 102.26 25.702V26.098H103.52V32.182C103.52 33.55 104.15 34.18 105.248 34.18C105.842 34.18 106.364 34.018 106.832 33.694V33.154C106.526 33.388 106.202 33.514 105.824 33.514ZM108.262 32.362C107.722 32.362 107.362 32.74 107.362 33.28C107.362 33.802 107.722 34.18 108.262 34.18C108.496 34.18 108.694 34.108 108.856 33.982V34.018C108.856 35.008 108.208 35.962 107.56 36.322L107.776 36.646C108.298 36.394 109.324 35.404 109.324 33.91C109.324 32.686 108.748 32.362 108.262 32.362ZM11.7142 50.464L10.5442 49.834C9.78824 49.42 9.33824 49.042 9.33824 48.286C9.33824 47.368 9.84224 46.846 10.6882 46.846C11.6962 46.846 12.2542 47.89 12.4522 49.078H12.7942V46.342H12.5062L12.2182 47.152C11.8942 46.738 11.3182 46.396 10.6162 46.396C9.51824 46.396 8.42024 47.206 8.42024 48.646C8.42024 49.942 8.97824 50.464 9.87824 50.95L10.8682 51.49C11.6782 51.922 12.2002 52.39 12.2002 53.236C12.2002 54.154 11.6242 54.73 10.6522 54.73C9.46424 54.73 8.88824 53.722 8.67224 52.174H8.33024V55.234H8.61824L8.88824 54.388C9.24824 54.856 9.93224 55.18 10.7062 55.18C12.1102 55.18 13.1722 54.046 13.1722 52.732C13.1722 51.652 12.6322 50.95 11.7142 50.464ZM19.127 53.56V48.988C19.127 47.476 18.281 46.396 16.751 46.396C15.491 46.396 14.393 47.35 14.393 48.52C14.393 48.988 14.645 49.15 14.951 49.15C15.293 49.15 15.527 49.006 15.527 48.43C15.527 47.278 15.995 46.846 16.715 46.846C17.435 46.846 17.867 47.296 17.867 48.448V49.726C17.471 49.798 17.057 49.924 16.733 50.014C15.023 50.482 14.033 51.166 14.033 52.822C14.033 54.208 14.753 55.18 16.085 55.18C16.949 55.18 17.687 54.694 18.065 53.722V53.866C18.065 54.712 18.461 55.108 19.127 55.108C19.541 55.108 19.901 55.018 20.117 54.964V54.604C19.415 54.604 19.127 54.406 19.127 53.56ZM16.535 54.496C15.815 54.496 15.365 53.884 15.365 52.75C15.365 51.688 15.617 50.788 16.877 50.428C17.201 50.338 17.525 50.248 17.867 50.176V52.336C17.867 53.758 17.237 54.496 16.535 54.496ZM23.5684 43.102C24.0004 43.102 24.2524 43.336 24.2524 44.038C24.2524 44.416 24.3784 44.686 24.7744 44.686C25.1884 44.686 25.3144 44.434 25.3144 44.128C25.3144 43.12 24.4504 42.67 23.6584 42.67C22.7044 42.67 21.6424 43.372 21.6424 45.532C21.6424 46.504 21.4804 46.594 20.2384 46.666V47.098H21.5164V53.272C21.5164 54.388 21.3904 54.55 20.5444 54.64V55.036C21.1384 54.964 21.6604 54.928 22.1464 54.928H22.2184C22.7404 54.928 23.3164 54.964 23.9644 55.036V54.64C22.9384 54.55 22.7764 54.406 22.7764 53.272V47.098H24.7924V46.576H22.7764V44.794C22.7764 43.678 22.9924 43.102 23.5684 43.102ZM30.5666 50.554V50.392C30.5666 47.89 29.3786 46.396 27.8306 46.396C26.2466 46.396 24.8966 48.052 24.8966 50.806C24.8966 53.236 25.8506 55.18 27.9206 55.18C29.4146 55.18 30.4406 54.064 30.5666 52.174H30.1166C30.0086 53.74 29.1806 54.64 28.1366 54.64C26.8046 54.64 26.2286 53.362 26.2286 50.806V50.554H30.5666ZM27.7946 46.846C28.8026 46.846 29.3066 48.142 29.3066 50.104H26.2466C26.3366 48.052 26.8406 46.846 27.7946 46.846ZM34.488 54.514C33.822 54.514 33.444 54.208 33.444 52.948V47.098H35.406V46.576H33.444V44.128H33.066C32.886 45.748 32.364 46.522 30.924 46.702V47.098H32.184V53.182C32.184 54.55 32.814 55.18 33.912 55.18C34.506 55.18 35.028 55.018 35.496 54.694V54.154C35.19 54.388 34.866 54.514 34.488 54.514ZM41.5151 46.63C41.1551 46.63 40.8671 46.612 40.3271 46.522V46.918C41.1371 47.044 41.3351 47.152 41.0471 47.962L39.4271 52.606L37.8071 47.926C37.5191 47.098 37.6091 47.008 38.5271 46.918V46.522C37.8791 46.612 37.1951 46.63 36.8531 46.63C36.4571 46.63 36.0071 46.612 35.3411 46.522V46.918C35.7371 46.954 36.1331 47.026 36.4751 47.962L38.7971 54.37L38.0771 56.422C37.6811 57.52 37.3391 57.61 37.1231 57.61C36.7811 57.61 36.6191 57.466 36.5831 57.07C36.5291 56.548 36.2771 56.368 35.9531 56.368C35.5211 56.368 35.3411 56.638 35.3411 57.034C35.3411 57.682 35.8991 58.186 36.7991 58.186C37.5911 58.186 38.0591 57.826 38.5631 56.422L41.5691 47.962C41.8571 47.152 41.9111 47.044 42.6131 46.918V46.522C42.1631 46.612 41.8211 46.63 41.5151 46.63ZM50.5061 53.56V48.988C50.5061 47.476 49.6601 46.396 48.1301 46.396C46.8701 46.396 45.7721 47.35 45.7721 48.52C45.7721 48.988 46.0241 49.15 46.3301 49.15C46.6721 49.15 46.9061 49.006 46.9061 48.43C46.9061 47.278 47.3741 46.846 48.0941 46.846C48.8141 46.846 49.2461 47.296 49.2461 48.448V49.726C48.8501 49.798 48.4361 49.924 48.1121 50.014C46.4021 50.482 45.4121 51.166 45.4121 52.822C45.4121 54.208 46.1321 55.18 47.4641 55.18C48.3281 55.18 49.0661 54.694 49.4441 53.722V53.866C49.4441 54.712 49.8401 55.108 50.5061 55.108C50.9201 55.108 51.2801 55.018 51.4961 54.964V54.604C50.7941 54.604 50.5061 54.406 50.5061 53.56ZM47.9141 54.496C47.1941 54.496 46.7441 53.884 46.7441 52.75C46.7441 51.688 46.9961 50.788 48.2561 50.428C48.5801 50.338 48.9041 50.248 49.2461 50.176V52.336C49.2461 53.758 48.6161 54.496 47.9141 54.496ZM58.1334 53.272V48.97C58.1334 47.368 57.3774 46.396 56.0274 46.396C55.1274 46.396 54.4074 46.9 53.9934 47.692V46.468H53.8134C53.1114 46.576 52.4994 46.594 51.7614 46.612V46.99C52.6614 47.062 52.8054 47.26 52.8054 48.34V53.272C52.8054 54.388 52.6794 54.55 51.8334 54.64V55.036C52.4274 54.964 52.9494 54.928 53.4354 54.928C53.9034 54.928 54.3894 54.964 54.9654 55.036V54.64C54.1734 54.55 54.0654 54.406 54.0654 53.272V49.24C54.0654 47.908 54.8394 46.954 55.7754 46.954C56.4774 46.954 56.8734 47.368 56.8734 48.502V53.272C56.8734 54.406 56.7654 54.55 55.9734 54.64V55.036C56.5494 54.964 57.0354 54.928 57.5034 54.928C57.9894 54.928 58.5114 54.964 59.1054 55.036V54.64C58.2594 54.55 58.1334 54.388 58.1334 53.272ZM65.5714 53.2V42.796H65.3194C64.6174 42.904 64.0054 42.922 63.2674 42.94V43.318C64.1674 43.39 64.3114 43.588 64.3114 44.668V47.584C63.9154 46.792 63.3214 46.396 62.5834 46.396C61.1074 46.396 59.6854 48.07 59.6854 50.77C59.6854 53.452 60.8014 55.18 62.5114 55.18C63.3034 55.18 63.9694 54.676 64.4014 53.704V55.072H64.5634C65.2654 54.964 65.8774 54.946 66.6154 54.928V54.55C65.7154 54.478 65.5714 54.28 65.5714 53.2ZM62.7094 54.64C61.5394 54.64 61.0174 53.056 61.0174 50.752C61.0174 48.268 61.5214 46.846 62.6554 46.846C63.6814 46.846 64.3654 48.214 64.3654 50.752C64.3654 53.416 63.6814 54.64 62.7094 54.64ZM70.8839 44.668V53.272C70.8839 54.388 70.7579 54.55 69.9119 54.64V55.036C70.5059 54.964 71.0279 54.928 71.5139 54.928C71.9999 54.928 72.5219 54.964 73.1159 55.036V54.64C72.2699 54.55 72.1439 54.388 72.1439 53.272V42.796H71.8919C71.1899 42.904 70.5779 42.922 69.8399 42.94V43.318C70.7399 43.39 70.8839 43.588 70.8839 44.668ZM79.8053 53.2V46.468H79.5533C78.8333 46.576 78.2033 46.594 77.4293 46.612V46.99C78.3833 47.062 78.5453 47.26 78.5453 48.34V52.336C78.5453 53.56 77.8253 54.424 76.9073 54.424C76.1693 54.424 75.7373 53.956 75.7373 52.714V46.468H75.4853C74.7833 46.576 74.1713 46.594 73.4333 46.612V46.99C74.3333 47.062 74.4773 47.26 74.4773 48.34V52.768C74.4773 54.298 75.1793 55.18 76.5653 55.18C77.5013 55.18 78.2393 54.604 78.6173 53.722V55.072H78.7973C79.4993 54.964 80.1113 54.946 80.8493 54.928V54.55C79.9493 54.478 79.8053 54.28 79.8053 53.2ZM86.5241 53.452L84.8861 50.23L85.9481 48.25C86.5961 47.062 86.9201 47.008 87.6221 46.918V46.522C87.2081 46.594 86.8301 46.63 86.4701 46.63C86.0561 46.63 85.6241 46.594 85.1381 46.522V46.918C86.0741 46.99 86.0741 47.08 85.4441 48.25L84.5981 49.816L83.7521 48.124C83.2301 47.098 83.2121 47.008 84.0041 46.918V46.522C83.4641 46.594 82.9961 46.63 82.5461 46.63C82.0421 46.63 81.6281 46.594 81.0341 46.522V46.918C81.6101 46.99 81.8621 47.062 82.4021 48.106L83.8601 50.986L82.5821 53.308C81.9881 54.406 81.7721 54.532 81.0341 54.64V55.036C81.4301 54.964 81.7721 54.928 82.1321 54.928C82.5281 54.928 82.9241 54.964 83.3921 55.036V54.64C82.5281 54.532 82.4381 54.478 83.0861 53.308L84.1481 51.382L85.1741 53.434C85.6781 54.46 85.6961 54.568 84.9401 54.64V55.036C85.5341 54.964 86.0561 54.928 86.5421 54.928C87.0101 54.928 87.3881 54.964 87.8921 55.036V54.64C87.4061 54.568 87.0461 54.496 86.5241 53.452ZM94.2376 53.2V46.468H93.9856C93.2656 46.576 92.6356 46.594 91.8616 46.612V46.99C92.8156 47.062 92.9776 47.26 92.9776 48.34V52.336C92.9776 53.56 92.2576 54.424 91.3396 54.424C90.6016 54.424 90.1696 53.956 90.1696 52.714V46.468H89.9176C89.2156 46.576 88.6036 46.594 87.8656 46.612V46.99C88.7656 47.062 88.9096 47.26 88.9096 48.34V52.768C88.9096 54.298 89.6116 55.18 90.9976 55.18C91.9336 55.18 92.6716 54.604 93.0496 53.722V55.072H93.2296C93.9316 54.964 94.5436 54.946 95.2816 54.928V54.55C94.3816 54.478 94.2376 54.28 94.2376 53.2ZM99.6964 46.396C98.9044 46.396 98.2924 46.954 97.9324 47.836V46.468H97.7524C97.0504 46.576 96.4384 46.594 95.7004 46.612V46.99C96.6004 47.062 96.7444 47.26 96.7444 48.34V53.272C96.7444 54.388 96.6184 54.55 95.7724 54.64V55.036C96.3664 54.964 96.8884 54.928 97.3744 54.928H97.4824C98.0224 54.928 98.5984 54.964 99.2464 55.036V54.64C98.1664 54.55 98.0044 54.406 98.0044 53.272V49.78C98.0044 48.178 98.5984 47.026 99.3724 47.026C99.6784 47.026 99.8404 47.206 99.8404 47.512C99.8404 47.656 99.7864 47.782 99.7864 47.98C99.7864 48.358 100.056 48.574 100.416 48.574C100.902 48.574 101.082 48.178 101.082 47.71C101.082 47.008 100.614 46.396 99.6964 46.396ZM107.077 46.63C106.717 46.63 106.429 46.612 105.889 46.522V46.918C106.699 47.044 106.897 47.152 106.609 47.962L104.989 52.606L103.369 47.926C103.081 47.098 103.171 47.008 104.089 46.918V46.522C103.441 46.612 102.757 46.63 102.415 46.63C102.019 46.63 101.569 46.612 100.903 46.522V46.918C101.299 46.954 101.695 47.026 102.037 47.962L104.359 54.37L103.639 56.422C103.243 57.52 102.901 57.61 102.685 57.61C102.343 57.61 102.181 57.466 102.145 57.07C102.091 56.548 101.839 56.368 101.515 56.368C101.083 56.368 100.903 56.638 100.903 57.034C100.903 57.682 101.461 58.186 102.361 58.186C103.153 58.186 103.621 57.826 104.125 56.422L107.131 47.962C107.419 47.152 107.473 47.044 108.175 46.918V46.522C107.725 46.612 107.383 46.63 107.077 46.63ZM108.42 55.18C108.96 55.18 109.32 54.784 109.32 54.262C109.32 53.74 108.96 53.344 108.42 53.344C107.88 53.344 107.52 53.74 107.52 54.262C107.52 54.784 107.88 55.18 108.42 55.18Z" fill="white"/>
</svg>
