<svg width="80" height="35" viewBox="0 0 80 35" fill="none" xmlns="http://www.w3.org/2000/svg">
<path d="M31.9476 8.914C31.8036 11.56 30.6876 12.55 29.4816 12.55C27.5376 12.55 26.6376 10.642 26.6376 6.988C26.6376 3.406 27.4836 1.264 29.2656 1.264C30.6696 1.264 31.4796 2.272 31.8936 4.576H32.2176V0.795999H31.9656L31.5696 1.948C31.1196 1.318 30.3276 0.795999 29.2656 0.795999C27.0156 0.795999 25.1796 2.956 25.1796 6.988C25.1796 11.02 26.9256 13.18 29.2116 13.18C30.9216 13.18 32.2716 11.92 32.4156 8.914H31.9476ZM38.454 11.56V6.988C38.454 5.476 37.608 4.396 36.078 4.396C34.818 4.396 33.72 5.35 33.72 6.52C33.72 6.988 33.972 7.15 34.278 7.15C34.62 7.15 34.854 7.006 34.854 6.43C34.854 5.278 35.322 4.846 36.042 4.846C36.762 4.846 37.194 5.296 37.194 6.448V7.726C36.798 7.798 36.384 7.924 36.06 8.014C34.35 8.482 33.36 9.166 33.36 10.822C33.36 12.208 34.08 13.18 35.412 13.18C36.276 13.18 37.014 12.694 37.392 11.722V11.866C37.392 12.712 37.788 13.108 38.454 13.108C38.868 13.108 39.228 13.018 39.444 12.964V12.604C38.742 12.604 38.454 12.406 38.454 11.56ZM35.862 12.496C35.142 12.496 34.692 11.884 34.692 10.75C34.692 9.688 34.944 8.788 36.204 8.428C36.528 8.338 36.852 8.248 37.194 8.176V10.336C37.194 11.758 36.564 12.496 35.862 12.496ZM43.7054 4.396C42.9134 4.396 42.3014 4.954 41.9414 5.836V4.468H41.7614C41.0594 4.576 40.4474 4.594 39.7094 4.612V4.99C40.6094 5.062 40.7534 5.26 40.7534 6.34V11.272C40.7534 12.388 40.6274 12.55 39.7814 12.64V13.036C40.3754 12.964 40.8974 12.928 41.3834 12.928H41.4914C42.0314 12.928 42.6074 12.964 43.2554 13.036V12.64C42.1754 12.55 42.0134 12.406 42.0134 11.272V7.78C42.0134 6.178 42.6074 5.026 43.3814 5.026C43.6874 5.026 43.8494 5.206 43.8494 5.512C43.8494 5.656 43.7954 5.782 43.7954 5.98C43.7954 6.358 44.0654 6.574 44.4254 6.574C44.9114 6.574 45.0914 6.178 45.0914 5.71C45.0914 5.008 44.6234 4.396 43.7054 4.396ZM51.1241 8.554V8.392C51.1241 5.89 49.9361 4.396 48.3881 4.396C46.8041 4.396 45.4541 6.052 45.4541 8.806C45.4541 11.236 46.4081 13.18 48.4781 13.18C49.9721 13.18 50.9981 12.064 51.1241 10.174H50.6741C50.5661 11.74 49.7381 12.64 48.6941 12.64C47.3621 12.64 46.7861 11.362 46.7861 8.806V8.554H51.1241ZM48.3521 4.846C49.3601 4.846 49.8641 6.142 49.8641 8.104H46.8041C46.8941 6.052 47.3981 4.846 48.3521 4.846ZM55.4938 8.464L54.3238 7.834C53.5678 7.42 53.1178 7.042 53.1178 6.286C53.1178 5.368 53.6218 4.846 54.4678 4.846C55.4758 4.846 56.0338 5.89 56.2318 7.078H56.5738V4.342H56.2858L55.9978 5.152C55.6738 4.738 55.0978 4.396 54.3958 4.396C53.2978 4.396 52.1998 5.206 52.1998 6.646C52.1998 7.942 52.7578 8.464 53.6578 8.95L54.6478 9.49C55.4578 9.922 55.9798 10.39 55.9798 11.236C55.9798 12.154 55.4038 12.73 54.4318 12.73C53.2438 12.73 52.6678 11.722 52.4518 10.174H52.1098V13.234H52.3978L52.6678 12.388C53.0278 12.856 53.7118 13.18 54.4858 13.18C55.8898 13.18 56.9518 12.046 56.9518 10.732C56.9518 9.652 56.4118 8.95 55.4938 8.464ZM63.7093 1.102C64.1413 1.102 64.3933 1.336 64.3933 2.038C64.3933 2.416 64.5193 2.686 64.9153 2.686C65.3293 2.686 65.4553 2.434 65.4553 2.128C65.4553 1.12 64.5913 0.669999 63.7993 0.669999C62.8453 0.669999 61.7833 1.372 61.7833 3.532C61.7833 4.504 61.6213 4.594 60.3793 4.666V5.098H61.6573V11.272C61.6573 12.388 61.5313 12.55 60.6853 12.64V13.036C61.2793 12.964 61.8013 12.928 62.2873 12.928H62.3593C62.8813 12.928 63.4573 12.964 64.1053 13.036V12.64C63.0793 12.55 62.9173 12.406 62.9173 11.272V5.098H64.9333V4.576H62.9173V2.794C62.9173 1.678 63.1333 1.102 63.7093 1.102ZM68.0795 13.18C69.7715 13.18 71.1395 11.542 71.1395 8.788C71.1395 6.034 69.7715 4.396 68.0795 4.396C66.3875 4.396 65.0195 6.034 65.0195 8.788C65.0195 11.542 66.3875 13.18 68.0795 13.18ZM68.0795 12.73C66.8735 12.73 66.3515 11.326 66.3515 8.788C66.3515 6.25 66.8735 4.846 68.0795 4.846C69.2855 4.846 69.8075 6.25 69.8075 8.788C69.8075 11.326 69.2855 12.73 68.0795 12.73ZM75.8052 4.396C75.0132 4.396 74.4012 4.954 74.0412 5.836V4.468H73.8612C73.1592 4.576 72.5472 4.594 71.8092 4.612V4.99C72.7092 5.062 72.8532 5.26 72.8532 6.34V11.272C72.8532 12.388 72.7272 12.55 71.8812 12.64V13.036C72.4752 12.964 72.9972 12.928 73.4832 12.928H73.5912C74.1312 12.928 74.7072 12.964 75.3552 13.036V12.64C74.2752 12.55 74.1132 12.406 74.1132 11.272V7.78C74.1132 6.178 74.7072 5.026 75.4812 5.026C75.7872 5.026 75.9492 5.206 75.9492 5.512C75.9492 5.656 75.8952 5.782 75.8952 5.98C75.8952 6.358 76.1652 6.574 76.5252 6.574C77.0112 6.574 77.1912 6.178 77.1912 5.71C77.1912 5.008 76.7232 4.396 75.8052 4.396ZM9.99688 25.63C9.67288 25.63 9.29488 25.612 8.73688 25.522V25.918C9.54688 26.044 9.70888 26.152 9.52888 26.962L8.48488 31.678L6.27088 25.396H6.01888L4.14688 31.642L2.99488 26.926C2.79688 26.116 2.83288 26.008 3.75088 25.918V25.522C2.94088 25.63 2.45488 25.63 2.14888 25.63C1.77088 25.63 1.32088 25.612 0.690875 25.522V25.918C1.06888 25.954 1.51888 26.008 1.75288 26.962L3.57088 34.18H3.82288L5.83888 27.646L8.05288 34.18H8.30488L10.0149 26.962C10.2129 26.134 10.3569 26.044 11.0589 25.918V25.522C10.6269 25.612 10.4469 25.63 9.99688 25.63ZM17.2933 32.272V27.97C17.2933 26.368 16.5373 25.396 15.1873 25.396C14.3413 25.396 13.6393 25.846 13.2253 26.566V21.796H12.9733C12.2713 21.904 11.6593 21.922 10.9213 21.94V22.318C11.8213 22.39 11.9653 22.588 11.9653 23.668V32.272C11.9653 33.388 11.8393 33.55 10.9933 33.64V34.036C11.5873 33.964 12.1093 33.928 12.5953 33.928C13.0633 33.928 13.5493 33.964 14.1253 34.036V33.64C13.3333 33.55 13.2253 33.406 13.2253 32.272V28.24C13.2253 26.908 13.9993 25.954 14.9353 25.954C15.6373 25.954 16.0333 26.368 16.0333 27.502V32.272C16.0333 33.406 15.9253 33.55 15.1333 33.64V34.036C15.7093 33.964 16.1953 33.928 16.6633 33.928C17.1493 33.928 17.6713 33.964 18.2653 34.036V33.64C17.4193 33.55 17.2933 33.388 17.2933 32.272ZM23.9774 32.56V27.988C23.9774 26.476 23.1314 25.396 21.6014 25.396C20.3414 25.396 19.2434 26.35 19.2434 27.52C19.2434 27.988 19.4954 28.15 19.8014 28.15C20.1434 28.15 20.3774 28.006 20.3774 27.43C20.3774 26.278 20.8454 25.846 21.5654 25.846C22.2854 25.846 22.7174 26.296 22.7174 27.448V28.726C22.3214 28.798 21.9074 28.924 21.5834 29.014C19.8734 29.482 18.8834 30.166 18.8834 31.822C18.8834 33.208 19.6034 34.18 20.9354 34.18C21.7994 34.18 22.5374 33.694 22.9154 32.722V32.866C22.9154 33.712 23.3114 34.108 23.9774 34.108C24.3914 34.108 24.7514 34.018 24.9674 33.964V33.604C24.2654 33.604 23.9774 33.406 23.9774 32.56ZM21.3854 33.496C20.6654 33.496 20.2154 32.884 20.2154 31.75C20.2154 30.688 20.4674 29.788 21.7274 29.428C22.0514 29.338 22.3754 29.248 22.7174 29.176V31.336C22.7174 32.758 22.0874 33.496 21.3854 33.496ZM28.492 33.514C27.826 33.514 27.448 33.208 27.448 31.948V26.098H29.41V25.576H27.448V23.128H27.07C26.89 24.748 26.368 25.522 24.928 25.702V26.098H26.188V32.182C26.188 33.55 26.818 34.18 27.916 34.18C28.51 34.18 29.032 34.018 29.5 33.694V33.154C29.194 33.388 28.87 33.514 28.492 33.514ZM42.8026 32.272V27.97C42.8026 26.368 42.0646 25.396 40.7326 25.396C39.8326 25.396 39.1126 25.936 38.7346 26.8C38.4466 25.918 37.7986 25.396 36.8266 25.396C35.9806 25.396 35.3146 25.882 34.9186 26.656V25.468H34.7386C34.0366 25.576 33.4246 25.594 32.6866 25.612V25.99C33.5866 26.062 33.7306 26.26 33.7306 27.34V32.272C33.7306 33.388 33.6046 33.55 32.7586 33.64V34.036C33.3526 33.964 33.8746 33.928 34.3606 33.928C34.8286 33.928 35.3146 33.964 35.8906 34.036V33.64C35.0986 33.55 34.9906 33.406 34.9906 32.272V28.24C34.9906 26.908 35.7106 25.954 36.5926 25.954C37.2586 25.954 37.6366 26.368 37.6366 27.502V32.272C37.6366 33.406 37.5286 33.55 36.7366 33.64V34.036C37.3126 33.964 37.7986 33.928 38.2666 33.928C38.7346 33.928 39.2206 33.964 39.7966 34.036V33.64C39.0046 33.55 38.8966 33.406 38.8966 32.272V28.24C38.8966 26.908 39.6166 25.954 40.4986 25.954C41.1646 25.954 41.5426 26.368 41.5426 27.502V32.272C41.5426 33.406 41.4346 33.55 40.6426 33.64V34.036C41.2186 33.964 41.7046 33.928 42.1726 33.928C42.6586 33.928 43.1806 33.964 43.7746 34.036V33.64C42.9286 33.55 42.8026 33.388 42.8026 32.272ZM49.4847 32.56V27.988C49.4847 26.476 48.6387 25.396 47.1087 25.396C45.8487 25.396 44.7507 26.35 44.7507 27.52C44.7507 27.988 45.0027 28.15 45.3087 28.15C45.6507 28.15 45.8847 28.006 45.8847 27.43C45.8847 26.278 46.3527 25.846 47.0727 25.846C47.7927 25.846 48.2247 26.296 48.2247 27.448V28.726C47.8287 28.798 47.4147 28.924 47.0907 29.014C45.3807 29.482 44.3907 30.166 44.3907 31.822C44.3907 33.208 45.1107 34.18 46.4427 34.18C47.3067 34.18 48.0447 33.694 48.4227 32.722V32.866C48.4227 33.712 48.8187 34.108 49.4847 34.108C49.8987 34.108 50.2587 34.018 50.4747 33.964V33.604C49.7727 33.604 49.4847 33.406 49.4847 32.56ZM46.8927 33.496C46.1727 33.496 45.7227 32.884 45.7227 31.75C45.7227 30.688 45.9747 29.788 47.2347 29.428C47.5587 29.338 47.8827 29.248 48.2247 29.176V31.336C48.2247 32.758 47.5947 33.496 46.8927 33.496ZM53.9993 33.514C53.3333 33.514 52.9553 33.208 52.9553 31.948V26.098H54.9173V25.576H52.9553V23.128H52.5773C52.3973 24.748 51.8753 25.522 50.4353 25.702V26.098H51.6953V32.182C51.6953 33.55 52.3253 34.18 53.4233 34.18C54.0173 34.18 54.5393 34.018 55.0073 33.694V33.154C54.7013 33.388 54.3773 33.514 53.9993 33.514ZM58.5612 33.514C57.8952 33.514 57.5172 33.208 57.5172 31.948V26.098H59.4792V25.576H57.5172V23.128H57.1392C56.9592 24.748 56.4372 25.522 54.9972 25.702V26.098H56.2572V32.182C56.2572 33.55 56.8872 34.18 57.9852 34.18C58.5792 34.18 59.1012 34.018 59.5692 33.694V33.154C59.2632 33.388 58.9392 33.514 58.5612 33.514ZM65.574 29.554V29.392C65.574 26.89 64.386 25.396 62.838 25.396C61.254 25.396 59.904 27.052 59.904 29.806C59.904 32.236 60.858 34.18 62.928 34.18C64.422 34.18 65.448 33.064 65.574 31.174H65.124C65.016 32.74 64.188 33.64 63.144 33.64C61.812 33.64 61.236 32.362 61.236 29.806V29.554H65.574ZM62.802 25.846C63.81 25.846 64.314 27.142 64.314 29.104H61.254C61.344 27.052 61.848 25.846 62.802 25.846ZM70.2498 25.396C69.4578 25.396 68.8458 25.954 68.4858 26.836V25.468H68.3058C67.6038 25.576 66.9918 25.594 66.2538 25.612V25.99C67.1538 26.062 67.2978 26.26 67.2978 27.34V32.272C67.2978 33.388 67.1718 33.55 66.3258 33.64V34.036C66.9198 33.964 67.4418 33.928 67.9278 33.928H68.0358C68.5758 33.928 69.1518 33.964 69.7998 34.036V33.64C68.7198 33.55 68.5578 33.406 68.5578 32.272V28.78C68.5578 27.178 69.1518 26.026 69.9258 26.026C70.2318 26.026 70.3938 26.206 70.3938 26.512C70.3938 26.656 70.3398 26.782 70.3398 26.98C70.3398 27.358 70.6098 27.574 70.9698 27.574C71.4558 27.574 71.6358 27.178 71.6358 26.71C71.6358 26.008 71.1678 25.396 70.2498 25.396ZM75.5252 29.464L74.3552 28.834C73.5992 28.42 73.1492 28.042 73.1492 27.286C73.1492 26.368 73.6532 25.846 74.4992 25.846C75.5072 25.846 76.0652 26.89 76.2632 28.078H76.6052V25.342H76.3172L76.0292 26.152C75.7052 25.738 75.1292 25.396 74.4272 25.396C73.3292 25.396 72.2312 26.206 72.2312 27.646C72.2312 28.942 72.7892 29.464 73.6892 29.95L74.6792 30.49C75.4892 30.922 76.0112 31.39 76.0112 32.236C76.0112 33.154 75.4352 33.73 74.4632 33.73C73.2752 33.73 72.6992 32.722 72.4832 31.174H72.1412V34.234H72.4292L72.6992 33.388C73.0592 33.856 73.7432 34.18 74.5172 34.18C75.9212 34.18 76.9832 33.046 76.9832 31.732C76.9832 30.652 76.4432 29.95 75.5252 29.464ZM78.7799 34.18C79.3199 34.18 79.6799 33.784 79.6799 33.262C79.6799 32.74 79.3199 32.344 78.7799 32.344C78.2399 32.344 77.8799 32.74 77.8799 33.262C77.8799 33.784 78.2399 34.18 78.7799 34.18Z" fill="white"/>
</svg>
