<svg width="104" height="38" viewBox="0 0 104 38" fill="none" xmlns="http://www.w3.org/2000/svg">
<path d="M37.6242 1.48C39.0462 1.48 39.4062 2.056 39.7482 4H40.1082L39.8382 0.975999H33.1962V1.372C34.1862 1.426 34.3662 1.588 34.3662 2.812V11.092C34.3662 12.406 34.1862 12.532 33.1962 12.64V13.036C34.2942 12.946 34.4562 12.928 35.0502 12.928H35.1222C35.7882 12.928 36.0582 12.946 37.1562 13.036V12.64C35.9682 12.532 35.7342 12.424 35.7342 11.092V7.168H37.8942C38.5062 7.168 38.6862 7.492 38.7222 8.626H39.0822V5.206H38.7222C38.6682 6.34 38.5062 6.664 37.8942 6.664H35.7342V1.48H37.6242ZM43.5083 13.18C45.2003 13.18 46.5683 11.542 46.5683 8.788C46.5683 6.034 45.2003 4.396 43.5083 4.396C41.8163 4.396 40.4483 6.034 40.4483 8.788C40.4483 11.542 41.8163 13.18 43.5083 13.18ZM43.5083 12.73C42.3023 12.73 41.7803 11.326 41.7803 8.788C41.7803 6.25 42.3023 4.846 43.5083 4.846C44.7143 4.846 45.2363 6.25 45.2363 8.788C45.2363 11.326 44.7143 12.73 43.5083 12.73ZM51.234 4.396C50.442 4.396 49.83 4.954 49.47 5.836V4.468H49.29C48.588 4.576 47.976 4.594 47.238 4.612V4.99C48.138 5.062 48.282 5.26 48.282 6.34V11.272C48.282 12.388 48.156 12.55 47.31 12.64V13.036C47.904 12.964 48.426 12.928 48.912 12.928H49.02C49.56 12.928 50.136 12.964 50.784 13.036V12.64C49.704 12.55 49.542 12.406 49.542 11.272V7.78C49.542 6.178 50.136 5.026 50.91 5.026C51.216 5.026 51.378 5.206 51.378 5.512C51.378 5.656 51.324 5.782 51.324 5.98C51.324 6.358 51.594 6.574 51.954 6.574C52.44 6.574 52.62 6.178 52.62 5.71C52.62 5.008 52.152 4.396 51.234 4.396ZM60.8205 4.63C60.4605 4.63 60.1725 4.612 59.6325 4.522V4.918C60.4425 5.044 60.6405 5.152 60.3525 5.962L58.7325 10.606L57.1125 5.926C56.8245 5.098 56.9145 5.008 57.8325 4.918V4.522C57.1845 4.612 56.5005 4.63 56.1585 4.63C55.7625 4.63 55.3125 4.612 54.6465 4.522V4.918C55.0425 4.954 55.4385 5.026 55.7805 5.962L58.1025 12.37L57.3825 14.422C56.9865 15.52 56.6445 15.61 56.4285 15.61C56.0865 15.61 55.9245 15.466 55.8885 15.07C55.8345 14.548 55.5825 14.368 55.2585 14.368C54.8265 14.368 54.6465 14.638 54.6465 15.034C54.6465 15.682 55.2045 16.186 56.1045 16.186C56.8965 16.186 57.3645 15.826 57.8685 14.422L60.8745 5.962C61.1625 5.152 61.2165 5.044 61.9185 4.918V4.522C61.4685 4.612 61.1265 4.63 60.8205 4.63ZM64.9551 13.18C66.6471 13.18 68.0151 11.542 68.0151 8.788C68.0151 6.034 66.6471 4.396 64.9551 4.396C63.2631 4.396 61.8951 6.034 61.8951 8.788C61.8951 11.542 63.2631 13.18 64.9551 13.18ZM64.9551 12.73C63.7491 12.73 63.2271 11.326 63.2271 8.788C63.2271 6.25 63.7491 4.846 64.9551 4.846C66.1611 4.846 66.6831 6.25 66.6831 8.788C66.6831 11.326 66.1611 12.73 64.9551 12.73ZM74.9127 11.2V4.468H74.6607C73.9407 4.576 73.3107 4.594 72.5367 4.612V4.99C73.4907 5.062 73.6527 5.26 73.6527 6.34V10.336C73.6527 11.56 72.9327 12.424 72.0147 12.424C71.2767 12.424 70.8447 11.956 70.8447 10.714V4.468H70.5927C69.8907 4.576 69.2787 4.594 68.5407 4.612V4.99C69.4407 5.062 69.5847 5.26 69.5847 6.34V10.768C69.5847 12.298 70.2867 13.18 71.6727 13.18C72.6087 13.18 73.3467 12.604 73.7247 11.722V13.072H73.9047C74.6067 12.964 75.2187 12.946 75.9567 12.928V12.55C75.0567 12.478 74.9127 12.28 74.9127 11.2ZM84.6482 11.56V6.988C84.6482 5.476 83.8022 4.396 82.2722 4.396C81.0122 4.396 79.9142 5.35 79.9142 6.52C79.9142 6.988 80.1662 7.15 80.4722 7.15C80.8142 7.15 81.0482 7.006 81.0482 6.43C81.0482 5.278 81.5162 4.846 82.2362 4.846C82.9562 4.846 83.3882 5.296 83.3882 6.448V7.726C82.9922 7.798 82.5782 7.924 82.2542 8.014C80.5442 8.482 79.5542 9.166 79.5542 10.822C79.5542 12.208 80.2742 13.18 81.6062 13.18C82.4702 13.18 83.2082 12.694 83.5862 11.722V11.866C83.5862 12.712 83.9822 13.108 84.6482 13.108C85.0622 13.108 85.4222 13.018 85.6382 12.964V12.604C84.9362 12.604 84.6482 12.406 84.6482 11.56ZM82.0562 12.496C81.3362 12.496 80.8862 11.884 80.8862 10.75C80.8862 9.688 81.1382 8.788 82.3982 8.428C82.7222 8.338 83.0462 8.248 83.3882 8.176V10.336C83.3882 11.758 82.7582 12.496 82.0562 12.496ZM92.2755 11.272V6.97C92.2755 5.368 91.5195 4.396 90.1695 4.396C89.2695 4.396 88.5495 4.9 88.1355 5.692V4.468H87.9555C87.2535 4.576 86.6415 4.594 85.9035 4.612V4.99C86.8035 5.062 86.9475 5.26 86.9475 6.34V11.272C86.9475 12.388 86.8215 12.55 85.9755 12.64V13.036C86.5695 12.964 87.0915 12.928 87.5775 12.928C88.0455 12.928 88.5315 12.964 89.1075 13.036V12.64C88.3155 12.55 88.2075 12.406 88.2075 11.272V7.24C88.2075 5.908 88.9815 4.954 89.9175 4.954C90.6195 4.954 91.0155 5.368 91.0155 6.502V11.272C91.0155 12.406 90.9075 12.55 90.1155 12.64V13.036C90.6915 12.964 91.1775 12.928 91.6455 12.928C92.1315 12.928 92.6535 12.964 93.2475 13.036V12.64C92.4015 12.55 92.2755 12.388 92.2755 11.272ZM99.7135 11.2V0.795999H99.4615C98.7595 0.903999 98.1475 0.922 97.4095 0.94V1.318C98.3095 1.39 98.4535 1.588 98.4535 2.668V5.584C98.0575 4.792 97.4635 4.396 96.7255 4.396C95.2495 4.396 93.8275 6.07 93.8275 8.77C93.8275 11.452 94.9435 13.18 96.6535 13.18C97.4455 13.18 98.1115 12.676 98.5435 11.704V13.072H98.7055C99.4075 12.964 100.019 12.946 100.757 12.928V12.55C99.8575 12.478 99.7135 12.28 99.7135 11.2ZM96.8515 12.64C95.6815 12.64 95.1595 11.056 95.1595 8.752C95.1595 6.268 95.6635 4.846 96.7975 4.846C97.8235 4.846 98.5075 6.214 98.5075 8.752C98.5075 11.416 97.8235 12.64 96.8515 12.64ZM4.25553 33.514C3.58953 33.514 3.21153 33.208 3.21153 31.948V26.098H5.17353V25.576H3.21153V23.128H2.83353C2.65353 24.748 2.13153 25.522 0.691533 25.702V26.098H1.95153V32.182C1.95153 33.55 2.58153 34.18 3.67953 34.18C4.27353 34.18 4.79553 34.018 5.26353 33.694V33.154C4.95753 33.388 4.63353 33.514 4.25553 33.514ZM11.7874 32.272V27.97C11.7874 26.368 11.0314 25.396 9.68141 25.396C8.83541 25.396 8.13341 25.846 7.71941 26.566V21.796H7.46741C6.76541 21.904 6.15341 21.922 5.41541 21.94V22.318C6.31541 22.39 6.45941 22.588 6.45941 23.668V32.272C6.45941 33.388 6.33341 33.55 5.48741 33.64V34.036C6.08141 33.964 6.60341 33.928 7.08941 33.928C7.55741 33.928 8.04341 33.964 8.61941 34.036V33.64C7.82741 33.55 7.71941 33.406 7.71941 32.272V28.24C7.71941 26.908 8.49341 25.954 9.42941 25.954C10.1314 25.954 10.5274 26.368 10.5274 27.502V32.272C10.5274 33.406 10.4194 33.55 9.62741 33.64V34.036C10.2034 33.964 10.6894 33.928 11.1574 33.928C11.6434 33.928 12.1654 33.964 12.7594 34.036V33.64C11.9134 33.55 11.7874 33.388 11.7874 32.272ZM16.4015 34.18C18.0935 34.18 19.4615 32.542 19.4615 29.788C19.4615 27.034 18.0935 25.396 16.4015 25.396C14.7095 25.396 13.3415 27.034 13.3415 29.788C13.3415 32.542 14.7095 34.18 16.4015 34.18ZM16.4015 33.73C15.1955 33.73 14.6735 32.326 14.6735 29.788C14.6735 27.25 15.1955 25.846 16.4015 25.846C17.6075 25.846 18.1295 27.25 18.1295 29.788C18.1295 32.326 17.6075 33.73 16.4015 33.73ZM23.8211 29.464L22.6511 28.834C21.8951 28.42 21.4451 28.042 21.4451 27.286C21.4451 26.368 21.9491 25.846 22.7951 25.846C23.8031 25.846 24.3611 26.89 24.5591 28.078H24.9011V25.342H24.6131L24.3251 26.152C24.0011 25.738 23.4251 25.396 22.7231 25.396C21.6251 25.396 20.5271 26.206 20.5271 27.646C20.5271 28.942 21.0851 29.464 21.9851 29.95L22.9751 30.49C23.7851 30.922 24.3071 31.39 24.3071 32.236C24.3071 33.154 23.7311 33.73 22.7591 33.73C21.5711 33.73 20.9951 32.722 20.7791 31.174H20.4371V34.234H20.7251L20.9951 33.388C21.3551 33.856 22.0391 34.18 22.8131 34.18C24.2171 34.18 25.2791 33.046 25.2791 31.732C25.2791 30.652 24.7391 29.95 23.8211 29.464ZM31.7919 29.554V29.392C31.7919 26.89 30.6039 25.396 29.0559 25.396C27.4719 25.396 26.1219 27.052 26.1219 29.806C26.1219 32.236 27.0759 34.18 29.1459 34.18C30.6399 34.18 31.6659 33.064 31.7919 31.174H31.3419C31.2339 32.74 30.4059 33.64 29.3619 33.64C28.0299 33.64 27.4539 32.362 27.4539 29.806V29.554H31.7919ZM29.0199 25.846C30.0279 25.846 30.5319 27.142 30.5319 29.104H27.4719C27.5619 27.052 28.0659 25.846 29.0199 25.846ZM40.7443 32.56V27.988C40.7443 26.476 39.8984 25.396 38.3683 25.396C37.1083 25.396 36.0103 26.35 36.0103 27.52C36.0103 27.988 36.2623 28.15 36.5683 28.15C36.9103 28.15 37.1443 28.006 37.1443 27.43C37.1443 26.278 37.6124 25.846 38.3323 25.846C39.0524 25.846 39.4844 26.296 39.4844 27.448V28.726C39.0884 28.798 38.6744 28.924 38.3503 29.014C36.6403 29.482 35.6503 30.166 35.6503 31.822C35.6503 33.208 36.3703 34.18 37.7023 34.18C38.5664 34.18 39.3043 33.694 39.6824 32.722V32.866C39.6824 33.712 40.0783 34.108 40.7443 34.108C41.1583 34.108 41.5184 34.018 41.7344 33.964V33.604C41.0324 33.604 40.7443 33.406 40.7443 32.56ZM38.1524 33.496C37.4323 33.496 36.9823 32.884 36.9823 31.75C36.9823 30.688 37.2343 29.788 38.4943 29.428C38.8184 29.338 39.1423 29.248 39.4844 29.176V31.336C39.4844 32.758 38.8544 33.496 38.1524 33.496ZM45.9957 25.396C45.2037 25.396 44.5917 25.954 44.2317 26.836V25.468H44.0517C43.3497 25.576 42.7377 25.594 41.9997 25.612V25.99C42.8997 26.062 43.0437 26.26 43.0437 27.34V32.272C43.0437 33.388 42.9177 33.55 42.0717 33.64V34.036C42.6657 33.964 43.1877 33.928 43.6737 33.928H43.7817C44.3217 33.928 44.8977 33.964 45.5457 34.036V33.64C44.4657 33.55 44.3037 33.406 44.3037 32.272V28.78C44.3037 27.178 44.8977 26.026 45.6717 26.026C45.9777 26.026 46.1397 26.206 46.1397 26.512C46.1397 26.656 46.0857 26.782 46.0857 26.98C46.0857 27.358 46.3557 27.574 46.7157 27.574C47.2017 27.574 47.3817 27.178 47.3817 26.71C47.3817 26.008 46.9137 25.396 45.9957 25.396ZM50.7864 34.18C52.4784 34.18 53.8464 32.542 53.8464 29.788C53.8464 27.034 52.4784 25.396 50.7864 25.396C49.0944 25.396 47.7264 27.034 47.7264 29.788C47.7264 32.542 49.0944 34.18 50.7864 34.18ZM50.7864 33.73C49.5804 33.73 49.0584 32.326 49.0584 29.788C49.0584 27.25 49.5804 25.846 50.7864 25.846C51.9924 25.846 52.5144 27.25 52.5144 29.788C52.5144 32.326 51.9924 33.73 50.7864 33.73ZM60.744 32.2V25.468H60.492C59.772 25.576 59.142 25.594 58.368 25.612V25.99C59.322 26.062 59.484 26.26 59.484 27.34V31.336C59.484 32.56 58.764 33.424 57.846 33.424C57.108 33.424 56.676 32.956 56.676 31.714V25.468H56.424C55.722 25.576 55.11 25.594 54.372 25.612V25.99C55.272 26.062 55.416 26.26 55.416 27.34V31.768C55.416 33.298 56.118 34.18 57.504 34.18C58.44 34.18 59.178 33.604 59.556 32.722V34.072H59.736C60.438 33.964 61.05 33.946 61.788 33.928V33.55C60.888 33.478 60.744 33.28 60.744 32.2ZM68.5788 32.272V27.97C68.5788 26.368 67.8228 25.396 66.4728 25.396C65.5728 25.396 64.8528 25.9 64.4388 26.692V25.468H64.2588C63.5568 25.576 62.9448 25.594 62.2068 25.612V25.99C63.1068 26.062 63.2508 26.26 63.2508 27.34V32.272C63.2508 33.388 63.1248 33.55 62.2788 33.64V34.036C62.8728 33.964 63.3948 33.928 63.8808 33.928C64.3488 33.928 64.8348 33.964 65.4108 34.036V33.64C64.6188 33.55 64.5108 33.406 64.5108 32.272V28.24C64.5108 26.908 65.2848 25.954 66.2208 25.954C66.9228 25.954 67.3188 26.368 67.3188 27.502V32.272C67.3188 33.406 67.2108 33.55 66.4188 33.64V34.036C66.9948 33.964 67.4808 33.928 67.9488 33.928C68.4348 33.928 68.9568 33.964 69.5508 34.036V33.64C68.7048 33.55 68.5788 33.388 68.5788 32.272ZM76.0168 32.2V21.796H75.7648C75.0628 21.904 74.4508 21.922 73.7128 21.94V22.318C74.6128 22.39 74.7568 22.588 74.7568 23.668V26.584C74.3608 25.792 73.7668 25.396 73.0288 25.396C71.5528 25.396 70.1308 27.07 70.1308 29.77C70.1308 32.452 71.2468 34.18 72.9568 34.18C73.7488 34.18 74.4148 33.676 74.8468 32.704V34.072H75.0088C75.7108 33.964 76.3228 33.946 77.0608 33.928V33.55C76.1608 33.478 76.0168 33.28 76.0168 32.2ZM73.1548 33.64C71.9848 33.64 71.4628 32.056 71.4628 29.752C71.4628 27.268 71.9668 25.846 73.1008 25.846C74.1268 25.846 74.8108 27.214 74.8108 29.752C74.8108 32.416 74.1268 33.64 73.1548 33.64ZM85.695 25.63C85.335 25.63 85.047 25.612 84.507 25.522V25.918C85.317 26.044 85.515 26.152 85.227 26.962L83.607 31.606L81.987 26.926C81.699 26.098 81.789 26.008 82.707 25.918V25.522C82.059 25.612 81.375 25.63 81.033 25.63C80.637 25.63 80.187 25.612 79.521 25.522V25.918C79.917 25.954 80.313 26.026 80.655 26.962L82.977 33.37L82.257 35.422C81.861 36.52 81.519 36.61 81.303 36.61C80.961 36.61 80.799 36.466 80.763 36.07C80.709 35.548 80.457 35.368 80.133 35.368C79.701 35.368 79.521 35.638 79.521 36.034C79.521 36.682 80.079 37.186 80.979 37.186C81.771 37.186 82.239 36.826 82.743 35.422L85.749 26.962C86.037 26.152 86.091 26.044 86.793 25.918V25.522C86.343 25.612 86.001 25.63 85.695 25.63ZM89.8295 34.18C91.5215 34.18 92.8895 32.542 92.8895 29.788C92.8895 27.034 91.5215 25.396 89.8295 25.396C88.1375 25.396 86.7695 27.034 86.7695 29.788C86.7695 32.542 88.1375 34.18 89.8295 34.18ZM89.8295 33.73C88.6235 33.73 88.1015 32.326 88.1015 29.788C88.1015 27.25 88.6235 25.846 89.8295 25.846C91.0355 25.846 91.5575 27.25 91.5575 29.788C91.5575 32.326 91.0355 33.73 89.8295 33.73ZM99.7872 32.2V25.468H99.5352C98.8152 25.576 98.1852 25.594 97.4112 25.612V25.99C98.3652 26.062 98.5272 26.26 98.5272 27.34V31.336C98.5272 32.56 97.8072 33.424 96.8892 33.424C96.1512 33.424 95.7192 32.956 95.7192 31.714V25.468H95.4672C94.7652 25.576 94.1532 25.594 93.4152 25.612V25.99C94.3152 26.062 94.4592 26.26 94.4592 27.34V31.768C94.4592 33.298 95.1612 34.18 96.5472 34.18C97.4832 34.18 98.2212 33.604 98.5992 32.722V34.072H98.7792C99.4812 33.964 100.093 33.946 100.831 33.928V33.55C99.9312 33.478 99.7872 33.28 99.7872 32.2ZM102.42 34.18C102.96 34.18 103.32 33.784 103.32 33.262C103.32 32.74 102.96 32.344 102.42 32.344C101.88 32.344 101.52 32.74 101.52 33.262C101.52 33.784 101.88 34.18 102.42 34.18Z" fill="white"/>
</svg>
