<svg height="59.6" viewBox="0 0 164.128 59.6" width="164.128" xmlns="http://www.w3.org/2000/svg" xmlns:xlink="http://www.w3.org/1999/xlink"><clipPath id="a"><path d="m64.474-35.276c3.334 0 5.967-2.457 6.248-8.319h-.913c-.281 5.16-2.457 7.09-4.809 7.09-3.791 0-5.546-3.721-5.546-10.846 0-6.985 1.65-11.162 5.125-11.162 2.738 0 4.317 1.966 5.125 6.458h.632v-7.371h-.491l-.772 2.246a5.431 5.431 0 0 0 -4.493-2.246c-4.388 0-7.968 4.212-7.968 12.074s3.404 12.076 7.862 12.076zm12.776 0a4.052 4.052 0 0 0 3.861-2.843v.281c0 1.65.772 2.422 2.071 2.422a7.813 7.813 0 0 0 1.93-.281v-.7c-1.369 0-1.93-.386-1.93-2.036v-8.915c0-2.948-1.65-5.054-4.633-5.054a4.445 4.445 0 0 0 -4.6 4.142c0 .913.491 1.229 1.088 1.229.667 0 1.123-.281 1.123-1.4 0-2.246.913-3.089 2.317-3.089s2.246.877 2.246 3.124v2.492c-.772.14-1.579.386-2.211.562-3.335.913-5.265 2.246-5.265 5.476.002 2.694 1.406 4.59 4.003 4.59zm.878-1.334c-1.4 0-2.282-1.193-2.282-3.4 0-2.071.491-3.826 2.948-4.528.632-.175 1.264-.351 1.93-.491v4.212c.001 2.768-1.224 4.207-2.596 4.207zm15.128 1.053v-.772c-2.106-.171-2.422-.457-2.422-2.671v-6.809c0-3.124 1.158-5.37 2.668-5.37a.842.842 0 0 1 .913.948c0 .281-.105.527-.105.913a1.124 1.124 0 0 0 1.229 1.158c.948 0 1.3-.772 1.3-1.685a2.488 2.488 0 0 0 -2.7-2.562c-1.544 0-2.738 1.088-3.44 2.808v-2.668h-.351a29.829 29.829 0 0 1 -4 .281v.737c1.755.14 2.036.527 2.036 2.632v9.617c0 2.176-.246 2.492-1.9 2.668v.772a25.9 25.9 0 0 1 3.124-.211h.211a31.06 31.06 0 0 1 3.437.214zm11.092.281c2.913 0 4.914-2.176 5.16-5.862h-.877c-.211 3.054-1.825 4.809-3.861 4.809-2.6 0-3.721-2.492-3.721-7.476v-.495h8.459v-.316c0-4.879-2.317-7.792-5.335-7.792-3.089 0-5.721 3.229-5.721 8.6-.002 4.741 1.859 8.532 5.895 8.532zm2.7-9.9h-5.967c.175-4 1.158-6.353 3.019-6.353 1.967.001 2.95 2.529 2.95 6.355zm5.651 10 .527-1.65a4.5 4.5 0 0 0 3.545 1.544 4.786 4.786 0 0 0 4.809-4.774 4.721 4.721 0 0 0 -2.843-4.423l-2.28-1.221c-1.474-.807-2.352-1.544-2.352-3.019a2.488 2.488 0 0 1 2.632-2.808c1.966 0 3.054 2.036 3.44 4.352h.667v-5.335h-.562l-.562 1.579a3.986 3.986 0 0 0 -3.124-1.474 4.232 4.232 0 0 0 -4.282 4.388c0 2.527 1.088 3.545 2.843 4.493l1.931 1.053c1.579.842 2.6 1.755 2.6 3.4a2.74 2.74 0 0 1 -3.019 2.913c-2.317 0-3.44-1.966-3.861-4.984h-.667v5.967zm24.254-.386v-.772c-2-.175-2.317-.456-2.317-2.668v-12.034h3.931v-1.018h-3.931v-3.475c0-2.176.421-3.3 1.544-3.3.842 0 1.334.456 1.334 1.825 0 .737.246 1.264 1.018 1.264a.953.953 0 0 0 1.053-1.088c0-1.966-1.685-2.843-3.229-2.843-1.86 0-3.931 1.369-3.931 5.581 0 1.9-.316 2.071-2.738 2.211v.842h2.492v12.037c0 2.176-.246 2.492-1.9 2.668v.772a25.9 25.9 0 0 1 3.124-.211h.14a30.966 30.966 0 0 1 3.412.214zm9.2.281c3.3 0 5.967-3.194 5.967-8.564s-2.668-8.564-5.967-8.564-5.967 3.194-5.967 8.564 2.666 8.569 5.965 8.569zm0-.877c-2.352 0-3.37-2.738-3.37-7.687s1.018-7.687 3.37-7.687 3.37 2.738 3.37 7.687-1.023 7.691-3.372 7.691zm14.882.6v-.772c-2.106-.175-2.422-.456-2.422-2.668v-6.809c0-3.124 1.158-5.37 2.668-5.37a.842.842 0 0 1 .913.948c0 .281-.105.527-.105.913a1.124 1.124 0 0 0 1.229 1.158c.948 0 1.3-.772 1.3-1.685a2.488 2.488 0 0 0 -2.7-2.562c-1.544 0-2.738 1.088-3.44 2.808v-2.668h-.351a29.829 29.829 0 0 1 -4 .281v.737c1.755.14 2.036.527 2.036 2.632v9.615c0 2.176-.246 2.492-1.9 2.668v.772a25.9 25.9 0 0 1 3.124-.211h.211a31.06 31.06 0 0 1 3.436.214zm-154.441 35.382 3.931-12.741 4.317 12.741h.491l3.335-14.075c.386-1.615.667-1.79 2.036-2.036v-.772a8.14 8.14 0 0 1 -2.071.211 14.639 14.639 0 0 1 -2.457-.211v.772c1.58.246 1.9.456 1.544 2.036l-2.036 9.2-4.317-12.25h-.491l-3.65 12.176-2.246-9.2c-.386-1.579-.316-1.79 1.474-1.966v-.772a21.432 21.432 0 0 1 -3.124.211 19.215 19.215 0 0 1 -2.843-.211v.772c.737.07 1.615.176 2.071 2.036l3.542 14.079zm29.063-.281v-.772c-1.595-.17-1.877-.47-1.895-2.456v-8.6c0-3.124-1.474-5.019-4.107-5.019a4.347 4.347 0 0 0 -3.826 2.282v-9.3h-.491a29.83 29.83 0 0 1 -4 .281v.737c1.755.14 2.036.527 2.036 2.633v16.771c0 2.176-.246 2.492-1.9 2.668v.772a25.9 25.9 0 0 1 3.126-.208 23.764 23.764 0 0 1 2.983.211v-.772c-1.544-.171-1.754-.457-1.754-2.671v-7.862c0-2.6 1.509-4.458 3.334-4.458 1.369 0 2.141.807 2.141 3.019v9.3c0 2.211-.211 2.492-1.755 2.668v.772a23.764 23.764 0 0 1 2.983-.211 25.9 25.9 0 0 1 3.125.215zm5.9.281a4.052 4.052 0 0 0 3.861-2.843v.281c0 1.65.772 2.422 2.071 2.422a7.813 7.813 0 0 0 1.927-.284v-.7c-1.369 0-1.931-.386-1.931-2.036v-8.915c0-2.948-1.65-5.054-4.633-5.054a4.445 4.445 0 0 0 -4.6 4.142c0 .913.491 1.229 1.088 1.229.667 0 1.123-.281 1.123-1.4 0-2.246.913-3.089 2.317-3.089s2.246.878 2.246 3.124v2.492c-.772.14-1.579.386-2.211.562-3.333.908-5.263 2.245-5.263 5.471 0 2.702 1.404 4.598 4.001 4.598zm.878-1.334c-1.4 0-2.282-1.193-2.282-3.4 0-2.071.491-3.826 2.948-4.528.632-.175 1.264-.351 1.931-.491v4.212c-.004 2.768-1.232 4.207-2.601 4.207zm13.544 1.334a5.273 5.273 0 0 0 3.089-.948v-1.053a3.134 3.134 0 0 1 -1.966.7c-1.3 0-2.036-.6-2.036-3.054v-11.405h3.826v-1.018h-3.825v-4.774h-.737c-.351 3.159-1.369 4.668-4.177 5.019v.772h2.457v11.865c0 2.672 1.228 3.896 3.369 3.896zm32.328-.281v-.772c-1.595-.17-1.877-.47-1.895-2.456v-8.6c0-3.124-1.439-5.019-4.036-5.019a4.216 4.216 0 0 0 -3.9 2.738 3.677 3.677 0 0 0 -3.721-2.738 4.128 4.128 0 0 0 -3.721 2.457v-2.317h-.351a29.829 29.829 0 0 1 -4 .281v.737c1.755.14 2.036.527 2.036 2.633v9.613c0 2.176-.246 2.492-1.9 2.668v.772a25.9 25.9 0 0 1 3.124-.211 23.764 23.764 0 0 1 2.983.211v-.772c-1.538-.168-1.748-.454-1.748-2.668v-7.862c0-2.6 1.4-4.458 3.124-4.458 1.3 0 2.036.807 2.036 3.019v9.3c0 2.211-.211 2.492-1.755 2.668v.772a21.238 21.238 0 0 1 5.967 0v-.772c-1.55-.167-1.756-.453-1.756-2.667v-7.862c0-2.6 1.4-4.458 3.124-4.458 1.3 0 2.036.807 2.036 3.019v9.3c0 2.211-.211 2.492-1.755 2.668v.772a23.764 23.764 0 0 1 2.984-.211 25.9 25.9 0 0 1 3.124.215zm5.9.281a4.052 4.052 0 0 0 3.861-2.843v.281c0 1.65.772 2.422 2.071 2.422a7.813 7.813 0 0 0 1.93-.281v-.7c-1.369 0-1.93-.386-1.93-2.036v-8.915c0-2.948-1.65-5.054-4.633-5.054a4.445 4.445 0 0 0 -4.6 4.142c0 .913.491 1.229 1.088 1.229.667 0 1.123-.281 1.123-1.4 0-2.246.913-3.089 2.317-3.089s2.246.878 2.246 3.124v2.492c-.772.14-1.579.386-2.211.562-3.337.905-5.269 2.242-5.269 5.468 0 2.702 1.406 4.598 4 4.598zm.878-1.334c-1.4 0-2.282-1.193-2.282-3.4 0-2.071.491-3.826 2.948-4.528.632-.175 1.264-.351 1.93-.491v4.212c-.003 2.768-1.231 4.207-2.6 4.207zm13.544 1.334a5.273 5.273 0 0 0 3.089-.948v-1.053a3.134 3.134 0 0 1 -1.966.7c-1.3 0-2.036-.6-2.036-3.054v-11.405h3.826v-1.018h-3.826v-4.774h-.737c-.351 3.159-1.369 4.668-4.177 5.019v.772h2.457v11.865c.001 2.672 1.229 3.896 3.37 3.896zm9.582 0a5.273 5.273 0 0 0 3.089-.948v-1.053a3.134 3.134 0 0 1 -1.966.7c-1.3 0-2.036-.6-2.036-3.054v-11.405h3.826v-1.018h-3.824v-4.774h-.737c-.351 3.159-1.369 4.668-4.177 5.019v.772h2.457v11.865c-.001 2.672 1.228 3.896 3.369 3.896zm10.565 0c2.913 0 4.914-2.176 5.16-5.862h-.877c-.211 3.054-1.825 4.809-3.861 4.809-2.6 0-3.721-2.492-3.721-7.476v-.495h8.459v-.316c0-4.879-2.317-7.792-5.335-7.792-3.089 0-5.721 3.229-5.721 8.6 0 4.741 1.86 8.532 5.897 8.532zm2.7-9.9h-5.967c.176-4 1.158-6.353 3.019-6.353 1.972.001 2.952 2.529 2.952 6.355zm11.411 9.619v-.772c-2.106-.176-2.422-.456-2.422-2.668v-6.809c0-3.124 1.158-5.37 2.668-5.37a.842.842 0 0 1 .913.948c0 .281-.105.526-.105.913a1.124 1.124 0 0 0 1.229 1.158c.948 0 1.3-.772 1.3-1.685a2.488 2.488 0 0 0 -2.7-2.562c-1.544 0-2.738 1.088-3.44 2.808v-2.668h-.351a29.829 29.829 0 0 1 -4 .281v.737c1.755.14 2.036.527 2.036 2.633v9.613c0 2.176-.246 2.492-1.9 2.668v.772a25.9 25.9 0 0 1 3.124-.211h.211a31.06 31.06 0 0 1 3.437.214zm5.932.386.527-1.65a4.5 4.5 0 0 0 3.545 1.544 4.786 4.786 0 0 0 4.809-4.773 4.721 4.721 0 0 0 -2.843-4.423l-2.282-1.227c-1.474-.807-2.352-1.544-2.352-3.019a2.488 2.488 0 0 1 2.632-2.808c1.966 0 3.054 2.036 3.44 4.352h.667v-5.335h-.562l-.562 1.58a3.986 3.986 0 0 0 -3.124-1.474 4.232 4.232 0 0 0 -4.282 4.388c0 2.527 1.088 3.545 2.843 4.493l1.931 1.053c1.579.842 2.6 1.755 2.6 3.4a2.74 2.74 0 0 1 -3.019 2.913c-2.317 0-3.44-1.966-3.861-4.984h-.667v5.97zm13.092-.105a1.7 1.7 0 0 0 1.755-1.79 1.7 1.7 0 0 0 -1.755-1.79 1.7 1.7 0 0 0 -1.755 1.79 1.7 1.7 0 0 0 1.755 1.79z"/></clipPath><clipPath id="b"><path d="m-108 435h300v-600h-300z"/></clipPath><g clip-path="url(#a)" transform="translate(-.486 59.671)"><g clip-path="url(#b)"><path d="m-4.514-64.671h174.128v69.6h-174.128z" fill="#fff"/></g></g></svg>