<svg height="170.059" viewBox="0 0 132.327 170.059" width="132.327" xmlns="http://www.w3.org/2000/svg" xmlns:xlink="http://www.w3.org/1999/xlink"><clipPath id="a"><path d="m13.59-147 .6-5.756h-.7c-.842 3.756-1.334 4.774-4.212 4.774h-2.533c-1.509 0-1.72-.421-1.72-1.4v-9.266h4.075c1.193 0 1.544.632 1.615 2.843h.7v-6.669h-.7c-.105 2.211-.421 2.843-1.615 2.843h-4.075v-9.828h3.51c2.773 0 3.44.948 4.107 4.458h.7l-.491-5.44h-12.775v.772c1.93.105 2.282.421 2.282 2.808v16.286c0 2.387-.351 2.7-2.282 2.808v.767zm15.3.07v-.772c-.948-.14-1.65-.281-2.668-2.317l-3.19-6.281 2.071-3.861c1.264-2.317 1.9-2.422 3.264-2.6v-.772a13.06 13.06 0 0 1 -2.246.211 17.592 17.592 0 0 1 -2.6-.211v.772c1.825.14 1.825.316.6 2.6l-1.65 3.054-1.65-3.3c-1.018-2-1.053-2.176.491-2.352v-.772a21.3 21.3 0 0 1 -2.843.211 22.808 22.808 0 0 1 -2.948-.211v.772c1.123.14 1.615.281 2.668 2.317l2.843 5.616-2.493 4.526c-1.158 2.141-1.58 2.387-3.019 2.6v.772a11.628 11.628 0 0 1 2.141-.211 15.838 15.838 0 0 1 2.457.211v-.772c-1.685-.211-1.86-.316-.6-2.6l2.071-3.756 2 4c.983 2 1.018 2.211-.456 2.352v.772a25.9 25.9 0 0 1 3.124-.211 17.318 17.318 0 0 1 2.636.213zm7.441 6.037v-.772c-1.825-.176-2.106-.456-2.106-2.668v-4.567a3.706 3.706 0 0 0 3.334 2.246c2.878 0 5.651-3.264 5.651-8.529 0-5.23-2.176-8.6-5.511-8.6-1.509 0-2.808.948-3.65 2.808v-2.668h-.316a29.828 29.828 0 0 1 -4 .281v.737c1.755.14 2.036.527 2.036 2.633v15.655c0 2.176-.246 2.492-1.9 2.668v.772a25.9 25.9 0 0 1 3.131-.203h.07a28.134 28.134 0 0 1 3.265.207zm1.088-6.634c-2 0-3.334-2.668-3.334-7.617 0-5.195 1.334-7.582 3.229-7.582 2.281 0 3.3 3.089 3.3 7.582.003 4.844-.98 7.617-3.191 7.617zm14.11.878c2.913 0 4.914-2.176 5.16-5.862h-.877c-.211 3.054-1.825 4.809-3.861 4.809-2.6 0-3.721-2.492-3.721-7.476v-.491h8.459v-.316c0-4.879-2.317-7.792-5.335-7.792-3.089 0-5.721 3.229-5.721 8.6.003 4.737 1.867 8.528 5.9 8.528zm2.7-9.9h-5.96c.175-4 1.158-6.353 3.019-6.353 1.965.002 2.948 2.529 2.948 6.355zm11.407 9.617v-.772c-2.106-.176-2.422-.456-2.422-2.668v-6.809c0-3.124 1.158-5.37 2.668-5.37a.842.842 0 0 1 .913.948c0 .281-.105.526-.105.913a1.124 1.124 0 0 0 1.229 1.158c.948 0 1.3-.772 1.3-1.685a2.488 2.488 0 0 0 -2.7-2.562c-1.544 0-2.738 1.088-3.44 2.808v-2.668h-.349a29.828 29.828 0 0 1 -4 .281v.737c1.755.14 2.036.527 2.036 2.633v9.617c0 2.176-.246 2.492-1.9 2.668v.772a25.9 25.9 0 0 1 3.124-.211h.21a31.057 31.057 0 0 1 3.443.212zm7.933-19.656a1.631 1.631 0 0 0 1.685-1.72 1.631 1.631 0 0 0 -1.685-1.72 1.631 1.631 0 0 0 -1.685 1.72 1.631 1.631 0 0 0 1.692 1.722zm3.271 19.658v-.772c-1.65-.176-1.9-.491-1.9-2.668v-13.268h-.491a29.828 29.828 0 0 1 -4 .281v.737c1.755.14 2.036.527 2.036 2.633v9.617c0 2.176-.246 2.492-1.9 2.668v.772a25.9 25.9 0 0 1 3.124-.211 25.9 25.9 0 0 1 3.131.211zm7.933.281c2.913 0 4.914-2.176 5.16-5.862h-.877c-.211 3.054-1.825 4.809-3.861 4.809-2.6 0-3.721-2.492-3.721-7.476v-.491h8.459v-.316c0-4.879-2.317-7.792-5.335-7.792-3.089 0-5.721 3.229-5.721 8.6-.001 4.737 1.859 8.528 5.896 8.528zm2.7-9.9h-5.965c.175-4 1.158-6.353 3.019-6.353 1.966.002 2.948 2.529 2.948 6.355zm18.814 9.617v-.772c-1.65-.176-1.9-.491-1.9-2.668v-8.389c0-3.124-1.474-5.019-4.107-5.019a4.409 4.409 0 0 0 -3.966 2.527v-2.387h-.351a29.828 29.828 0 0 1 -4 .281v.737c1.755.14 2.036.527 2.036 2.633v9.617c0 2.176-.246 2.492-1.9 2.668v.772a25.9 25.9 0 0 1 3.124-.211 23.762 23.762 0 0 1 2.983.211v-.772c-1.544-.176-1.755-.456-1.755-2.668v-7.862c0-2.6 1.509-4.458 3.335-4.458 1.369 0 2.141.807 2.141 3.019v9.3c0 2.211-.211 2.492-1.755 2.668v.772a23.762 23.762 0 0 1 2.983-.211 25.9 25.9 0 0 1 3.134.214zm7.371.281c2.7 0 4.423-2.176 4.7-5.862h-.877c-.211 3.089-1.509 4.809-3.3 4.809-2.317 0-3.475-2.808-3.475-7.476 0-4.809 1.088-7.722 3.334-7.722 1.86 0 2.878 1.579 3.4 4.879h.667v-5.862h-.562l-.562 1.509a3.767 3.767 0 0 0 -2.913-1.4c-3.229 0-5.967 3.229-5.967 8.6.011 4.701 1.977 8.527 5.557 8.527zm12.952 0c2.913 0 4.914-2.176 5.16-5.862h-.878c-.211 3.054-1.825 4.809-3.861 4.809-2.6 0-3.721-2.492-3.721-7.476v-.491h8.459v-.316c0-4.879-2.317-7.792-5.335-7.792-3.089 0-5.721 3.229-5.721 8.6.002 4.739 1.862 8.53 5.899 8.53zm2.7-9.9h-5.967c.175-4 1.158-6.353 3.019-6.353 1.97.004 2.952 2.531 2.952 6.357zm-108.244 44.721v-.772c-2-.175-2.317-.456-2.317-2.668v-12.039h3.931v-1.018h-3.93v-3.473c0-2.176.421-3.3 1.544-3.3.842 0 1.334.456 1.334 1.825 0 .737.246 1.264 1.018 1.264a.953.953 0 0 0 1.054-1.089c0-1.966-1.685-2.843-3.229-2.843-1.86 0-3.931 1.369-3.931 5.581 0 1.9-.316 2.071-2.738 2.211v.842h2.492v12.039c0 2.176-.246 2.492-1.9 2.668v.772a25.9 25.9 0 0 1 3.124-.211h.14a30.967 30.967 0 0 1 3.408.211zm6-19.656a1.631 1.631 0 0 0 1.685-1.72 1.631 1.631 0 0 0 -1.685-1.72 1.631 1.631 0 0 0 -1.685 1.72 1.631 1.631 0 0 0 1.687 1.72zm3.264 19.656v-.772c-1.595-.17-1.877-.471-1.895-2.456v-13.479h-.491a29.828 29.828 0 0 1 -4 .281v.737c1.755.14 2.036.527 2.036 2.632v9.617c0 2.176-.246 2.492-1.9 2.668v.772a25.9 25.9 0 0 1 3.124-.211 25.9 25.9 0 0 1 3.129.211zm8.529 0v-.772c-2.106-.175-2.422-.456-2.422-2.668v-6.809c0-3.124 1.158-5.37 2.668-5.37a.842.842 0 0 1 .913.948c0 .281-.105.527-.105.913a1.124 1.124 0 0 0 1.229 1.158c.948 0 1.3-.772 1.3-1.685a2.488 2.488 0 0 0 -2.7-2.562c-1.544 0-2.738 1.088-3.44 2.808v-2.668h-.351a29.828 29.828 0 0 1 -4 .281v.737c1.755.14 2.036.527 2.036 2.632v9.617c0 2.176-.246 2.492-1.9 2.668v.772a25.9 25.9 0 0 1 3.124-.211h.211a31.061 31.061 0 0 1 3.44.211zm5.932.386.527-1.65a4.5 4.5 0 0 0 3.545 1.544 4.786 4.786 0 0 0 4.809-4.774 4.721 4.721 0 0 0 -2.843-4.423l-2.281-1.229c-1.474-.807-2.352-1.544-2.352-3.019a2.488 2.488 0 0 1 2.634-2.805c1.966 0 3.054 2.036 3.44 4.352h.667v-5.335h-.562l-.562 1.579a3.986 3.986 0 0 0 -3.124-1.474 4.232 4.232 0 0 0 -4.282 4.387c0 2.527 1.088 3.545 2.843 4.493l1.93 1.053c1.58.842 2.6 1.755 2.6 3.4a2.74 2.74 0 0 1 -3.019 2.913c-2.317 0-3.44-1.966-3.861-4.984h-.667v5.967zm16.146-.105a5.273 5.273 0 0 0 3.089-.948v-1.053a3.134 3.134 0 0 1 -1.966.7c-1.3 0-2.036-.6-2.036-3.054v-11.408h3.826v-1.018h-3.823v-4.77h-.737c-.351 3.159-1.369 4.668-4.177 5.019v.772h2.457v11.864c0 2.668 1.23 3.896 3.37 3.896zm12.32-9.407v-1.4h-7.057v1.4zm8.564 9.407c2.7 0 4.423-2.176 4.7-5.862h-.871c-.211 3.089-1.509 4.809-3.3 4.809-2.317 0-3.475-2.808-3.475-7.476 0-4.809 1.088-7.722 3.334-7.722 1.86 0 2.878 1.579 3.4 4.879h.667v-5.862h-.556l-.562 1.509a3.767 3.767 0 0 0 -2.913-1.4c-3.229 0-5.967 3.229-5.967 8.6 0 4.699 1.966 8.525 5.546 8.525zm12.882-.281v-.772c-1.65-.175-1.9-.491-1.9-2.668v-20.43h-.491a29.828 29.828 0 0 1 -4 .281v.737c1.755.14 2.036.527 2.036 2.633v16.778c0 2.176-.246 2.492-1.9 2.668v.772a25.9 25.9 0 0 1 3.124-.211 25.9 25.9 0 0 1 3.134.212zm6.072.281a4.052 4.052 0 0 0 3.861-2.843v.281c0 1.65.772 2.422 2.071 2.422a7.813 7.813 0 0 0 1.931-.281v-.7c-1.369 0-1.931-.386-1.931-2.036v-8.915c0-2.948-1.65-5.054-4.633-5.054a4.445 4.445 0 0 0 -4.6 4.142c0 .913.491 1.229 1.088 1.229.667 0 1.123-.281 1.123-1.4 0-2.246.913-3.089 2.317-3.089s2.246.878 2.246 3.124v2.492c-.772.14-1.579.386-2.211.562-3.335.913-5.265 2.246-5.265 5.476.005 2.695 1.409 4.59 4.006 4.59zm.878-1.334c-1.4 0-2.282-1.193-2.282-3.4 0-2.071.491-3.826 2.948-4.528.632-.175 1.264-.351 1.93-.491v4.212c.004 2.768-1.224 4.207-2.593 4.207zm9.372 1.439.527-1.65a4.5 4.5 0 0 0 3.545 1.544 4.786 4.786 0 0 0 4.809-4.774 4.721 4.721 0 0 0 -2.843-4.423l-2.282-1.229c-1.474-.807-2.352-1.544-2.352-3.019a2.488 2.488 0 0 1 2.633-2.808c1.966 0 3.054 2.036 3.44 4.352h.667v-5.335h-.562l-.562 1.579a3.986 3.986 0 0 0 -3.124-1.474 4.232 4.232 0 0 0 -4.282 4.387c0 2.527 1.088 3.545 2.843 4.493l1.931 1.053c1.579.842 2.6 1.755 2.6 3.4a2.74 2.74 0 0 1 -3.019 2.913c-2.317 0-3.44-1.966-3.861-4.984h-.667v5.967zm11.969 0 .527-1.65a4.5 4.5 0 0 0 3.545 1.544 4.786 4.786 0 0 0 4.809-4.774 4.721 4.721 0 0 0 -2.843-4.423l-2.282-1.229c-1.474-.807-2.352-1.544-2.352-3.019a2.488 2.488 0 0 1 2.632-2.808c1.966 0 3.054 2.036 3.44 4.352h.667v-5.335h-.562l-.562 1.579a3.986 3.986 0 0 0 -3.124-1.474 4.232 4.232 0 0 0 -4.282 4.387c0 2.527 1.088 3.545 2.843 4.493l1.931 1.053c1.579.842 2.6 1.755 2.6 3.4a2.74 2.74 0 0 1 -3.019 2.913c-2.317 0-3.44-1.966-3.861-4.984h-.667v5.967zm-85.15 34.995c2.7 0 4.423-2.176 4.7-5.862h-.874c-.211 3.089-1.509 4.809-3.3 4.809-2.317 0-3.475-2.808-3.475-7.476 0-4.809 1.088-7.722 3.334-7.722 1.86 0 2.878 1.58 3.4 4.879h.671v-5.862h-.56l-.562 1.509a3.767 3.767 0 0 0 -2.913-1.4c-3.229 0-5.967 3.229-5.967 8.6.002 4.699 1.966 8.525 5.546 8.525zm12.987 0c3.3 0 5.967-3.194 5.967-8.564s-2.668-8.564-5.967-8.564-5.967 3.194-5.967 8.564 2.668 8.564 5.967 8.564zm0-.878c-2.352 0-3.37-2.738-3.37-7.687s1.018-7.687 3.37-7.687 3.37 2.738 3.37 7.687-1.018 7.688-3.37 7.688zm29.589.6v-.773c-1.65-.175-1.9-.491-1.9-2.668v-8.389c0-3.124-1.439-5.019-4.037-5.019a4.216 4.216 0 0 0 -3.9 2.738 3.677 3.677 0 0 0 -3.721-2.738 4.128 4.128 0 0 0 -3.721 2.457v-2.317h-.341a29.83 29.83 0 0 1 -4 .281v.737c1.755.14 2.036.527 2.036 2.632v9.617c0 2.176-.246 2.492-1.9 2.668v.772a25.9 25.9 0 0 1 3.124-.211 23.763 23.763 0 0 1 2.984.211v-.771c-1.544-.175-1.755-.456-1.755-2.668v-7.862c0-2.6 1.4-4.458 3.124-4.458 1.3 0 2.036.807 2.036 3.019v9.3c0 2.211-.211 2.492-1.755 2.668v.772a23.763 23.763 0 0 1 2.984-.211 23.763 23.763 0 0 1 2.983.211v-.771c-1.493-.17-1.739-.438-1.754-2.453v-8.077c0-2.6 1.4-4.458 3.124-4.458 1.3 0 2.036.807 2.036 3.019v9.3c0 2.211-.211 2.492-1.755 2.668v.772a23.763 23.763 0 0 1 2.988-.211 25.9 25.9 0 0 1 3.12.21zm8.424 0v-.773c-2-.175-2.317-.456-2.317-2.668v-12.041h3.931v-1.018h-3.93v-3.473c0-2.176.421-3.3 1.544-3.3.842 0 1.334.456 1.334 1.825 0 .737.246 1.264 1.018 1.264a.953.953 0 0 0 1.053-1.089c0-1.966-1.685-2.843-3.229-2.843-1.86 0-3.931 1.369-3.931 5.581 0 1.9-.316 2.071-2.738 2.211v.842h2.492v12.039c0 2.176-.246 2.492-1.9 2.668v.772a25.9 25.9 0 0 1 3.129-.21h.14a30.965 30.965 0 0 1 3.404.21zm9.2.281c3.3 0 5.967-3.194 5.967-8.564s-2.668-8.564-5.967-8.564-5.967 3.194-5.967 8.564 2.664 8.561 5.963 8.561zm0-.878c-2.352 0-3.37-2.738-3.37-7.687s1.015-7.689 3.366-7.689 3.37 2.738 3.37 7.687-1.018 7.687-3.37 7.687zm14.882.6v-.776c-2.106-.175-2.422-.456-2.422-2.668v-6.809c0-3.124 1.158-5.37 2.668-5.37a.842.842 0 0 1 .913.948c0 .281-.105.527-.105.913a1.124 1.124 0 0 0 1.229 1.158c.948 0 1.3-.772 1.3-1.685a2.488 2.488 0 0 0 -2.7-2.562c-1.544 0-2.738 1.088-3.44 2.808v-2.668h-.351a29.83 29.83 0 0 1 -4 .281v.737c1.755.14 2.036.527 2.036 2.632v9.617c0 2.176-.246 2.492-1.9 2.668v.772a25.9 25.9 0 0 1 3.124-.211h.211a31.059 31.059 0 0 1 3.434.209zm10.109.281a5.273 5.273 0 0 0 3.089-.948v-1.059a3.134 3.134 0 0 1 -1.966.7c-1.3 0-2.036-.6-2.036-3.054v-11.405h3.826v-1.018h-3.826v-4.773h-.737c-.351 3.159-1.369 4.668-4.177 5.019v.772h2.457v11.864c-.003 2.668 1.226 3.896 3.367 3.896zm5.616 4.809a6.212 6.212 0 0 0 3.019-5.335c0-2.387-1.123-3.019-2.071-3.019a1.686 1.686 0 0 0 -1.755 1.79 1.677 1.677 0 0 0 1.755 1.755 1.841 1.841 0 0 0 1.158-.386v.07a5.5 5.5 0 0 1 -2.527 4.493zm-117.3 30.4.526-1.65a4.5 4.5 0 0 0 3.545 1.544 4.786 4.786 0 0 0 4.809-4.774 4.721 4.721 0 0 0 -2.843-4.423l-2.288-1.237c-1.474-.807-2.352-1.544-2.352-3.019a2.488 2.488 0 0 1 2.632-2.807c1.966 0 3.054 2.036 3.44 4.352h.667v-5.335h-.562l-.562 1.583a3.986 3.986 0 0 0 -3.124-1.474 4.232 4.232 0 0 0 -4.282 4.387c0 2.527 1.088 3.545 2.843 4.493l1.931 1.053c1.58.842 2.6 1.755 2.6 3.4a2.74 2.74 0 0 1 -3.019 2.913c-2.317 0-3.44-1.966-3.861-4.984h-.667v5.967zm15.269-.105a4.052 4.052 0 0 0 3.861-2.843v.281c0 1.65.772 2.422 2.071 2.422a7.813 7.813 0 0 0 1.931-.281v-.7c-1.369 0-1.931-.386-1.931-2.036v-8.915c0-2.948-1.65-5.054-4.633-5.054a4.445 4.445 0 0 0 -4.6 4.142c0 .913.491 1.229 1.088 1.229.667 0 1.123-.281 1.123-1.4 0-2.246.913-3.089 2.317-3.089s2.246.877 2.246 3.124v2.492c-.772.14-1.58.386-2.211.562-3.334.913-5.265 2.246-5.265 5.476-.006 2.685 1.397 4.58 3.995 4.58zm.878-1.334c-1.4 0-2.282-1.193-2.282-3.4 0-2.071.491-3.826 2.948-4.528.632-.176 1.264-.351 1.931-.491v4.212c-.008 2.758-1.237 4.197-2.606 4.197zm15.2 1.053v-.78c-2-.175-2.317-.456-2.317-2.668v-12.041h3.919v-1.018h-3.929v-3.473c0-2.176.421-3.3 1.544-3.3.842 0 1.334.456 1.334 1.825 0 .737.246 1.264 1.018 1.264a.953.953 0 0 0 1.053-1.089c0-1.966-1.685-2.843-3.229-2.843-1.86 0-3.931 1.369-3.931 5.581 0 1.9-.316 2.071-2.738 2.211v.842h2.492v12.039c0 2.176-.246 2.492-1.9 2.668v.772a25.9 25.9 0 0 1 3.124-.211h.14a30.966 30.966 0 0 1 3.41.211zm9.161.281c2.913 0 4.914-2.176 5.16-5.862h-.877c-.222 3.044-1.836 4.801-3.872 4.801-2.6 0-3.721-2.492-3.721-7.476v-.491h8.459v-.316c0-4.879-2.317-7.792-5.335-7.792-3.089 0-5.721 3.229-5.721 8.6 0 4.735 1.86 8.526 5.897 8.526zm2.7-9.9h-5.975c.175-4 1.158-6.353 3.019-6.353 1.966-.008 2.948 2.519 2.948 6.345zm9.828 9.9a5.273 5.273 0 0 0 3.089-.948v-1.063a3.134 3.134 0 0 1 -1.966.7c-1.3 0-2.036-.6-2.036-3.054v-11.405h3.826v-1.018h-3.833v-4.773h-.737c-.351 3.159-1.369 4.668-4.177 5.019v.772h2.457v11.864c0 2.668 1.228 3.896 3.37 3.896zm6.248 5.862c1.544 0 2.457-.7 3.44-3.44l5.862-16.5c.562-1.58.667-1.79 2.036-2.036v-.772a10.4 10.4 0 0 1 -2.141.211 12.465 12.465 0 0 1 -2.317-.211v.772c1.58.246 1.966.456 1.4 2.036l-3.159 9.056-3.159-9.126c-.562-1.615-.386-1.79 1.4-1.966v-.772a25.609 25.609 0 0 1 -3.264.211 20.807 20.807 0 0 1 -2.948-.211v.772c.772.07 1.544.211 2.211 2.036l4.528 12.5-1.4 4c-.772 2.141-1.439 2.317-1.86 2.317-.667 0-.983-.281-1.053-1.053-.105-1.018-.6-1.369-1.229-1.369-.842 0-1.193.526-1.193 1.3-.005 1.252 1.083 2.235 2.838 2.235zm23.026-5.862a4.052 4.052 0 0 0 3.861-2.843v.281c0 1.65.772 2.422 2.071 2.422a7.813 7.813 0 0 0 1.93-.281v-.7c-1.369 0-1.93-.386-1.93-2.036v-8.915c0-2.948-1.65-5.054-4.633-5.054a4.445 4.445 0 0 0 -4.6 4.142c0 .913.491 1.229 1.088 1.229.667 0 1.123-.281 1.123-1.4 0-2.246.913-3.089 2.317-3.089s2.246.877 2.246 3.124v2.492c-.772.14-1.579.386-2.211.562-3.334.913-5.265 2.246-5.265 5.476-.007 2.685 1.397 4.58 3.995 4.58zm.878-1.334c-1.4 0-2.282-1.193-2.282-3.4 0-2.071.491-3.826 2.948-4.528.632-.176 1.264-.351 1.93-.491v4.212c-.007 2.758-1.235 4.197-2.605 4.197zm22.534 1.053v-.78c-1.65-.175-1.9-.491-1.9-2.668v-8.389c0-3.124-1.474-5.019-4.107-5.019a4.409 4.409 0 0 0 -3.966 2.527v-2.387h-.351a29.83 29.83 0 0 1 -4 .281v.737c1.755.14 2.036.527 2.036 2.632v9.617c0 2.176-.246 2.492-1.9 2.668v.772a25.9 25.9 0 0 1 3.124-.211 23.764 23.764 0 0 1 2.983.211v-.771c-1.544-.175-1.755-.456-1.755-2.668v-7.862c0-2.6 1.509-4.458 3.334-4.458 1.369 0 2.141.807 2.141 3.019v9.3c0 2.211-.211 2.492-1.755 2.668v.772a23.764 23.764 0 0 1 2.983-.211 25.9 25.9 0 0 1 3.125.21zm7.336.281c1.544 0 2.843-.983 3.686-2.878v2.668h.316a29.83 29.83 0 0 1 4-.281v-.737c-1.755-.14-2.036-.527-2.036-2.632v-20.301h-.491a29.828 29.828 0 0 1 -4 .281v.737c1.755.14 2.036.526 2.036 2.632v5.686a3.676 3.676 0 0 0 -3.37-2.317c-2.878 0-5.651 3.264-5.651 8.529-.009 5.233 2.167 8.603 5.501 8.603zm.386-1.053c-2.282 0-3.3-3.089-3.3-7.582 0-4.844.983-7.617 3.194-7.617 2 0 3.334 2.668 3.334 7.617-.007 5.185-1.341 7.574-3.236 7.574zm-69.822 35.862v-.77c-1.65-.175-1.9-.491-1.9-2.668v-20.432h-.491a29.829 29.829 0 0 1 -4 .281v.737c1.755.14 2.036.527 2.036 2.632v16.78c0 2.176-.246 2.492-1.9 2.668v.772a23.274 23.274 0 0 1 6.248 0zm7.441.281a4.332 4.332 0 0 0 4-2.843v2.632h.351a29.829 29.829 0 0 1 4-.281v-.737c-1.755-.14-2.036-.526-2.036-2.632v-13.127h-.491a31.55 31.55 0 0 1 -4.142.281v.737c1.86.14 2.176.526 2.176 2.632v7.792c0 2.387-1.4 4.072-3.194 4.072-1.439 0-2.281-.913-2.281-3.335v-12.18h-.491a29.829 29.829 0 0 1 -4 .281v.737c1.755.14 2.036.526 2.036 2.632v8.635c0 2.984 1.369 4.704 4.072 4.704zm22.78-.281v-.77c-.948-.14-1.65-.281-2.668-2.317l-3.194-6.283 2.068-3.863c1.264-2.317 1.9-2.422 3.264-2.6v-.772a13.061 13.061 0 0 1 -2.246.211 17.594 17.594 0 0 1 -2.6-.211v.772c1.825.14 1.825.316.6 2.6l-1.65 3.054-1.65-3.3c-1.018-2-1.053-2.176.491-2.352v-.772a21.3 21.3 0 0 1 -2.843.211 22.809 22.809 0 0 1 -2.948-.211v.772c1.123.14 1.615.281 2.668 2.317l2.843 5.616-2.49 4.528c-1.158 2.141-1.579 2.387-3.019 2.6v.772a11.629 11.629 0 0 1 2.141-.211 15.839 15.839 0 0 1 2.457.211v-.772c-1.685-.211-1.86-.316-.6-2.6l2.071-3.756 2 4c.983 2 1.018 2.211-.456 2.352v.772a25.9 25.9 0 0 1 3.124-.211 17.32 17.32 0 0 1 2.637.213zm6.774.281a4.332 4.332 0 0 0 4-2.843v2.632h.351a29.829 29.829 0 0 1 4-.281v-.737c-1.755-.14-2.036-.526-2.036-2.632v-13.127h-.491a31.55 31.55 0 0 1 -4.142.281v.737c1.86.14 2.176.526 2.176 2.632v7.792c0 2.387-1.4 4.072-3.194 4.072-1.439 0-2.282-.913-2.282-3.335v-12.18h-.491a29.829 29.829 0 0 1 -4 .281v.737c1.755.14 2.036.526 2.036 2.632v8.635c.005 2.984 1.37 4.704 4.073 4.704zm16.778-.281v-.77c-2.106-.175-2.422-.456-2.422-2.668v-6.809c0-3.124 1.158-5.37 2.668-5.37a.842.842 0 0 1 .913.948c0 .281-.105.526-.105.913a1.124 1.124 0 0 0 1.229 1.158c.948 0 1.3-.772 1.3-1.685a2.488 2.488 0 0 0 -2.7-2.562c-1.544 0-2.738 1.088-3.44 2.808v-2.668h-.351a29.829 29.829 0 0 1 -4 .281v.737c1.755.14 2.036.526 2.036 2.632v9.615c0 2.176-.246 2.492-1.9 2.668v.772a25.9 25.9 0 0 1 3.126-.21h.211a31.06 31.06 0 0 1 3.435.21zm6.774 6.143c1.544 0 2.457-.7 3.44-3.44l5.862-16.5c.562-1.58.667-1.79 2.036-2.036v-.772a10.4 10.4 0 0 1 -2.141.211 12.465 12.465 0 0 1 -2.317-.211v.772c1.579.246 1.966.456 1.4 2.036l-3.159 9.056-3.159-9.126c-.562-1.615-.386-1.79 1.4-1.966v-.772a25.61 25.61 0 0 1 -3.264.211 20.808 20.808 0 0 1 -2.948-.211v.772c.772.07 1.544.211 2.211 2.036l4.528 12.5-1.4 4c-.772 2.141-1.439 2.317-1.86 2.317-.667 0-.983-.281-1.053-1.053-.105-1.018-.6-1.369-1.229-1.369-.842 0-1.193.526-1.193 1.3.003 1.262 1.091 2.245 2.846 2.245zm14.391-5.862a1.7 1.7 0 0 0 1.755-1.79 1.7 1.7 0 0 0 -1.755-1.79 1.7 1.7 0 0 0 -1.755 1.79 1.7 1.7 0 0 0 1.755 1.79z"/></clipPath><clipPath id="b"><path d="m-135 323h300v-600h-300z"/></clipPath><g clip-path="url(#a)" transform="translate(-.076 170.447)"><g clip-path="url(#b)"><path d="m-4.924-175.447h142.324v180.06h-142.324z" fill="#fff"/></g></g></svg>