<svg height="96.531" viewBox="0 0 136.399 96.531" width="136.399" xmlns="http://www.w3.org/2000/svg" xmlns:xlink="http://www.w3.org/1999/xlink"><clipPath id="a"><path d="m57.62-73.932v-.746c-2.239-.2-2.68-.407-2.68-2.918v-7.4h4.072c1.154 0 1.493.611 1.561 2.748h.679v-6.447h-.679c-.1 2.138-.407 2.748-1.561 2.748h-4.073v-9.772h3.561c2.68 0 3.359 1.086 4 4.75h.679l-.509-5.7h-12.515v.746c1.866.1 2.205.407 2.205 2.714v15.609c0 2.477-.339 2.714-2.205 2.918v.746c1.971-.162 2.342-.2 3.34-.2h.29a37.947 37.947 0 0 1 3.835.204zm13.267.271c3.189 0 5.768-3.088 5.768-8.279s-2.579-8.279-5.768-8.279-5.768 3.088-5.768 8.279 2.581 8.279 5.767 8.279zm0-.848c-2.273 0-3.257-2.647-3.257-7.431s.984-7.431 3.257-7.431 3.257 2.647 3.257 7.431-.984 7.431-3.258 7.431zm14.386.577v-.746c-2.036-.17-2.341-.441-2.341-2.579v-6.583c0-3.02 1.12-5.191 2.579-5.191a.814.814 0 0 1 .882.916c0 .271-.1.509-.1.882a1.087 1.087 0 0 0 1.188 1.12c.916 0 1.255-.746 1.255-1.629a2.4 2.4 0 0 0 -2.613-2.477c-1.493 0-2.647 1.052-3.325 2.714v-2.579h-.339a28.835 28.835 0 0 1 -3.868.271v.713c1.7.136 1.968.509 1.968 2.545v9.3c0 2.1-.238 2.409-1.832 2.579v.746a25.038 25.038 0 0 1 3.02-.2h.2a30.023 30.023 0 0 1 3.326.198zm12.792 5.938c1.493 0 2.375-.679 3.325-3.325l5.666-15.947c.543-1.527.645-1.73 1.968-1.968v-.746a10.053 10.053 0 0 1 -2.07.2 12.05 12.05 0 0 1 -2.239-.2v.746c1.527.238 1.9.441 1.357 1.968l-3.054 8.754-3.054-8.822c-.543-1.561-.373-1.73 1.357-1.9v-.746a24.756 24.756 0 0 1 -3.156.2 20.114 20.114 0 0 1 -2.85-.2v.746c.746.068 1.493.2 2.138 1.968l4.377 12.079-1.357 3.868c-.746 2.07-1.391 2.239-1.8 2.239-.645 0-.95-.271-1.018-1.018-.1-.984-.577-1.323-1.188-1.323-.814 0-1.154.509-1.154 1.255.003 1.222 1.055 2.172 2.751 2.172zm17.847-5.666c3.189 0 5.768-3.088 5.768-8.279s-2.579-8.279-5.768-8.279-5.768 3.088-5.768 8.279 2.578 8.278 5.768 8.278zm0-.848c-2.273 0-3.257-2.647-3.257-7.431s.984-7.431 3.257-7.431 3.257 2.647 3.257 7.431-.984 7.43-3.257 7.43zm13.334.848a4.188 4.188 0 0 0 3.868-2.748v2.545h.339a28.833 28.833 0 0 1 3.868-.271v-.713c-1.7-.136-1.968-.509-1.968-2.545v-12.69h-.475a30.5 30.5 0 0 1 -4 .271v.713c1.8.136 2.1.509 2.1 2.545v7.532c0 2.307-1.357 3.936-3.088 3.936-1.391 0-2.205-.882-2.205-3.223v-11.775h-.475a28.836 28.836 0 0 1 -3.868.271v.713c1.7.136 1.968.509 1.968 2.545v8.347c0 2.884 1.323 4.546 3.936 4.546zm-98.329 33.929a3.917 3.917 0 0 0 3.732-2.748v.271c0 1.595.746 2.341 2 2.341a7.552 7.552 0 0 0 1.866-.271v-.679c-1.323 0-1.866-.373-1.866-1.968v-8.615c0-2.85-1.595-4.886-4.479-4.886a4.3 4.3 0 0 0 -4.445 4c0 .882.475 1.188 1.052 1.188.645 0 1.086-.271 1.086-1.357 0-2.172.882-2.986 2.239-2.986s2.172.848 2.172 3.02v2.409c-.746.136-1.527.373-2.138.543-3.223.882-5.09 2.172-5.09 5.293.003 2.613 1.36 4.445 3.871 4.445zm.848-1.289c-1.357 0-2.205-1.154-2.205-3.291 0-2 .475-3.7 2.85-4.377.611-.17 1.221-.339 1.866-.475v4.072c0 2.68-1.188 4.071-2.511 4.071zm21.783 1.02v-.746c-1.542-.164-1.815-.455-1.831-2.374v-8.314c0-3.02-1.425-4.852-3.97-4.852a4.262 4.262 0 0 0 -3.834 2.443v-2.307h-.339a28.836 28.836 0 0 1 -3.868.271v.713c1.7.136 1.968.509 1.968 2.545v9.3c0 2.1-.238 2.409-1.832 2.579v.742a25.04 25.04 0 0 1 3.02-.2 22.972 22.972 0 0 1 2.884.2v-.746c-1.493-.17-1.7-.441-1.7-2.579v-7.6c0-2.511 1.459-4.309 3.223-4.309 1.323 0 2.07.78 2.07 2.918v8.991c0 2.138-.2 2.409-1.7 2.579v.746a22.972 22.972 0 0 1 2.884-.2 25.04 25.04 0 0 1 3.025.2zm7.091.271c1.493 0 2.748-.95 3.563-2.782v2.579h.305a28.835 28.835 0 0 1 3.868-.271v-.713c-1.7-.136-1.968-.509-1.968-2.545v-19.614h-.475a28.835 28.835 0 0 1 -3.868.271v.713c1.7.136 1.968.509 1.968 2.545v5.5a3.554 3.554 0 0 0 -3.257-2.239c-2.782 0-5.463 3.155-5.463 8.245.001 5.052 2.104 8.309 5.328 8.309zm.373-1.018c-2.205 0-3.189-2.986-3.189-7.329 0-4.682.95-7.363 3.088-7.363 1.934 0 3.223 2.579 3.223 7.363 0 5.02-1.289 7.327-3.121 7.327zm20.12 1.018a5.1 5.1 0 0 0 2.986-.916v-1.018a3.03 3.03 0 0 1 -1.9.679c-1.255 0-1.968-.577-1.968-2.952v-11.029h3.7v-.984h-3.7v-4.614h-.713c-.339 3.054-1.323 4.513-4.038 4.852v.746h2.375v11.465c.002 2.582 1.19 3.769 3.259 3.769zm17.781-.271v-.746c-1.595-.17-1.832-.475-1.832-2.579v-8.109c0-3.02-1.425-4.852-3.97-4.852a4.2 4.2 0 0 0 -3.7 2.205v-8.991h-.475a28.835 28.835 0 0 1 -3.868.271v.713c1.7.136 1.968.509 1.968 2.545v16.219c0 2.1-.238 2.409-1.832 2.579v.745a25.04 25.04 0 0 1 3.02-.2 22.972 22.972 0 0 1 2.884.2v-.746c-1.443-.164-1.682-.423-1.7-2.371v-7.808c0-2.511 1.459-4.309 3.223-4.309 1.323 0 2.07.78 2.07 2.918v8.991c0 2.138-.2 2.409-1.7 2.579v.746a22.972 22.972 0 0 1 2.884-.2 25.04 25.04 0 0 1 3.028.2zm7.532.271c3.189 0 5.768-3.088 5.768-8.279s-2.579-8.279-5.768-8.279-5.768 3.088-5.768 8.279 2.579 8.277 5.768 8.277zm0-.848c-2.273 0-3.257-2.647-3.257-7.431s.984-7.431 3.257-7.431 3.257 2.647 3.257 7.431-.984 7.429-3.257 7.429zm8.822.95.509-1.595a4.347 4.347 0 0 0 3.427 1.493 4.626 4.626 0 0 0 4.648-4.614 4.564 4.564 0 0 0 -2.751-4.277l-2.2-1.188c-1.425-.78-2.273-1.493-2.273-2.918a2.4 2.4 0 0 1 2.545-2.714c1.9 0 2.952 1.968 3.325 4.207h.645v-5.157h-.542l-.543 1.527a3.853 3.853 0 0 0 -3.02-1.425 4.091 4.091 0 0 0 -4.139 4.241c0 2.443 1.052 3.427 2.748 4.343l1.866 1.018c1.527.814 2.511 1.7 2.511 3.291a2.649 2.649 0 0 1 -2.918 2.816c-2.239 0-3.325-1.9-3.732-4.818h-.645v5.768zm16.558-.1c2.816 0 4.75-2.1 4.988-5.666h-.848c-.2 2.952-1.764 4.648-3.732 4.648-2.511 0-3.6-2.409-3.6-7.227v-.475h8.177v-.305c0-4.716-2.239-7.532-5.157-7.532-2.986 0-5.531 3.122-5.531 8.313.002 4.571 1.801 8.24 5.703 8.24zm2.613-9.568h-5.768c.17-3.868 1.12-6.141 2.918-6.141 1.899-.004 2.849 2.436 2.849 6.136zm-129.647 43.495a3.917 3.917 0 0 0 3.732-2.749v.271c0 1.595.746 2.341 2 2.341a7.552 7.552 0 0 0 1.866-.271v-.679c-1.323 0-1.866-.373-1.866-1.968v-8.618c0-2.85-1.595-4.886-4.479-4.886a4.3 4.3 0 0 0 -4.445 4c0 .882.475 1.188 1.052 1.188.645 0 1.086-.271 1.086-1.357 0-2.172.882-2.986 2.239-2.986s2.172.848 2.172 3.02v2.409c-.746.136-1.527.373-2.138.543-3.223.882-5.09 2.172-5.09 5.293.003 2.616 1.36 4.449 3.871 4.449zm.848-1.29c-1.357 0-2.205-1.154-2.205-3.291 0-2 .475-3.7 2.85-4.377.611-.17 1.221-.339 1.866-.475v4.072c0 2.68-1.188 4.071-2.511 4.071zm14.624 1.018v-.746c-2.036-.17-2.341-.441-2.341-2.579v-6.583c0-3.02 1.12-5.191 2.579-5.191a.814.814 0 0 1 .882.916c0 .271-.1.509-.1.882a1.087 1.087 0 0 0 1.188 1.12c.916 0 1.255-.746 1.255-1.629a2.4 2.4 0 0 0 -2.613-2.477c-1.493 0-2.647 1.052-3.325 2.714v-2.579h-.339a28.835 28.835 0 0 1 -3.868.271v.713c1.7.136 1.968.509 1.968 2.545v9.3c0 2.1-.238 2.409-1.832 2.579v.746a25.04 25.04 0 0 1 3.02-.2h.2a30.025 30.025 0 0 1 3.326.198zm10.756.272c3.189 0 5.768-3.088 5.768-8.279s-2.579-8.279-5.768-8.279-5.768 3.088-5.768 8.279 2.578 8.279 5.768 8.279zm0-.848c-2.273 0-3.257-2.647-3.257-7.431s.984-7.431 3.257-7.431 3.257 2.647 3.257 7.431-.984 7.43-3.257 7.43zm13.334.848a4.188 4.188 0 0 0 3.868-2.748v2.548h.339a28.835 28.835 0 0 1 3.868-.271v-.713c-1.7-.136-1.968-.509-1.968-2.545v-12.69h-.475a30.5 30.5 0 0 1 -4 .271v.713c1.8.136 2.1.509 2.1 2.545v7.532c0 2.307-1.357 3.936-3.088 3.936-1.391 0-2.205-.882-2.205-3.223v-11.778h-.475a28.835 28.835 0 0 1 -3.868.271v.713c1.7.136 1.968.509 1.968 2.545v8.347c0 2.884 1.324 4.547 3.936 4.547zm23.378-.271v-.746c-1.595-.171-1.831-.477-1.831-2.583v-8.109c0-3.02-1.425-4.852-3.97-4.852a4.262 4.262 0 0 0 -3.834 2.443v-2.307h-.339a28.835 28.835 0 0 1 -3.868.271v.713c1.7.136 1.968.509 1.968 2.545v9.3c0 2.1-.238 2.409-1.832 2.579v.746a25.04 25.04 0 0 1 3.02-.2 22.972 22.972 0 0 1 2.884.2v-.746c-1.493-.17-1.7-.441-1.7-2.579v-7.604c0-2.511 1.459-4.309 3.223-4.309 1.323 0 2.07.78 2.07 2.918v8.991c0 2.138-.2 2.409-1.7 2.579v.746a22.972 22.972 0 0 1 2.884-.2 25.04 25.04 0 0 1 3.025.203zm7.091.271c1.493 0 2.748-.95 3.563-2.782v2.582h.305a28.835 28.835 0 0 1 3.868-.271v-.713c-1.7-.136-1.968-.509-1.968-2.545v-19.616h-.475a28.835 28.835 0 0 1 -3.868.271v.713c1.7.136 1.968.509 1.968 2.545v5.5a3.554 3.554 0 0 0 -3.257-2.239c-2.782 0-5.463 3.155-5.463 8.245.005 5.052 2.105 8.31 5.327 8.31zm.378-1.019c-2.205 0-3.189-2.986-3.189-7.329 0-4.682.95-7.363 3.088-7.363 1.934 0 3.223 2.579 3.223 7.363-.005 5.022-1.294 7.329-3.122 7.329zm16.9 6.684c1.493 0 2.375-.679 3.325-3.325l5.666-15.947c.543-1.527.645-1.73 1.968-1.968v-.746a10.053 10.053 0 0 1 -2.07.2 12.05 12.05 0 0 1 -2.239-.2v.746c1.527.238 1.9.441 1.357 1.968l-3.054 8.754-3.054-8.822c-.543-1.561-.373-1.73 1.357-1.9v-.746a24.756 24.756 0 0 1 -3.155.2 20.114 20.114 0 0 1 -2.85-.2v.746c.746.068 1.493.2 2.138 1.968l4.37 12.079-1.359 3.868c-.746 2.07-1.391 2.239-1.8 2.239-.645 0-.95-.271-1.018-1.018-.1-.984-.577-1.323-1.188-1.323-.814 0-1.154.509-1.154 1.255.004 1.223 1.06 2.173 2.753 2.173zm17.84-5.665c3.189 0 5.768-3.088 5.768-8.279s-2.579-8.279-5.768-8.279-5.768 3.088-5.768 8.279 2.579 8.279 5.768 8.279zm0-.848c-2.273 0-3.257-2.647-3.257-7.431s.984-7.431 3.257-7.431 3.257 2.647 3.257 7.431-.984 7.43-3.257 7.43zm13.334.848a4.188 4.188 0 0 0 3.868-2.748v2.548h.339a28.836 28.836 0 0 1 3.868-.271v-.713c-1.7-.136-1.968-.509-1.968-2.545v-12.69h-.475a30.5 30.5 0 0 1 -4 .271v.713c1.8.136 2.1.509 2.1 2.545v7.532c0 2.307-1.357 3.936-3.088 3.936-1.391 0-2.205-.882-2.205-3.223v-11.778h-.475a28.835 28.835 0 0 1 -3.868.271v.713c1.7.136 1.968.509 1.968 2.545v8.347c.001 2.884 1.324 4.547 3.936 4.547zm11.74 0a1.648 1.648 0 0 0 1.7-1.73 1.648 1.648 0 0 0 -1.7-1.73 1.648 1.648 0 0 0 -1.7 1.73 1.648 1.648 0 0 0 1.7 1.73z"/></clipPath><clipPath id="b"><path d="m-131 396h300v-600h-300z"/></clipPath><g clip-path="url(#a)" transform="translate(-.923 96.665)"><g clip-path="url(#b)"><path d="m-4.077-101.665h146.4v106.531h-146.4z" fill="#fff"/></g></g></svg>