<?xml version="1.0" encoding="UTF-8"?>
<svg width="50px" height="261px" viewBox="0 0 50 261" version="1.1" xmlns="http://www.w3.org/2000/svg" xmlns:xlink="http://www.w3.org/1999/xlink">
    <title>logo</title>
    <defs>
        <linearGradient x1="11.6613419%" y1="18.4134566%" x2="88.3386581%" y2="81.5865434%" id="linearGradient-1">
            <stop stop-color="#FFFFFF" offset="0%"></stop>
            <stop stop-color="#E7E8E6" offset="10%"></stop>
            <stop stop-color="#CDD0D0" offset="10%"></stop>
            <stop stop-color="#B5BBBD" offset="20%"></stop>
            <stop stop-color="#A5ACAF" offset="20%"></stop>
            <stop stop-color="#9BA3A7" offset="30%"></stop>
            <stop stop-color="#98A0A4" offset="30%"></stop>
            <stop stop-color="#828A8F" offset="40%"></stop>
            <stop stop-color="#667075" offset="50%"></stop>
            <stop stop-color="#535C63" offset="60%"></stop>
            <stop stop-color="#475158" offset="70%"></stop>
            <stop stop-color="#434D54" offset="80%"></stop>
            <stop stop-color="#475157" offset="100%"></stop>
        </linearGradient>
        <linearGradient x1="11.7346939%" y1="18.3797822%" x2="88.2653061%" y2="81.6202178%" id="linearGradient-2">
            <stop stop-color="#0B1F2A" offset="0%"></stop>
            <stop stop-color="#333F47" offset="20%"></stop>
            <stop stop-color="#777F84" offset="50%"></stop>
            <stop stop-color="#81898D" offset="50%"></stop>
            <stop stop-color="#B3B8B8" offset="70%"></stop>
            <stop stop-color="#D2D5D3" offset="80%"></stop>
            <stop stop-color="#DEE0DD" offset="80%"></stop>
            <stop stop-color="#FBFBFB" offset="100%"></stop>
        </linearGradient>
        <linearGradient x1="67.1446875%" y1="96.2774403%" x2="32.9259375%" y2="3.7443864%" id="linearGradient-3">
            <stop stop-color="#E1E3E1" offset="0%"></stop>
            <stop stop-color="#C1C5C4" offset="10%"></stop>
            <stop stop-color="#9BA1A2" offset="30%"></stop>
            <stop stop-color="#7D8487" offset="50%"></stop>
            <stop stop-color="#687074" stop-opacity="0" offset="70%"></stop>
            <stop stop-color="#5B6469" stop-opacity="0" offset="80%"></stop>
            <stop stop-color="#576065" stop-opacity="0" offset="100%"></stop>
        </linearGradient>
        <linearGradient x1="25%" y1="7.40690473%" x2="75%" y2="92.5930953%" id="linearGradient-4">
            <stop stop-color="#E1E3E1" offset="0%"></stop>
            <stop stop-color="#C1C5C4" offset="10%"></stop>
            <stop stop-color="#9BA1A2" offset="30%"></stop>
            <stop stop-color="#7D8487" offset="50%"></stop>
            <stop stop-color="#687074" stop-opacity="0" offset="70%"></stop>
            <stop stop-color="#5B6469" stop-opacity="0" offset="80%"></stop>
            <stop stop-color="#576065" stop-opacity="0" offset="100%"></stop>
        </linearGradient>
        <linearGradient x1="50.4098361%" y1="49.3302336%" x2="43.442623%" y2="55.8349333%" id="linearGradient-5">
            <stop stop-color="#27343C" offset="0%"></stop>
            <stop stop-color="#00111E" stop-opacity="0" offset="100%"></stop>
        </linearGradient>
        <linearGradient x1="52.9648348%" y1="91.1439114%" x2="51.3370824%" y2="74.5387454%" id="linearGradient-6">
            <stop stop-color="#02131F" offset="10%"></stop>
            <stop stop-color="#02131F" stop-opacity="0" offset="90%"></stop>
        </linearGradient>
        <linearGradient x1="100.406504%" y1="42.389764%" x2="83.3333333%" y2="45.1433496%" id="linearGradient-7">
            <stop stop-color="#02131F" offset="20%"></stop>
            <stop stop-color="#02131F" stop-opacity="0" offset="90%"></stop>
        </linearGradient>
        <linearGradient x1="53.164557%" y1="54.9112007%" x2="50.6329114%" y2="51.3097186%" id="linearGradient-8">
            <stop stop-color="#02131F" offset="0%"></stop>
            <stop stop-color="#02131F" offset="10%"></stop>
            <stop stop-color="#02131F" stop-opacity="0" offset="100%"></stop>
        </linearGradient>
        <linearGradient x1="50.8328893%" y1="48.5122898%" x2="48.7352422%" y2="49.949691%" id="linearGradient-9">
            <stop stop-color="#02131F" offset="30%"></stop>
            <stop stop-color="#02131F" offset="30%"></stop>
            <stop stop-color="#02131F" stop-opacity="0" offset="80%"></stop>
        </linearGradient>
        <linearGradient x1="50.8945848%" y1="48.1529395%" x2="49.4755882%" y2="49.2309904%" id="linearGradient-10">
            <stop stop-color="#27343C" offset="40%"></stop>
            <stop stop-color="#3B474E" stop-opacity="0" offset="100%"></stop>
        </linearGradient>
        <linearGradient x1="32.9017965%" y1="32.0099256%" x2="71.8438273%" y2="71.9602978%" id="linearGradient-11">
            <stop stop-color="#24303A" stop-opacity="0" offset="0%"></stop>
            <stop stop-color="#25323B" stop-opacity="0" offset="0%"></stop>
            <stop stop-color="#27343C" offset="10%"></stop>
        </linearGradient>
        <linearGradient x1="55%" y1="102.109072%" x2="55%" y2="0.873606312%" id="linearGradient-12">
            <stop stop-color="#A5ABAF" offset="30%"></stop>
            <stop stop-color="#A5ABAF" stop-opacity="0" offset="100%"></stop>
        </linearGradient>
        <linearGradient x1="50.1597444%" y1="0%" x2="50.1597444%" y2="100%" id="linearGradient-13">
            <stop stop-color="#DEE0DD" offset="0%"></stop>
            <stop stop-color="#C5C9C7" offset="0%"></stop>
            <stop stop-color="#9EA4A5" offset="0%"></stop>
            <stop stop-color="#82898C" offset="0%"></stop>
            <stop stop-color="#71797D" offset="0%"></stop>
            <stop stop-color="#6B7378" offset="0%"></stop>
            <stop stop-color="#333F47" offset="20%"></stop>
            <stop stop-color="#27343C" offset="50%"></stop>
            <stop stop-color="#333F47" offset="80%"></stop>
            <stop stop-color="#434D54" offset="100%"></stop>
        </linearGradient>
        <linearGradient x1="45%" y1="50%" x2="45%" y2="50%" id="linearGradient-14">
            <stop stop-color="#DEE0DD" offset="0%"></stop>
            <stop stop-color="#C5C9C7" offset="0%"></stop>
            <stop stop-color="#9EA4A5" offset="0%"></stop>
            <stop stop-color="#82898C" offset="0%"></stop>
            <stop stop-color="#71797D" offset="0%"></stop>
            <stop stop-color="#6B7378" offset="0%"></stop>
            <stop stop-color="#333F47" offset="20%"></stop>
            <stop stop-color="#27343C" offset="50%"></stop>
            <stop stop-color="#333F47" offset="80%"></stop>
            <stop stop-color="#434D54" offset="100%"></stop>
        </linearGradient>
        <linearGradient x1="64.6011535%" y1="12.2249389%" x2="42.9511638%" y2="60.6356968%" id="linearGradient-15">
            <stop stop-color="#27343C" offset="70%"></stop>
            <stop stop-color="#2B373F" offset="70%"></stop>
            <stop stop-color="#36424A" offset="70%"></stop>
            <stop stop-color="#49545B" offset="70%"></stop>
            <stop stop-color="#646D73" stop-opacity="0" offset="80%"></stop>
            <stop stop-color="#868D92" stop-opacity="0" offset="80%"></stop>
            <stop stop-color="#B0B5B8" stop-opacity="0" offset="80%"></stop>
            <stop stop-color="#E1E3E4" stop-opacity="0" offset="80%"></stop>
            <stop stop-color="#FFFFFF" stop-opacity="0" offset="80%"></stop>
        </linearGradient>
    </defs>
    <g id="AU_version" stroke="none" stroke-width="1" fill="none" fill-rule="evenodd">
        <g id="MREC_300x250_F1" transform="translate(-255.000000, 0.000000)">
            <g id="logo" transform="translate(255.000000, 0.000000)">
                <polygon id="Black-Fill" fill="#000000" points="4 250 45 250 45 0 4 0"></polygon>
                <text id="The-all-new-C-Class." transform="translate(23.000000, 143.000000) rotate(-90.000000) translate(-23.000000, -143.000000) " font-family="MBCorpoATitleCond-Regular, MB Corpo A Title Cond" font-size="17" font-style="condensed" font-weight="normal" line-spacing="22" fill="#FFFFFF">
                    <tspan x="-35" y="149">The all new C-Class.</tspan>
                </text>
                <g id="1xBlock" transform="translate(0.000000, 200.000000)">
                    <g id="Guidelines"></g>
                    <g id="MB-Star-Mobile" transform="translate(11.742919, 17.107317)">
                        <path d="M25.1295139,12.6 C25.1295139,19.411875 19.5716435,24.924375 12.7037037,24.924375 C5.83576389,24.924375 0.277893519,19.411875 0.277893519,12.6 C0.277893519,5.788125 5.83576389,0.275625 12.7037037,0.275625 C19.5716435,0.275625 25.1295139,5.788125 25.1295139,12.6 Z M12.7037037,1.02375 C6.23275463,1.02375 1.03217593,6.181875 1.03217593,12.6 C1.03217593,19.018125 6.2724537,24.17625 12.7037037,24.17625 C19.1746528,24.17625 24.3752315,18.97875 24.3752315,12.6 C24.3752315,6.181875 19.1746528,1.02375 12.7037037,1.02375 Z" id="outer_24_" fill="url(#linearGradient-1)" fill-rule="nonzero"></path>
                        <path d="M12.7037037,1.02375 C6.23275463,1.02375 1.03217593,6.181875 1.03217593,12.6 C1.03217593,19.018125 6.2724537,24.17625 12.7037037,24.17625 C19.1746528,24.17625 24.3752315,18.97875 24.3752315,12.6 C24.3752315,6.181875 19.1746528,1.02375 12.7037037,1.02375 Z M12.7037037,23.428125 C6.66944444,23.428125 1.78645833,18.585 1.78645833,12.6 C1.78645833,6.615 6.66944444,1.771875 12.7037037,1.771875 C18.737963,1.771875 23.6209491,6.615 23.6209491,12.6 C23.6209491,18.585 18.737963,23.428125 12.7037037,23.428125 Z" id="Shape" fill="url(#linearGradient-2)" fill-rule="nonzero"></path>
                        <path d="M12.7037037,24.924375 C19.5716435,24.924375 25.1295139,19.411875 25.1295139,12.6 C25.1295139,5.788125 19.5716435,0.275625 12.7037037,0.275625 C5.83576389,0.275625 0.277893519,5.788125 0.277893519,12.6 C0.277893519,19.411875 5.83576389,24.924375 12.7037037,24.924375 L12.7037037,24.924375 Z M12.7037037,0 C19.6907407,0 25.4074074,5.67 25.4074074,12.6 C25.4074074,19.53 19.6907407,25.2 12.7037037,25.2 C5.71666667,25.2 0,19.53 0,12.6 C0,5.67 5.71666667,0 12.7037037,0 L12.7037037,0 Z" id="Shape" fill="url(#linearGradient-3)" fill-rule="nonzero" opacity="0.4"></path>
                        <path d="M0.87337963,12.639375 C0.87337963,6.181875 6.15335648,0.86625 12.7037037,0.86625 L12.7037037,0.86625 C19.2540509,0.86625 24.5340278,6.1425 24.5340278,12.639375 L24.5340278,12.639375 C24.5340278,19.096875 19.2540509,24.33375 12.7037037,24.33375 L12.7037037,24.33375 C6.15335648,24.33375 0.87337963,19.096875 0.87337963,12.639375 L0.87337963,12.639375 Z M4.56539352,4.528125 C2.46134259,6.615 1.15127315,9.489375 1.15127315,12.639375 L1.15127315,12.639375 C1.15127315,15.789375 2.46134259,18.66375 4.52569444,20.71125 L4.52569444,20.71125 C6.62974537,22.75875 9.52777778,24.058125 12.7037037,24.058125 L12.7037037,24.058125 C15.8796296,24.058125 18.777662,22.798125 20.8420139,20.71125 L20.8420139,20.71125 C22.9460648,18.66375 24.2164352,15.789375 24.2164352,12.639375 L24.2164352,12.639375 C24.2164352,9.489375 22.9063657,6.615 20.8420139,4.528125 L20.8420139,4.528125 C18.777662,2.44125 15.8796296,1.141875 12.7037037,1.141875 L12.7037037,1.141875 C9.52777778,1.141875 6.62974537,2.44125 4.56539352,4.528125 L4.56539352,4.528125 Z" id="Shape" fill="#FFFFFF" fill-rule="nonzero"></path>
                        <path d="M12.7037037,23.4675 C9.76597222,23.4675 7.02673611,22.325625 4.96238426,20.278125 C2.89803241,18.230625 1.74675926,15.51375 1.74675926,12.6 C1.74675926,9.68625 2.89803241,6.969375 4.96238426,4.921875 C7.02673611,2.874375 9.76597222,1.7325 12.7037037,1.7325 C15.6414352,1.7325 18.3806713,2.874375 20.4450231,4.921875 C22.509375,6.969375 23.6606481,9.68625 23.6606481,12.6 C23.6606481,15.51375 22.509375,18.230625 20.4450231,20.278125 C18.3806713,22.325625 15.6414352,23.4675 12.7037037,23.4675 L12.7037037,23.4675 Z M12.7037037,23.1525 C15.522338,23.1525 18.221875,22.05 20.2068287,20.08125 C22.2314815,18.073125 23.3033565,15.435 23.3033565,12.639375 C23.3033565,9.84375 22.1917824,7.16625 20.2068287,5.1975 C18.1821759,3.189375 15.522338,2.12625 12.7037037,2.12625 C9.88506944,2.12625 7.18553241,3.22875 5.2005787,5.1975 C3.17592593,7.126875 2.06435185,9.804375 2.06435185,12.6 C2.06435185,15.395625 3.17592593,18.073125 5.16087963,20.041875 C7.18553241,22.05 9.88506944,23.1525 12.7037037,23.1525 L12.7037037,23.1525 Z" id="Shape" fill="url(#linearGradient-4)" fill-rule="nonzero" opacity="0.4"></path>
                        <path d="M22.3505787,17.71875 C22.1520833,17.56125 14.490162,11.536875 14.490162,11.536875 L12.7037037,1.4175 C12.5846065,1.456875 12.4258102,1.575 12.346412,1.7325 L11.0760417,11.57625 L3.17592593,17.600625 C3.17592593,17.600625 3.01712963,17.7975 2.93773148,17.915625 C2.89803241,17.994375 2.89803241,18.1125 2.89803241,18.230625 C2.89803241,18.230625 2.89803241,18.230625 2.89803241,18.230625 L12.6640046,14.25375 L22.4299769,18.230625 C22.4299769,18.230625 22.4299769,18.230625 22.4299769,18.230625 C22.509375,18.03375 22.4299769,17.836875 22.3505787,17.71875 Z" id="Path" fill="#FFFFFF"></path>
                        <path d="M12.7831019,12.915 L12.7037037,14.72625 L21.6756944,18.309375 C21.993287,18.466875 22.2314815,18.388125 22.4696759,18.230625 L12.9021991,12.875625 C12.8625,12.83625 12.7831019,12.875625 12.7831019,12.915 Z" id="Path" fill="#565F64"></path>
                        <path d="M12.7831019,12.915 C12.7831019,12.915 13.2991898,13.820625 13.8946759,14.450625 C14.7283565,15.35625 15.8399306,15.98625 15.8399306,15.98625 L21.6756944,18.309375 C21.993287,18.466875 22.2314815,18.388125 22.4696759,18.230625 L12.9021991,12.875625 C12.8625,12.83625 12.7831019,12.875625 12.7831019,12.915 Z" id="Path" fill="url(#linearGradient-5)"></path>
                        <path d="M22.4299769,17.87625 C22.4299769,17.836875 22.3902778,17.7975 22.3505787,17.71875 L14.1725694,11.773125 L13.0609954,12.481875 C13.0609954,12.481875 13.1403935,12.52125 13.1800926,12.481875 C13.2991898,12.4425 13.5373843,12.403125 13.7755787,12.481875 C13.9740741,12.560625 22.4299769,17.915625 22.4299769,17.915625 C22.4299769,17.915625 22.4299769,17.915625 22.4299769,17.87625 Z" id="Path" fill-opacity="0.6" fill="#A4AAAE"></path>
                        <path d="M22.1520833,17.521875 L14.5298611,11.536875 L14.5298611,11.536875 L14.1725694,11.773125 L22.3505787,17.758125 C22.3108796,17.679375 22.2314815,17.600625 22.1520833,17.521875 Z" id="Path" fill="#333E46"></path>
                        <path d="M12.9021991,12.324375 C12.8625,12.36375 12.8625,12.36375 12.8625,12.36375 C12.8625,12.36375 12.8625,12.4425 12.9418981,12.403125 C12.9815972,12.36375 14.1328704,11.773125 14.5298611,11.536875 L13.1403935,2.086875 C13.1006944,1.7325 12.9418981,1.575 12.6640046,1.456875 L12.8228009,12.403125 L12.9021991,12.324375 Z" id="Path" fill="#565F64"></path>
                        <path d="M12.2273148,2.086875 L12.2273148,2.59875 L11.3539352,11.300625 C11.3539352,11.41875 11.3936343,11.536875 11.5127315,11.615625 L12.0288194,12.009375 L12.3861111,2.401875 L12.4258102,1.65375 C12.306713,1.7325 12.2670139,1.89 12.2273148,2.086875 Z" id="Path" fill-opacity="0.6" fill="#A4AAAE"></path>
                        <path d="M11.7509259,12.166875 L11.274537,11.773125 L3.215625,17.56125 C3.215625,17.56125 2.97743056,17.71875 2.93773148,17.87625 L2.93773148,17.87625 C2.93773148,17.87625 2.93773148,17.87625 2.93773148,17.87625 L2.93773148,17.87625 L3.215625,17.71875 L3.215625,17.71875 L11.6715278,12.4425 C11.8303241,12.36375 11.8700231,12.285 11.7509259,12.166875 Z" id="Path" fill-opacity="0.6" fill="#A4AAAE"></path>
                        <path d="M12.5846065,12.915 C12.5846065,12.875625 12.5449074,12.83625 12.5052083,12.875625 L2.89803241,18.27 C3.13622685,18.4275 3.3744213,18.466875 3.69201389,18.34875 L12.6640046,14.765625 L12.5846065,12.915 Z" id="Path" fill="#565F64"></path>
                        <path d="M12.8625,12.36375 L12.9021991,12.324375 C12.8625,12.36375 12.8625,12.36375 12.8625,12.36375 L12.8625,12.36375 C12.8625,12.36375 12.8625,12.403125 12.9021991,12.403125 C12.9021991,12.403125 12.9418981,12.403125 12.9418981,12.403125 C12.9815972,12.36375 14.1328704,11.773125 14.5298611,11.536875 L14.3710648,10.395 L14.3710648,10.395 L13.1403935,2.086875 C13.1403935,1.929375 13.1006944,1.81125 13.0212963,1.7325 C13.0212963,1.7325 13.6167824,9.68625 13.6167824,10.5525 C13.6167824,11.694375 12.8625,12.36375 12.8625,12.36375 Z" id="Path" fill="url(#linearGradient-6)"></path>
                        <path d="M12.5846065,12.915 C12.5846065,12.875625 12.5449074,12.83625 12.5052083,12.875625 L2.89803241,18.27 C3.13622685,18.4275 3.3744213,18.466875 3.69201389,18.34875 L12.6640046,14.765625 L12.5846065,12.915 Z" id="Path" fill-opacity="0.8" fill="url(#linearGradient-7)"></path>
                        <path d="M3.69201389,18.309375 L12.6640046,14.72625 L12.5846065,12.99375 C12.4258102,13.46625 12.1479167,13.978125 11.3936343,14.371875 C11.3936343,14.371875 11.3936343,14.371875 11.3936343,14.371875 C10.8378472,14.686875 5.5181713,17.285625 3.61261574,18.19125 C3.49351852,18.27 3.33472222,18.309375 3.25532407,18.34875 C3.41412037,18.4275 3.53321759,18.388125 3.69201389,18.309375 Z" id="Path" fill="url(#linearGradient-8)" opacity="0.8"></path>
                        <path d="M12.9021991,12.324375 C12.8625,12.36375 12.8625,12.36375 12.8625,12.36375 C12.8625,12.36375 12.8625,12.4425 12.9418981,12.403125 C12.9815972,12.36375 14.1328704,11.773125 14.5298611,11.536875 L13.1403935,2.086875 C13.1006944,1.7325 12.9418981,1.575 12.6640046,1.456875 L12.8228009,12.403125 L12.9021991,12.324375 Z" id="Path" fill="url(#linearGradient-9)"></path>
                        <path d="M12.9021991,12.324375 C12.8625,12.36375 12.8625,12.36375 12.8625,12.36375 C12.8625,12.36375 12.8625,12.4425 12.9418981,12.403125 C12.9815972,12.36375 14.1328704,11.773125 14.5298611,11.536875 L13.1403935,2.086875 C13.1006944,1.7325 12.9418981,1.575 12.6640046,1.456875 L12.8228009,12.403125 L12.9021991,12.324375 Z" id="Path" fill="url(#linearGradient-10)"></path>
                        <path d="M2.02465278,17.4825 C1.74675926,16.8525 0.158796296,13.78125 1.90555556,7.875 L1.2306713,7.875 C0.87337963,9.05625 0.595486111,9.765 0.436689815,10.828125 C0.436689815,10.828125 0.357291667,11.221875 0.317592593,11.655 C0.277893519,12.088125 0.277893519,12.324375 0.277893519,12.6 C0.277893519,14.9625 0.87337963,16.340625 0.87337963,16.340625 C1.50856481,18.309375 2.62013889,20.08125 4.1287037,21.42 C5.43877315,22.561875 7.46342593,23.428125 9.13078704,23.743125 C8.85289352,23.70375 4.08900463,21.695625 2.02465278,17.4825 Z" id="Path" fill="url(#linearGradient-11)"></path>
                        <path d="M12.8625,12.83625 L12.5052083,12.83625 L12.5052083,12.83625 C12.5449074,12.83625 12.5846065,12.83625 12.5846065,12.875625 L12.6640046,14.686875 L12.6640046,14.686875 L12.7037037,14.686875 L12.7831019,12.875625 C12.7831019,12.83625 12.8228009,12.796875 12.8625,12.83625 L12.8625,12.83625 L12.8625,12.83625 Z" id="Path" fill="url(#linearGradient-12)"></path>
                        <path d="M16.6736111,0.905625 C20.8420139,2.480625 24.7722222,6.811875 24.7722222,12.285 C24.7722222,18.9 19.4525463,24.294375 12.7037037,24.294375 L12.7037037,24.924375 C19.4525463,24.924375 25.1295139,19.411875 25.1295139,12.6 C25.1295139,7.16625 21.6359954,2.59875 16.6736111,0.905625 Z" id="Path" fill="url(#linearGradient-13)"></path>
                        <path d="M12.8228009,0.275625 C12.7831019,0.275625 12.7434028,0.275625 12.7037037,0.275625 C12.7434028,0.275625 12.7831019,0.275625 12.8228009,0.275625 C12.8228009,0.275625 12.8228009,0.275625 12.8228009,0.275625 Z" id="Path" fill="url(#linearGradient-14)"></path>
                        <path d="M23.3430556,7.95375 C20.5641204,1.614375 14.2916667,1.26 13.934375,1.220625 C13.934375,1.220625 13.934375,1.220625 13.8946759,1.220625 L13.8946759,1.220625 C18.6982639,2.086875 21.7550926,5.1975 22.8269676,8.465625 C22.8269676,8.465625 22.8269676,8.505 22.8269676,8.505 C23.3033565,9.765 23.5415509,11.10375 23.58125,12.560625 C23.6209491,13.93875 23.3033565,15.474375 22.7078704,16.891875 C22.6681713,17.08875 22.6284722,17.325 22.5887731,17.325 L23.2239583,17.325 C25.1295139,13.78125 24.2958333,10.198125 23.3430556,7.95375 Z" id="Path" fill="url(#linearGradient-15)"></path>
                        <path d="M0.87337963,12.639375 C0.87337963,6.181875 6.15335648,0.86625 12.7037037,0.86625 L12.7037037,0.86625 C19.2540509,0.86625 24.5340278,6.1425 24.5340278,12.639375 L24.5340278,12.639375 C24.5340278,19.096875 19.2540509,24.33375 12.7037037,24.33375 L12.7037037,24.33375 C6.15335648,24.33375 0.87337963,19.096875 0.87337963,12.639375 L0.87337963,12.639375 Z M4.56539352,4.528125 C2.46134259,6.615 1.15127315,9.489375 1.15127315,12.639375 L1.15127315,12.639375 C1.15127315,15.789375 2.46134259,18.66375 4.52569444,20.71125 L4.52569444,20.71125 C6.62974537,22.75875 9.52777778,24.058125 12.7037037,24.058125 L12.7037037,24.058125 C15.8796296,24.058125 18.777662,22.798125 20.8420139,20.71125 L20.8420139,20.71125 C22.9460648,18.66375 24.2164352,15.789375 24.2164352,12.639375 L24.2164352,12.639375 C24.2164352,9.489375 22.9063657,6.615 20.8420139,4.528125 L20.8420139,4.528125 C18.777662,2.44125 15.8796296,1.141875 12.7037037,1.141875 L12.7037037,1.141875 C9.52777778,1.141875 6.62974537,2.44125 4.56539352,4.528125 L4.56539352,4.528125 Z" id="Shape" fill="#FBFBFB" fill-rule="nonzero"></path>
                        <path d="M3.13622685,17.64 L3.13622685,17.64 L11.234838,11.851875 C11.6715278,12.088125 12.3861111,12.403125 12.4655093,12.403125 C12.5449074,12.4425 12.5449074,12.36375 12.5449074,12.36375 L11.5524306,11.536875 C11.4333333,11.458125 11.3936343,11.34 11.3936343,11.221875 L12.346412,1.7325 C12.306713,1.771875 12.306713,1.850625 12.2670139,1.89 C12.2273148,1.96875 12.2273148,2.008125 12.2273148,2.086875 L10.8378472,11.57625 L3.215625,17.521875 C3.17592593,17.56125 3.13622685,17.600625 3.13622685,17.64 Z" id="Path" fill="#333F47"></path>
                    </g>
                </g>
            </g>
        </g>
    </g>
</svg>